<svg xmlns="http://www.w3.org/2000/svg" xmlns:xlink="http://www.w3.org/1999/xlink" width="258.358" height="33.816" viewBox="0 0 258.358 33.816">
  <defs>
    <linearGradient id="linear-gradient" y1="0.5" x2="1" y2="0.5" gradientUnits="objectBoundingBox">
      <stop offset="0" stop-color="#95c3e1"/>
      <stop offset="0.5" stop-color="#0f4c75"/>
    </linearGradient>
    <linearGradient id="linear-gradient-3" x1="0" y1="0.5" x2="1" y2="0.5" xlink:href="#linear-gradient"/>
  </defs>
  <g id="Group_166" data-name="Group 166" transform="translate(14986.357 -13334.646)">
    <g id="Letter_Logo" data-name="Letter Logo" transform="translate(-14962.063 13334.646)">
      <path id="Path_328" data-name="Path 328" d="M432.93,689.027H418.74l-4.22,6.529h-4.1L428.552,669.8h2.872l6.871,25.756h-3.758Zm-.841-2.746-3.2-13.046-8.471,13.046Z" transform="translate(-410.42 -669.8)" fill="#1b262c"/>
      <path id="Path_329" data-name="Path 329" d="M471.579,679.41,458.6,699.086h-3.8L449.91,679.41h3.7l3.8,15.773,10.4-15.773Z" transform="translate(-424.926 -673.33)" fill="#1b262c"/>
      <path id="Path_330" data-name="Path 330" d="M531.625,680.822a6.08,6.08,0,0,1,1.942,4.827,12.6,12.6,0,0,1-.228,2.3l-2.271,11.028h-3.7l2.271-11.027a8.749,8.749,0,0,0,.2-1.632,3.733,3.733,0,0,0-1.2-2.974,5.289,5.289,0,0,0-3.543-1.038,7.591,7.591,0,0,0-4.948,1.575,7.87,7.87,0,0,0-2.6,4.694l-2.157,10.4h-3.7l4.043-19.676h3.549l-.506,2.531a10.14,10.14,0,0,1,7.4-2.714A7.965,7.965,0,0,1,531.625,680.822Z" transform="translate(-447.619 -673.224)" fill="#1b262c"/>
      <path id="Path_331" data-name="Path 331" d="M570.448,679.3,564.9,706.679H561.2l1.9-9.566a9.865,9.865,0,0,1-3.119,1.816,6.15,6.15,0,0,1-2.828.468,15.106,15.106,0,0,1-5.694-.867,7.681,7.681,0,0,1-3.2-3.005,8.953,8.953,0,0,1-1.152-4.618,12.261,12.261,0,0,1,1.5-6.086,10.838,10.838,0,0,1,4.144-4.2,11.685,11.685,0,0,1,5.909-1.512,10.086,10.086,0,0,1,4.606.968,6.327,6.327,0,0,1,2.866,2.853l.772-3.632Zm-9.376,16.013a7.453,7.453,0,0,0,2.847-3.005,9.194,9.194,0,0,0,1.025-4.384,5.41,5.41,0,0,0-1.582-4.157,6.313,6.313,0,0,0-4.511-1.48,7.807,7.807,0,0,0-4.081,1.082,7.592,7.592,0,0,0-2.847,3.005,9.053,9.053,0,0,0-1.044,4.385,5.384,5.384,0,0,0,1.6,4.144,6.327,6.327,0,0,0,4.486,1.493,7.915,7.915,0,0,0,4.093-1.082Z" transform="translate(-460.629 -673.217)" fill="#1b262c"/>
      <path id="Path_332" data-name="Path 332" d="M607.425,679.284,603.382,698.9H599.87l.5-2.4a10.045,10.045,0,0,1-3.22,1.942,6.749,6.749,0,0,1-3.075.519,14.685,14.685,0,0,1-5.574-.854,7.592,7.592,0,0,1-3.195-2.942,8.6,8.6,0,0,1-1.158-4.517,11.819,11.819,0,0,1,1.506-5.96,10.754,10.754,0,0,1,4.138-4.112,11.88,11.88,0,0,1,5.915-1.48,10.382,10.382,0,0,1,4.492.892,6.378,6.378,0,0,1,2.866,2.626l.7-3.334Zm-9.376,15.678a7.326,7.326,0,0,0,2.847-2.942,8.856,8.856,0,0,0,1.025-4.29,5.251,5.251,0,0,0-1.582-4.074,6.419,6.419,0,0,0-4.511-1.443,7.972,7.972,0,0,0-4.081,1.05,7.555,7.555,0,0,0-2.847,2.948,8.719,8.719,0,0,0-1.044,4.29,5.2,5.2,0,0,0,1.6,4.055,6.4,6.4,0,0,0,4.486,1.461A8.021,8.021,0,0,0,598.048,694.962Z" transform="translate(-474.235 -673.21)" fill="#1b262c"/>
      <path id="Path_333" data-name="Path 333" d="M661.123,669.8l-5.694,25.7h-3.537l.5-2.417a9.926,9.926,0,0,1-3.214,1.949,11.166,11.166,0,0,1-3.986.525,10.224,10.224,0,0,1-4.663-.86,7.547,7.547,0,0,1-3.163-2.955,8.668,8.668,0,0,1-1.158-4.536,11.913,11.913,0,0,1,1.5-5.991,10.831,10.831,0,0,1,4.144-4.131,11.819,11.819,0,0,1,5.865-1.462,10.4,10.4,0,0,1,4.524.911,6.258,6.258,0,0,1,2.872,2.664l2.309-9.37Zm-11.04,21.732a7.377,7.377,0,0,0,2.853-2.955,9,9,0,0,0,1.018-4.315,5.27,5.27,0,0,0-1.582-4.093,6.374,6.374,0,0,0-4.5-1.449,7.94,7.94,0,0,0-4.081,1.057,7.592,7.592,0,0,0-2.853,2.961,8.8,8.8,0,0,0-1.038,4.315,5.27,5.27,0,0,0,1.594,4.074,6.421,6.421,0,0,0,4.492,1.468,8.016,8.016,0,0,0,4.1-1.063Z" transform="translate(-493.358 -669.8)" fill="#1b262c"/>
      <path id="Path_334" data-name="Path 334" d="M679.865,693.829a7.525,7.525,0,0,1-2.645-6.137,15.246,15.246,0,0,1,.329-2.9l3.328-14.988h2.094l-3.284,14.956a11.711,11.711,0,0,0-.329,2.828,6.063,6.063,0,0,0,2.094,4.985,9.223,9.223,0,0,0,5.991,1.708,10.766,10.766,0,0,0,7.238-2.328q2.727-2.328,3.8-7.193l3.277-14.956h2.094l-3.322,15.064c-1.62,7.44-6.921,10.692-14.115,10.692C683.211,695.556,681.63,695.3,679.865,693.829Z" transform="translate(-508.423 -669.8)" fill="#1b262c"/>
      <path id="Path_335" data-name="Path 335" d="M735.4,682.44a7.535,7.535,0,0,1,2.531,5.992,11.787,11.787,0,0,1-1.582,6.073A11.18,11.18,0,0,1,732,698.738c-1.847,1.025-4.125,1.05-6.422,1.05s-3.834.044-5.27-.822a6.77,6.77,0,0,1-2.98-3.8l-2.664,12.255H712.61l5.871-27.078h2.012l-.823,3.8a10.546,10.546,0,0,1,3.859-2.929,12.242,12.242,0,0,1,5.125-1.044A10.126,10.126,0,0,1,735.4,682.44Zm-4.429,14.823a9.4,9.4,0,0,0,3.568-3.575,10.217,10.217,0,0,0,1.265-5.144,6.125,6.125,0,0,0-1.987-4.878,8.241,8.241,0,0,0-5.6-1.74,10.318,10.318,0,0,0-5.15,1.265,9.421,9.421,0,0,0-3.594,3.575,10.218,10.218,0,0,0-1.31,5.163,6.092,6.092,0,0,0,2.006,4.878,8.327,8.327,0,0,0,5.624,1.74,10.218,10.218,0,0,0,5.194-1.284Z" transform="translate(-521.423 -673.608)" fill="#1b262c"/>
      <path id="Path_336" data-name="Path 336" d="M753.739,699.153a9.883,9.883,0,0,1-3.549-1.752l1.107-1.443a8.615,8.615,0,0,0,3.163,1.645,14.3,14.3,0,0,0,4.2.633,10.406,10.406,0,0,0,5.15-1.05,3.239,3.239,0,0,0,1.828-2.929,2.1,2.1,0,0,0-.74-1.7,4.9,4.9,0,0,0-1.8-.943c-.715-.209-1.7-.437-2.955-.683a29.33,29.33,0,0,1-3.594-.841,5.694,5.694,0,0,1-2.315-1.386,3.442,3.442,0,0,1-.943-2.531,4.834,4.834,0,0,1,2.442-4.239,11.835,11.835,0,0,1,6.5-1.588,15.736,15.736,0,0,1,3.979.5,8.458,8.458,0,0,1,3.075,1.379l-.943,1.443a8.433,8.433,0,0,0-2.853-1.265,14.007,14.007,0,0,0-3.423-.424,9.541,9.541,0,0,0-4.947,1.107,3.321,3.321,0,0,0-1.828,2.917,2.214,2.214,0,0,0,.74,1.753,4.978,4.978,0,0,0,1.866.974q1.132.335,3.018.7a28.7,28.7,0,0,1,3.549.829,5.657,5.657,0,0,1,2.278,1.341,3.373,3.373,0,0,1,.943,2.531,4.783,4.783,0,0,1-2.531,4.239c-1.67,1.031-2.657,1.076-5.447,1.076C758.092,699.362,755.258,699.608,753.739,699.153Z" transform="translate(-535.227 -673.675)" fill="#1b262c"/>
      <path id="Path_337" data-name="Path 337" d="M497.3,679.291l-.7,3.334A6.377,6.377,0,0,0,493.742,680a10.382,10.382,0,0,0-4.492-.892,12.066,12.066,0,0,0-5.194,1.139l-6.327,9.541c0,.291-.051.576-.051.873a8.6,8.6,0,0,0,1.151,4.517,7.592,7.592,0,0,0,3.195,2.942c1.367.677,4.239.854,5.985.854a5.1,5.1,0,0,0,2.663-.519,10.048,10.048,0,0,0,3.22-1.942l-.5,2.4h3.543L500.98,679.3Zm-2.834,12.736a7.327,7.327,0,0,1-2.847,2.942,8.023,8.023,0,0,1-4.106,1.057,6.447,6.447,0,0,1-4.486-1.461,5.2,5.2,0,0,1-1.6-4.055,8.719,8.719,0,0,1,1.044-4.29,7.554,7.554,0,0,1,2.847-2.948,7.973,7.973,0,0,1,4.081-1.05,6.462,6.462,0,0,1,4.511,1.443,5.251,5.251,0,0,1,1.582,4.074A8.857,8.857,0,0,1,494.469,692.027Z" transform="translate(-435.125 -673.218)" fill="#1b262c"/>
      <path id="Path_338" data-name="Path 338" d="M632.145,680.594c.177-.1.367-.171.55-.259l.24-1.227a13.452,13.452,0,0,0-4.777.747,7.782,7.782,0,0,0-3.309,2.372l.576-2.929h-3.543l-4.043,19.676h3.695l2.043-9.813c.766-3.8,2.765-5.909,5.972-6.46A11.105,11.105,0,0,1,632.145,680.594Z" transform="translate(-486.612 -673.217)" fill="#1b262c"/>
    </g>
    <g id="Abstract_Logo_Mark" data-name="Abstract Logo Mark" transform="translate(-14986.357 13334.646)">
      <path id="Path_339" data-name="Path 339" d="M391.35,695.55h2.86l18.714-25.75h-2.86Z" transform="translate(-379.12 -669.8)" fill="url(#linear-gradient)"/>
      <path id="Path_340" data-name="Path 340" d="M384.55,697.21h-2.86l16.627-22.89h2.866Z" transform="translate(-375.572 -671.46)" fill="url(#linear-gradient)"/>
      <path id="Path_341" data-name="Path 341" d="M374.886,698.874H372.02l14.551-20.024h2.866Z" transform="translate(-372.02 -673.124)" fill="url(#linear-gradient-3)"/>
    </g>
  </g>
</svg>
