<svg xmlns="http://www.w3.org/2000/svg" width="198.4" height="24.6" viewBox="0 0 198.4 24.6">
  <g id="azerturk" transform="translate(42 -130)">
    <path id="XMLID_136_" d="M-19.2,138.2v3.2h9l-9,13.1h15v-3.3h-9l9-13Z" fill="#791cc0"/>
    <path id="XMLID_133_" d="M-42,154.5h3.3l2.6-6.5h9l2.6,6.5h3.3L-31.6,130Zm7.3-9.8,3.2-7.8,3.2,7.8Z" fill="#791cc0"/>
    <path id="XMLID_132_" d="M23.9,133.3h7.4v21.2h3V133.3h7.5V130H23.9Z" fill="#791cc0"/>
    <g id="XMLID_128_">
      <path id="XMLID_131_" d="M55,136.5h0a1.8,1.8,0,0,0,1.5-.7,2.271,2.271,0,0,0,.6-1.6,2.452,2.452,0,0,0-.6-1.6,1.957,1.957,0,0,0-3,0,2.433,2.433,0,0,0,0,3.2,2.127,2.127,0,0,0,1.5.7" fill="#791cc0"/>
      <path id="XMLID_130_" d="M47.1,136.5h0a1.513,1.513,0,0,0,1.4-.7,2.271,2.271,0,0,0,.6-1.6,2.452,2.452,0,0,0-.6-1.6,1.746,1.746,0,0,0-1.4-.7,1.8,1.8,0,0,0-1.5.7,2.111,2.111,0,0,0-.6,1.6,2.271,2.271,0,0,0,.6,1.6,2.127,2.127,0,0,0,1.5.7" fill="#791cc0"/>
      <path id="XMLID_129_" d="M55.5,151.2H51a4.221,4.221,0,0,1-3.2-1.5,4.837,4.837,0,0,1-1.3-3.4v-8.1h-3v8.2a8.244,8.244,0,0,0,2.2,5.8,6.936,6.936,0,0,0,5.3,2.4h7.5V138.2h-3Z" fill="#791cc0"/>
    </g>
    <path id="XMLID_127_" d="M17.4,140.6a8.078,8.078,0,0,0-2.2,5.8v8.1h3v-8.1a4.911,4.911,0,0,1,1.3-3.5,3.979,3.979,0,0,1,3.2-1.4h3v-3.3h-3a7.089,7.089,0,0,0-5.3,2.4" fill="#791cc0"/>
    <path id="XMLID_123_" d="M104.7,141a5.05,5.05,0,0,0,1.6-4.4,8.9,8.9,0,0,0-.8-3.3h0a14.63,14.63,0,0,0-.9-1.3,5.5,5.5,0,0,0-4.2-1.9h-9v24.5h9.8a6.007,6.007,0,0,0,4.7-2.2,7.672,7.672,0,0,0-1.2-11.4m-10.4-7.7h6a2.878,2.878,0,0,1,2.1.9,3.337,3.337,0,0,1,.9,2.3,3.168,3.168,0,0,1-.9,2.3,2.989,2.989,0,0,1-2.1,1h-6Zm9.4,16.7a3.367,3.367,0,0,1-2.6,1.2H94.4v-8.1h6.8a3.367,3.367,0,0,1,2.6,1.2,4.173,4.173,0,0,1,1.1,2.9,4.01,4.01,0,0,1-1.2,2.8" fill="#791cc0"/>
    <path id="XMLID_122_" d="M134.6,138.2h0a6.936,6.936,0,0,0-5.3,2.4,8.526,8.526,0,0,0-2.2,5.8v8.2h3v-8.2a4.911,4.911,0,0,1,1.3-3.5,3.979,3.979,0,0,1,3.2-1.4,4.48,4.48,0,0,1,3.2,1.4,4.911,4.911,0,0,1,1.3,3.5v8.2h3v-8.2a8.078,8.078,0,0,0-2.2-5.8,7.089,7.089,0,0,0-5.3-2.4" fill="#791cc0"/>
    <path id="XMLID_121_" d="M83.5,138.2l-5.1,6.5V130h-3v24.5h3v-5.4l4.8,5.4h4.1l-6.8-7.6,6.8-8.7Z" fill="#791cc0"/>
    <path id="XMLID_118_" d="M117.2,138.2h0a6.936,6.936,0,0,0-5.3,2.4,8.526,8.526,0,0,0-2.2,5.8,8.244,8.244,0,0,0,2.2,5.8,6.936,6.936,0,0,0,5.3,2.4h7.5v-8.2a8.078,8.078,0,0,0-2.2-5.8,7.089,7.089,0,0,0-5.3-2.4m4.4,13h-4.5a4.221,4.221,0,0,1-3.2-1.5,4.837,4.837,0,0,1-1.3-3.4,4.911,4.911,0,0,1,1.3-3.5,3.979,3.979,0,0,1,3.2-1.4,4.48,4.48,0,0,1,3.2,1.4,4.911,4.911,0,0,1,1.3,3.5Z" fill="#791cc0"/>
    <path id="XMLID_117_" d="M64.1,140.6a8.078,8.078,0,0,0-2.2,5.8v8.1h3v-8.1a4.911,4.911,0,0,1,1.3-3.5,3.979,3.979,0,0,1,3.2-1.4h3v-3.3h-3a6.789,6.789,0,0,0-5.3,2.4" fill="#791cc0"/>
    <path id="XMLID_114_" d="M5.5,138.2H-.6v3.3H5.5a4.109,4.109,0,0,1,2.6.9,5.33,5.33,0,0,1,1.6,2.3H-2v1.6a8.078,8.078,0,0,0,2.2,5.8,6.734,6.734,0,0,0,5.2,2.4,6.936,6.936,0,0,0,5.3-2.4,8.078,8.078,0,0,0,2.2-5.8,8.244,8.244,0,0,0-2.2-5.8,6.673,6.673,0,0,0-5.2-2.3m2.7,12.1a4.317,4.317,0,0,1-2.6.9,4.317,4.317,0,0,1-2.6-.9,4.466,4.466,0,0,1-1.6-2.4H9.8a5.1,5.1,0,0,1-1.6,2.4" fill="#791cc0"/>
    <path id="XMLID_113_" d="M152.5,138.2l-5,6.5V130h-3v24.5h3l-.1-5.4,4.9,5.4h4.1l-6.9-7.6,6.9-8.7Z" fill="#791cc0"/>
  </g>
</svg>
