<svg xmlns="http://www.w3.org/2000/svg" width="441.625" height="392.556" viewBox="0 0 441.625 392.556">
  <path id="contact-image" d="M122.674,343.486c-19.628,0-39.256-17.174-49.069-24.535C24.535,284.6,9.814,272.336,0,264.975V368.021a24.538,24.538,0,0,0,24.535,24.535H220.813a24.538,24.538,0,0,0,24.535-24.535V264.975c-9.814,7.36-24.535,19.628-73.6,53.976C161.929,326.312,142.3,343.486,122.674,343.486Zm98.139-147.208H24.535A24.538,24.538,0,0,0,0,220.813V233.08C19.628,247.8,17.174,247.8,88.325,299.324c7.36,4.907,22.081,19.628,34.349,19.628s26.988-14.721,34.349-17.174c71.151-51.523,68.7-51.523,88.325-66.244V220.813A24.538,24.538,0,0,0,220.813,196.278Zm196.278-73.6H171.743a24.538,24.538,0,0,0-24.535,24.535v24.535h73.6a49.142,49.142,0,0,1,48.847,44.331l.222-.169V318.952H417.09a24.538,24.538,0,0,0,24.535-24.535V147.208A24.538,24.538,0,0,0,417.09,122.674Zm-24.535,98.139H343.486V171.743h49.069Zm-269.882-73.6a49.125,49.125,0,0,1,49.069-49.069H343.486v-73.6A24.538,24.538,0,0,0,318.952,0H73.6A24.538,24.538,0,0,0,49.069,24.535V171.743h73.6Z" fill="#fafafa"/>
</svg>
