<svg xmlns="http://www.w3.org/2000/svg" width="175.858" height="54.52" viewBox="0 0 175.858 54.52">
  <g id="socar" transform="translate(0.224 -1.136)">
    <path id="Path_60556" data-name="Path 60556" d="M13.463,1.14a.5.5,0,0,1,.124,0,21.112,21.112,0,0,1,4.545,2.033,16.047,16.047,0,0,1,3.7,3.325A18.325,18.325,0,0,1,25.3,12.8a13.222,13.222,0,0,1,.54,2.946,26.526,26.526,0,0,1-.009,4.591,18.15,18.15,0,0,1-.573,3.638,19.743,19.743,0,0,1-.815,2.2c-.436,1.006-.889,2.007-1.4,2.978A20.026,20.026,0,0,1,20.2,33.2c-.693.774-1.376,1.554-2.094,2.3-.785.819-1.595,1.612-2.41,2.4a31.154,31.154,0,0,0-4.191,5.018A10.294,10.294,0,0,0,9.9,46.723a8.317,8.317,0,0,0,.24,4.109c.021.068.042.137.069.23a3.029,3.029,0,0,1-1.034-.172,7.517,7.517,0,0,1-3.774-2.618,12.561,12.561,0,0,1-2.572-5.787,17.262,17.262,0,0,1-.062-4.4,19.891,19.891,0,0,1,3.278-9.246c1.128-1.726,2.314-3.416,3.519-5.09a37.657,37.657,0,0,0,3.638-6.2,16.189,16.189,0,0,0,1.242-4.218,33.129,33.129,0,0,0,.427-4.172A17.288,17.288,0,0,0,14.5,5.349a35.941,35.941,0,0,0-.96-3.892C13.511,1.355,13.492,1.253,13.463,1.14Z" transform="translate(-1.216)" fill="#e4012c"/>
    <path id="Path_60557" data-name="Path 60557" d="M269.041,74.424h-6.854V47.59c.07,0,.128-.011.185-.011,4.331,0,8.663-.005,12.994.014a16.207,16.207,0,0,1,4.228.49,7.642,7.642,0,0,1,4.556,3.1,8.875,8.875,0,0,1,1.431,4.011,9.451,9.451,0,0,1-.228,3.481,6.352,6.352,0,0,1-3.274,4.122c-.57.307-1.182.537-1.774.8-.076.034-.154.063-.28.115l6.31,10.7h-7.561c-.053-.092-.125-.2-.189-.316q-2.531-4.467-5.055-8.937a.544.544,0,0,0-.564-.32c-1.29.014-2.581.006-3.926.006C269.04,68.041,269.043,71.218,269.041,74.424Zm.016-14.568c.079.009.114.016.149.016,1.821,0,3.642.017,5.464-.009a7.226,7.226,0,0,0,1.643-.213,3.022,3.022,0,0,0,2.355-2.25,5.057,5.057,0,0,0,.07-2.189,2.76,2.76,0,0,0-2.292-2.432,8.858,8.858,0,0,0-1.685-.176c-1.809-.021-3.618-.009-5.428-.007-.091,0-.183.015-.279.023Z" transform="translate(-110.701 -19.592)" fill="#010101"/>
    <path id="Path_60558" data-name="Path 60558" d="M128.3,74.575a14.432,14.432,0,0,1-5.512-1.018,12.3,12.3,0,0,1-6.189-5.478,15.075,15.075,0,0,1-1.83-5.785,16.354,16.354,0,0,1,.737-7.245,13.249,13.249,0,0,1,3.861-5.844,11.977,11.977,0,0,1,5.227-2.669,15.323,15.323,0,0,1,9.135.594,12.049,12.049,0,0,1,6.611,6.063,16.437,16.437,0,0,1,1.685,6.169,14.49,14.49,0,0,1-2.994,10.205,12.271,12.271,0,0,1-7.464,4.684A16.3,16.3,0,0,1,128.3,74.575ZM135.221,60.7a12.714,12.714,0,0,0-.453-3.679,7.673,7.673,0,0,0-1.546-3.076,6.472,6.472,0,0,0-5.243-2.224A5.957,5.957,0,0,0,123.329,54a8.09,8.09,0,0,0-1.519,3.012,12.5,12.5,0,0,0-.331,4.734,10.324,10.324,0,0,0,.833,3.2,6.577,6.577,0,0,0,12.235-.452A10.358,10.358,0,0,0,135.221,60.7Z" transform="translate(-48.458 -18.969)" fill="#010101"/>
    <path id="Path_60559" data-name="Path 60559" d="M91.783,51.552l-5.3,3.615c-.09-.084-.173-.151-.245-.228-.256-.272-.514-.543-.764-.822a5.921,5.921,0,0,0-2.194-1.553,9.547,9.547,0,0,0-4.006-.815,4.9,4.9,0,0,0-2.384.646,3.022,3.022,0,0,0-1.12,1.108,2.066,2.066,0,0,0,.763,2.883,4.467,4.467,0,0,0,1.636.556c.87.134,1.744.237,2.612.369a48.326,48.326,0,0,1,6.162,1.232,7.192,7.192,0,0,1,3.78,2.473,6.1,6.1,0,0,1,1.321,3.5,8.561,8.561,0,0,1-4.44,8.3,11.426,11.426,0,0,1-4.034,1.42,22.407,22.407,0,0,1-9.473-.341,14.459,14.459,0,0,1-7.076-4.149c-.131-.14-.26-.283-.416-.453l5.71-3.384a2.124,2.124,0,0,1,.164.149,9.511,9.511,0,0,0,4.579,2.767,10.818,10.818,0,0,0,3.9.426,5.749,5.749,0,0,0,2.674-.8,2.68,2.68,0,0,0,1.353-1.833,2.052,2.052,0,0,0-.9-2.2,4.78,4.78,0,0,0-1.948-.728c-.986-.168-1.978-.3-2.969-.438a31.1,31.1,0,0,1-4.856-.938,10.05,10.05,0,0,1-2.8-1.32,6.25,6.25,0,0,1-2.816-4.752,8.9,8.9,0,0,1,.607-4.292,7.87,7.87,0,0,1,3.609-3.908A12.566,12.566,0,0,1,77,46.669a17.171,17.171,0,0,1,5.942.072,15.314,15.314,0,0,1,5.747,2.35,27.809,27.809,0,0,1,3.092,2.462Z" transform="translate(-28.195 -19.114)" fill="#010101"/>
    <path id="Path_60560" data-name="Path 60560" d="M237.8,74.433h-7.3l-1.348-4.26H219.047c-.446,1.41-.892,2.82-1.345,4.249h-7.3l10.158-26.834h7.147Zm-10.205-9.124c-1.187-3.771-2.364-7.508-3.563-11.315-.382,1.395-.713,2.714-1.107,4.014-.7,2.327-1.445,4.643-2.169,6.963-.033.107-.057.217-.088.339Z" transform="translate(-88.858 -19.597)" fill="#010101"/>
    <path id="Path_60561" data-name="Path 60561" d="M186.48,65.006l5.366,2.686c-.061.107-.107.2-.164.284a15.811,15.811,0,0,1-2.062,2.7,13.181,13.181,0,0,1-7.232,3.742,13.481,13.481,0,0,1-7.757-.883,11.861,11.861,0,0,1-5.858-5.371,15.066,15.066,0,0,1-1.735-5.924,17.285,17.285,0,0,1,.152-4.724,13.768,13.768,0,0,1,5.263-8.861,12.3,12.3,0,0,1,6.178-2.431,13.35,13.35,0,0,1,7.095,1.08,12.327,12.327,0,0,1,5.5,4.86c.165.267.325.536.486.805a.978.978,0,0,1,.053.133l-5.4,2.646c-.053-.107-.107-.194-.149-.287a6.627,6.627,0,0,0-2.842-3.085,6.094,6.094,0,0,0-7.944,1.94,9.262,9.262,0,0,0-1.482,3.808,12.806,12.806,0,0,0,.48,6.248,6.886,6.886,0,0,0,2.506,3.5,6.189,6.189,0,0,0,4.464,1.066,5.958,5.958,0,0,0,4.331-2.772C185.981,65.8,186.214,65.417,186.48,65.006Z" transform="translate(-70.522 -18.978)" fill="#010101"/>
    <path id="Path_60562" data-name="Path 60562" d="M37.977,35.223c.222.238.408.427.579.623.44.512.879,1.026,1.311,1.546a11.075,11.075,0,0,1,1.861,3.288A21.039,21.039,0,0,1,42.9,45a14.025,14.025,0,0,1,.1,2.78,14.818,14.818,0,0,1-.753,4.152A15.545,15.545,0,0,1,39.23,57.08a29.037,29.037,0,0,1-4.536,3.968c-1.426,1.06-2.936,1.985-4.44,2.923a16.342,16.342,0,0,0-2.894,2.392,3.33,3.33,0,0,0-.893,3.327c.019.079.033.16.057.282a2.2,2.2,0,0,1-.262-.073,5.918,5.918,0,0,1-2.978-2.577,14.878,14.878,0,0,1-1.033-2.149,5.272,5.272,0,0,1-.324-2.449,9.587,9.587,0,0,1,1.322-4.131,13.706,13.706,0,0,1,1.323-1.716c1.029-1.151,2.088-2.276,3.149-3.4.729-.771,1.466-1.536,2.227-2.276.835-.81,1.508-1.756,2.283-2.616a22.85,22.85,0,0,0,2.723-3.869,21.246,21.246,0,0,0,1.61-3.632A34.058,34.058,0,0,0,37.936,35.4C37.941,35.364,37.951,35.33,37.977,35.223Z" transform="translate(-9.333 -14.38)" fill="#64a70c"/>
    <path id="Path_60563" data-name="Path 60563" d="M3.886,9.027a14.189,14.189,0,0,1,2.375.817,5.657,5.657,0,0,1,1.946,1.527A6.282,6.282,0,0,1,9.74,15.413a8.752,8.752,0,0,1-.126,1.367c-.037.311-.1.618-.149.928a7.26,7.26,0,0,1-.609,1.848,30.4,30.4,0,0,1-2.8,4.6c-.732,1.063-1.425,2.152-2.123,3.238a6.066,6.066,0,0,0-.9,2.5,1.035,1.035,0,0,1-.046.143c-.131-.083-.25-.156-.367-.231a6.724,6.724,0,0,1-2.7-3.813,3.4,3.4,0,0,1-.13-.962,11.1,11.1,0,0,1,.13-2.308,4.438,4.438,0,0,1,.267-.86,24.151,24.151,0,0,1,2.151-3.847,26.859,26.859,0,0,0,1.872-3.26,5.118,5.118,0,0,0,.454-2.923c-.047-.347-.067-.7-.124-1.041a4.2,4.2,0,0,0-.651-1.759Z" transform="translate(0 -3.329)" fill="#01a0de"/>
  </g>
</svg>
