<svg xmlns="http://www.w3.org/2000/svg" xmlns:xlink="http://www.w3.org/1999/xlink" width="75.754" height="105.117" viewBox="0 0 75.754 105.117">
  <defs>
    <linearGradient id="linear-gradient" x1="-103.697" y1="76.752" x2="-103.613" y2="76.752" gradientUnits="objectBoundingBox">
      <stop offset="0" stop-color="#fceebd"/>
      <stop offset="1" stop-color="#fff"/>
    </linearGradient>
    <linearGradient id="linear-gradient-2" x1="-105.814" y1="76.752" x2="-105.73" y2="76.752" xlink:href="#linear-gradient"/>
    <linearGradient id="linear-gradient-3" x1="-269.507" y1="100.809" x2="-269.288" y2="100.809" gradientUnits="objectBoundingBox">
      <stop offset="0" stop-color="#e9c55a"/>
      <stop offset="1" stop-color="#fff"/>
    </linearGradient>
    <linearGradient id="linear-gradient-4" x1="-242.784" y1="246.16" x2="-242.587" y2="246.16" xlink:href="#linear-gradient-3"/>
    <linearGradient id="linear-gradient-5" x1="-408.246" y1="502.019" x2="-407.912" y2="502.019" xlink:href="#linear-gradient-3"/>
    <linearGradient id="linear-gradient-6" x1="-389" y1="387.108" x2="-388.682" y2="387.108" xlink:href="#linear-gradient-3"/>
    <linearGradient id="linear-gradient-7" x1="-399.154" y1="387.205" x2="-398.828" y2="387.205" xlink:href="#linear-gradient-3"/>
    <linearGradient id="linear-gradient-8" x1="-372.527" y1="404.261" x2="-372.222" y2="404.261" xlink:href="#linear-gradient-3"/>
    <linearGradient id="linear-gradient-9" x1="-260.314" y1="242.338" x2="-260.101" y2="242.338" xlink:href="#linear-gradient-3"/>
    <linearGradient id="linear-gradient-10" x1="-274.539" y1="100.809" x2="-274.32" y2="100.809" xlink:href="#linear-gradient-3"/>
    <linearGradient id="linear-gradient-11" x1="-247.566" y1="246.16" x2="-247.368" y2="246.16" xlink:href="#linear-gradient-3"/>
    <linearGradient id="linear-gradient-12" x1="-418.07" y1="502.019" x2="-417.736" y2="502.019" xlink:href="#linear-gradient-3"/>
    <linearGradient id="linear-gradient-13" x1="-398.5" y1="387.108" x2="-398.182" y2="387.108" xlink:href="#linear-gradient-3"/>
    <linearGradient id="linear-gradient-14" x1="-409.487" y1="387.205" x2="-409.161" y2="387.205" xlink:href="#linear-gradient-3"/>
    <linearGradient id="linear-gradient-15" x1="-382.438" y1="404.261" x2="-382.134" y2="404.261" xlink:href="#linear-gradient-3"/>
    <linearGradient id="linear-gradient-16" x1="-266.936" y1="242.338" x2="-266.724" y2="242.338" xlink:href="#linear-gradient-3"/>
    <linearGradient id="linear-gradient-17" x1="-48.778" y1="15.81" x2="-48.778" y2="15.785" xlink:href="#linear-gradient-3"/>
    <linearGradient id="linear-gradient-18" x1="-46.21" y1="15.373" x2="-46.172" y2="15.373" xlink:href="#linear-gradient-3"/>
    <linearGradient id="linear-gradient-19" x1="-901.623" y1="472.112" x2="-900.874" y2="472.112" gradientUnits="objectBoundingBox">
      <stop offset="0" stop-color="#988359"/>
      <stop offset="1" stop-color="#fff"/>
    </linearGradient>
    <linearGradient id="linear-gradient-20" x1="-900.704" y1="472.905" x2="-899.957" y2="472.905" xlink:href="#linear-gradient-19"/>
    <linearGradient id="linear-gradient-21" x1="-909.909" y1="473.623" x2="-909.16" y2="473.623" xlink:href="#linear-gradient-19"/>
    <linearGradient id="linear-gradient-22" x1="-924.331" y1="473.623" x2="-923.584" y2="473.623" xlink:href="#linear-gradient-19"/>
    <linearGradient id="linear-gradient-23" x1="-933.916" y1="472.905" x2="-933.169" y2="472.905" xlink:href="#linear-gradient-19"/>
    <linearGradient id="linear-gradient-24" x1="-933.323" y1="472.112" x2="-932.574" y2="472.112" xlink:href="#linear-gradient-19"/>
    <linearGradient id="linear-gradient-25" x1="-61.465" y1="19.842" x2="-61.415" y2="19.842" xlink:href="#linear-gradient-3"/>
    <linearGradient id="linear-gradient-26" x1="-911.296" y1="471.714" x2="-910.547" y2="471.714" xlink:href="#linear-gradient-19"/>
    <linearGradient id="linear-gradient-27" x1="-923.36" y1="471.714" x2="-922.613" y2="471.714" xlink:href="#linear-gradient-19"/>
  </defs>
  <g id="din" transform="translate(-10.469 -0.263)">
    <path id="path2282" d="M36.721,23.455,30.775,15.73a108.524,108.524,0,0,1-20.27,17.376C18.933,32.332,27.486,28.259,36.721,23.455Z" transform="translate(0 68.087)" stroke="#c93" stroke-width="0.129" fill="url(#linear-gradient)"/>
    <path id="path2291" d="M19.649,23.455l5.945-7.725a108.523,108.523,0,0,0,20.27,17.376C37.436,32.332,28.883,28.259,19.649,23.455Z" transform="translate(40.323 68.087)" stroke="#c93" stroke-width="0.129" fill="url(#linear-gradient-2)"/>
    <g id="Layer1104" transform="translate(16.765 0.29)">
      <g id="Layer1105">
        <path id="path2300" d="M20.167,3.55A8.342,8.342,0,0,0,13,5.876L14.769,17.22l8.326-5.88Z" transform="translate(-5.741 13.648)" stroke="#c93" stroke-width="0.128" fill="url(#linear-gradient-3)"/>
        <path id="path2309" d="M12.616,8.9c3.424-3.284,7.135-5.074,11.2-3.808C21.293,1.586,13.249,3.214,12.616,8.9Z" transform="translate(-7.456 12.767)" stroke="#c93" stroke-width="0.128" fill="url(#linear-gradient-4)"/>
        <path id="path2318" d="M13.871,5.823l5.2-1.612c.454-.141.563-1.163-.011-1.163l-6.043.011a2.33,2.33,0,0,0,.849,2.764Z" transform="translate(-6.515 11.873)" stroke="#c93" stroke-width="0.128" fill="url(#linear-gradient-5)"/>
        <path id="path2327" d="M13.892,6.005l5.545.005c.476,0-.011-3.43-.573-3.446l-6.026-.151c-.5.893.227,2.965,1.055,3.592Z" transform="translate(-7.201 9.072)" stroke="#c93" stroke-width="0.128" fill="url(#linear-gradient-6)"/>
        <path id="path2336" d="M13.78,5.257l5.226.157c.476.011.216-3.43-.346-3.446l-6.026-.151c-.5.893.319,2.818,1.147,3.441Z" transform="translate(-8.052 6.44)" stroke="#c93" stroke-width="0.128" fill="url(#linear-gradient-7)"/>
        <path id="path2345" d="M13.514,4.677l5.724-.032c.476,0,.173-3.376-.395-3.381l-6.475-.032C11.869,2.129,12.686,4.049,13.514,4.677Z" transform="translate(-9.225 3.86)" stroke="#c93" stroke-width="0.128" fill="url(#linear-gradient-8)"/>
        <path id="path2354" d="M14.907,6.057l6.173-.438c.963-1.331,1.6-3.89.1-4.555-4.642-2.056-7.449.346-9.429,2.965-.287.379.114,1.861,1.087,1.731,1.309-.179,1.2-.362,2.067.3Z" transform="translate(-11.662 -0.29)" stroke="#c93" stroke-width="0.128" fill="url(#linear-gradient-9)"/>
      </g>
      <g id="Layer1106" transform="translate(45.809)">
        <path id="path2364" d="M23.057,3.55a8.342,8.342,0,0,1,7.162,2.326L28.456,17.22,20.13,11.335Z" transform="translate(-20.13 13.648)" stroke="#c93" stroke-width="0.128" fill="url(#linear-gradient-10)"/>
        <path id="path2373" d="M31.512,8.9c-3.424-3.284-7.135-5.074-11.2-3.808C22.835,1.586,30.879,3.214,31.512,8.9Z" transform="translate(-19.319 12.767)" stroke="#c93" stroke-width="0.128" fill="url(#linear-gradient-11)"/>
        <path id="path2382" d="M26.531,5.823l-5.2-1.612c-.454-.141-.563-1.163.011-1.163l6.043.011a2.33,2.33,0,0,1-.849,2.764Z" transform="translate(-16.533 11.873)" stroke="#c93" stroke-width="0.128" fill="url(#linear-gradient-12)"/>
        <path id="path2391" d="M26.778,6.005l-5.545.005c-.476,0,.011-3.43.573-3.446l6.026-.151c.5.893-.227,2.965-1.055,3.592Z" transform="translate(-16.116 9.072)" stroke="#c93" stroke-width="0.128" fill="url(#linear-gradient-13)"/>
        <path id="path2400" d="M26.741,5.257l-5.226.157c-.476.011-.216-3.43.346-3.446l6.026-.151C28.386,2.709,27.569,4.634,26.741,5.257Z" transform="translate(-15.116 6.44)" stroke="#c93" stroke-width="0.128" fill="url(#linear-gradient-14)"/>
        <path id="path2409" d="M27.4,4.677l-5.724-.032c-.476,0-.173-3.376.395-3.381l6.475-.032C29.047,2.129,28.23,4.049,27.4,4.677Z" transform="translate(-14.338 3.86)" stroke="#c93" stroke-width="0.128" fill="url(#linear-gradient-15)"/>
        <path id="path2418" d="M28.58,6.057l-6.173-.438c-.963-1.331-1.6-3.89-.1-4.555,4.642-2.056,7.449.346,9.429,2.965.287.379-.114,1.861-1.087,1.731C29.338,5.581,29.451,5.4,28.58,6.057Z" transform="translate(-14.472 -0.29)" stroke="#c93" stroke-width="0.128" fill="url(#linear-gradient-16)"/>
      </g>
    </g>
    <path id="path2430" d="M28.934,3.973C26.743,12.2,20.782,17,14.36,18.39c-7.054,31.225,4.8,54.422,25.512,72.382C59.883,74.029,73.894,51.184,66.3,18.276c-6.421-1.385-12.34-6.14-14.536-14.368a90.61,90.61,0,0,0-22.835.065Z" transform="translate(7.987 12.909)" stroke="#c93" stroke-width="0.084" fill="url(#linear-gradient-17)"/>
    <path id="path2447" d="M30.218,4.886C28.027,13.114,22.065,17.918,15.644,19.3c-7.054,31.225,4.8,54.422,25.512,72.382C61.167,74.942,75.178,52.1,67.588,19.19,61.167,17.8,55.248,13.044,53.052,4.816A90.61,90.61,0,0,0,30.218,4.886ZM29.006,3.7c-2.5,8.5-7.384,13.351-14.72,14.785C6.82,50.263,18.451,74.12,41.237,93.346c22.78-19.232,35.244-43.083,27.779-74.86C61.681,17.058,56.8,12.211,54.3,3.7a107.468,107.468,0,0,0-25.291,0Z" transform="translate(6.741 11.752)" stroke="#c93" stroke-width="0.128" fill="url(#linear-gradient-18)"/>
    <path id="path2449" d="M29,3.748c-2.5,8.5-7.384,13.351-14.72,14.785C6.813,50.309,18.444,74.166,41.23,93.392c22.78-19.232,35.244-43.083,27.779-74.86C61.674,17.1,56.794,12.257,54.289,3.748A107.469,107.469,0,0,0,29,3.748Z" transform="translate(6.71 11.955)" fill="none" stroke="#c93" stroke-width="0.051"/>
    <path id="path2458" d="M14.586,6.465a1.477,1.477,0,1,1-1.477,1.477A1.475,1.475,0,0,1,14.586,6.465Z" transform="translate(11.483 27.231)" fill="url(#linear-gradient-19)"/>
    <path id="path2467" d="M14.346,11.718a1.477,1.477,0,1,1-1.477,1.477A1.475,1.475,0,0,1,14.346,11.718Z" transform="translate(10.425 50.395)" fill="url(#linear-gradient-20)"/>
    <path id="path2476" d="M16.759,16.451a1.477,1.477,0,1,1-1.477,1.477A1.475,1.475,0,0,1,16.759,16.451Z" transform="translate(21.065 71.266)" fill="url(#linear-gradient-21)"/>
    <path id="path2485" d="M20.54,16.451a1.477,1.477,0,1,1-1.477,1.477A1.475,1.475,0,0,1,20.54,16.451Z" transform="translate(37.739 71.266)" fill="url(#linear-gradient-22)"/>
    <path id="path2494" d="M23.056,11.718a1.477,1.477,0,1,1-1.477,1.477A1.475,1.475,0,0,1,23.056,11.718Z" transform="translate(48.833 50.395)" fill="url(#linear-gradient-23)"/>
    <path id="path2503" d="M22.9,6.465a1.477,1.477,0,1,1-1.477,1.477A1.475,1.475,0,0,1,22.9,6.465Z" transform="translate(48.146 27.231)" fill="url(#linear-gradient-24)"/>
    <path id="path2661" d="M26.606,5.579A15.314,15.314,0,0,1,15.023,17.037c-5.6,24.814,3.63,43.2,20.086,57.468,15.9-13.3,27.227-31.409,21.2-57.56A15.815,15.815,0,0,1,44.193,5.579a67.87,67.87,0,0,0-17.587,0ZM27.682,6.8a16.277,16.277,0,0,1-11.7,11.285C10.8,41.029,19.941,59.65,35.153,72.844,49.857,60.542,60.444,42,54.866,17.822A15.888,15.888,0,0,1,43.159,6.834,56.6,56.6,0,0,0,27.682,6.8Z" transform="translate(12.679 20.802)" stroke="#c93" stroke-width="0.128" fill="url(#linear-gradient-25)"/>
    <g id="Layer1108" transform="translate(38.311 19.576)">
      <path id="path2670" d="M17.122,3.855a1.477,1.477,0,1,1-1.477,1.477A1.475,1.475,0,0,1,17.122,3.855Z" transform="translate(-15.645 -3.855)" fill="url(#linear-gradient-26)"/>
      <path id="path2679" d="M20.286,3.855a1.477,1.477,0,1,1-1.477,1.477A1.475,1.475,0,0,1,20.286,3.855Z" transform="translate(-1.693 -3.855)" fill="url(#linear-gradient-27)"/>
    </g>
    <g id="Layer1107" transform="translate(31.354 38.797)">
      <path id="path2507" d="M15.687,12.721h.1c.027,0,0-.038,0-.038Z" transform="translate(-8.502 15.853)" fill="#957d31"/>
      <path id="path2509" d="M22.922,13.882h0l.546-.1v-.216c-.151-.195-.39-.092-.546-.092-.092.2-.2.2-.238.2Zm-1.536.5h0c.352,0,.839,0,1.039-.249v-.2a1.488,1.488,0,0,0-1,.2c-.049.087-.1.157-.141.157.043.038.1.038.1.092Zm-3.267.1h0a1.625,1.625,0,0,0,.941-.157,1,1,0,0,0-.644-.195.68.68,0,0,1-.3.054.981.981,0,0,0-.043.195l.043.06Zm-.839-.3.444-.054v-.2a1.26,1.26,0,0,0-.638,0h-.108A.453.453,0,0,0,17.28,14.185Z" transform="translate(-2.814 19.231)" fill="#fff"/>
      <path id="path2511" d="M17.645,13.558l.038-.065c-.038,0-.038.065-.07.065Z" transform="translate(-0.009 19.425)" fill="#fff"/>
      <path id="path2513" d="M17.629,13.42l.081-.07S17.608,13.42,17.629,13.42Z" transform="translate(0.05 18.795)" fill="#fff"/>
      <path id="path2515" d="M17.3,13.357s.027,0,.027-.043Z" transform="translate(-1.389 18.636)" fill="#fff"/>
      <path id="path2521" d="M18.079,13.266h.043S18.079,13.228,18.079,13.266Z" transform="translate(2.046 18.349)" fill="#fff"/>
      <path id="path2523" d="M19.008,13.168l.925-.249c0-.081-.038-.114-.07-.114a5.787,5.787,0,0,1-1.163.254Z" transform="translate(4.784 16.396)" fill="#fff"/>
      <path id="path2525" d="M15.707,12.76h.1c.027,0,0-.032,0-.032Z" transform="translate(-8.414 16.052)" fill="#fff"/>
      <path id="path2527" d="M18.977,13.1a1.491,1.491,0,0,0,1-.362l-.141-.114a6.984,6.984,0,0,1-.893.481h.038Z" transform="translate(5.838 15.571)" fill="#fff"/>
      <path id="path2529" d="M17.221,17.5l-.124-.076c0-.06-.054-.114,0-.238l.249.173v.06c0,.076-.07.076-.07,0C17.27,17.5,17.221,17.5,17.221,17.5Zm12.064,12.28c.909,0,1.379-.839,2.142-1.022a1.782,1.782,0,0,1,.963.471,2.143,2.143,0,0,0,2.077.189.511.511,0,0,0,.238-.481v-.076a9.5,9.5,0,0,1-1.785-.779c1,0,1.726,1.093,2.662.779.119,0,.3-.1.3-.238v-.238c-.768-.373-1.607-.552-2.2-.849a8.6,8.6,0,0,1,2.38.725c.341.124.774.243,1.066.357a4.728,4.728,0,0,1-1.553.611v.054a2.22,2.22,0,0,0,1.553.135,2.846,2.846,0,0,0,1.482-.563l.3-1.087h.362l.054.06-.287.427c0,.124.054.124.114.124a16.57,16.57,0,0,0,1.493-.8l.476-1.033s0-.065-.06-.065l-.179-.238a8.535,8.535,0,0,1-2.559.417h-.054a14.812,14.812,0,0,0,5.047-1.639.491.491,0,0,0-.059-.179A4.855,4.855,0,0,1,40,25.757a13.839,13.839,0,0,0,2.315-.784c.768-.444,1.547-.92,2.148-1.288V23.5a4.7,4.7,0,0,1-2.618.86h0a12.409,12.409,0,0,0,2.321-1.039c.476-.541.947-.665,1.493-1.277,0-.06,0-.06-.076-.06-.476.292-.774.671-1.239.8a1.45,1.45,0,0,1-1.071.411h0a3.841,3.841,0,0,0,1.542-.963c.536-.557,1.147-.974,1.618-1.526l-.065-.049a7.588,7.588,0,0,1-2.083,1.266,7,7,0,0,0,2.51-2.375l-.065-.184c-.3.3-.768.86-1.136,1.158A21.1,21.1,0,0,0,47.905,17.3c0-.124-.038-.124-.038-.124-.606.736-.9,1.758-1.9,2.007a11.768,11.768,0,0,0,1.666-2.191c.1-.368.406-.481.406-.909,0,0,0-.054-.124-.054a4.031,4.031,0,0,1-.947,1.39c.184-.422.427-.9.665-1.39.1-.427.465-.676.53-1.1h-.124l-.644,1.028V15.9l.822-2.678H48.16a5.154,5.154,0,0,1-.665,1.455c-.1,0,0-.07,0-.179l.6-1.828h-.06L47.494,13.9l.541-1.9h-.124l-.281,1.028c-.243-.719.238-1.634.281-2.245l-.179-.054a6,6,0,0,1-.584,2.44h-.119l.238-1.455-.054-.07-.779,2.786c-.065,0-.065.07-.065,0,0-.9.427-1.758.427-2.429-.065.433-.362.849-.427,1.4-.222.606-.465,1.1-.7,1.634-13.557,17.414-26.589,4.631-29.375-2.916h-.065c-.184-.124-.184-.411-.3-.481-.3-.249-.655.07-.709.184-.184.427-.3,1.028,0,1.342v.049l.233.308v.195c-.184.179-.3.179-.422.471-.108.13,0,.308,0,.546l-.649.189a1.2,1.2,0,0,0,.059.611,2.607,2.607,0,0,0,.649.481v.3l.536.184a1.664,1.664,0,0,0,.665,1.45,1.026,1.026,0,0,0,.7.195,1.721,1.721,0,0,0,.373,1.39c0,.076,0,.076.119.076-.119.346-.525.346-.6.719,0,.238,0,.665.184.719.3.373.893,0,1.309.373h.06c-.06.233-.476.233-.476.481-.119.308.124.6.233.736a1.259,1.259,0,0,0,.481.124l-.481.362.119.357a2.646,2.646,0,0,0,1.26.481v.07h.292a1.513,1.513,0,0,0,.471.8h.054v.13a1.69,1.69,0,0,1-.406.114,1.424,1.424,0,0,0-.536.606c0,.3.124.557.357.611.352.362.584.362,1.131.179.238.179.184.606.417.671.1,0,.1,0,.281.124a2.761,2.761,0,0,0,0,1.212c.184,0,.184.119.308.119a3.661,3.661,0,0,0,1-.914.667.667,0,0,1,.784.065c.054.06.054.06.054.238a1.913,1.913,0,0,0-.233.93c.119.411.233.6.481.66a.923.923,0,0,0,1.066-.13.555.555,0,0,0,.179-.611c0-.1,0-.238.06-.238.422-.238.958.238,1.19-.238.06,0,.06-.124.114-.124.184.124.481.243.6.124a.385.385,0,0,0,.3-.124h.1c0,.243.184.357.3.5,0,.1-.222.1-.179.417.06.054.238.114.308.184,1.477-.124,2.148-1.271,3.619-1.52h.352v.179h-.168c-.06,0,0,0,0,.07l-.357-.07c.179.07.179,0,.179.07-.179.119-.179,0-.238,0v.119h.065c0,.065-.114,0-.114,0l-.06.065c-.124,0-.173.124-.173,0v.124H31.1v.238h-.114l-.287.135h-.13c.07,0,.07,0,0,.1H30.4c-.076.081-.179,0-.179,0v.081h-.13c-.292.233-.719,0-.952.233l-.233.3c0,.13.173.13.233.314Z" transform="translate(-14.359 7.237)" fill="#151610"/>
      <path id="path2531" d="M14.986,11.728h-.032v.049h.032Z" transform="translate(-11.735 11.642)" fill="#151610"/>
      <path id="path2533" d="M27.736,24.909h.238v-.189c.065,0,.065.07.065.07.06,0,.06-.07.06-.07h-.06l.06-.119-.06-.238h-.065l-.179-.054v.054C27.617,24.362,27.617,24.719,27.736,24.909Zm-.952-.308H26.9v-.06h.059l.065-.179.07.179c0-.179,0-.179-.07-.179h.162s-.1,0-.1-.054h.1c.076-.07,0-.07,0-.179,0-.065,0-.065.076-.065-.362.065-.66-.362-1.136-.427V23.7c.06.3.3.611.362.844Zm-5.053.308h0a4.193,4.193,0,0,0,.909-.849,3.524,3.524,0,0,0-.909-.249,1.97,1.97,0,0,0-.13.909A.643.643,0,0,1,21.731,24.909Zm-2.488-4.685h.1c0-.357.238-.611,0-.9a1.465,1.465,0,0,0-.887.422l.06.124A.909.909,0,0,0,19.242,20.224ZM15,12.439l.368-.676a.891.891,0,0,0-.725-.238.652.652,0,0,0-.238.06,1.008,1.008,0,0,0,.13.422A4.119,4.119,0,0,0,15,12.439Z" transform="translate(-14.151 10.747)" fill="#d8ac56"/>
      <path id="path2535" d="M24,14.513h0l.655-.114v-.265c-.189-.233-.481-.108-.655-.108-.119.238-.243.238-.3.238Zm-1.845.606h0c.422,0,1,0,1.239-.308v-.238a1.763,1.763,0,0,0-1.179.238c-.06.114-.124.195-.184.195.06.049.124.049.124.114Zm-3.927.119h0a2.029,2.029,0,0,0,1.125-.179,1.191,1.191,0,0,0-.774-.243.723.723,0,0,1-.346.07,1.221,1.221,0,0,0-.054.238l.054.07v.043Zm-1-.357.53-.07v-.238a1.518,1.518,0,0,0-.768,0h-.141a.65.65,0,0,0,.379.308Z" transform="translate(-3.4 21.63)" fill="#c4ab85"/>
      <path id="path2537" d="M17.42,16.373h-.476l1.9-1.044v-.06c.07,0,.07-.054.184,0,.3,0,.362-.179.541-.3a.912.912,0,0,1,.3-.114.39.39,0,0,1,.238.179h-.238v.054l-.3.124v.054h-.179l-.06.06h-.3v.189h-.108c-.07,0-.07,0-.07.06h-.179V15.7s-.108-.119-.108,0h-.13v.065h-.06c-.114.124,0,.124,0,.124-.114.108-.114,0-.3,0v.108H18.02c0,.13,0,.13-.124.13l-.346.135s.054,0,.054.114H17.42Zm1.239-1.336h.179l-.179-.622a1.3,1.3,0,0,0-.768-.238V14.3c-.054,0-.054,0,0,.114V14.3c.124.114,0,.114,0,.184.124.114.124,0,.124,0h.054l-.054.189.054-.081s0-.114.184-.114v.3c0-.114,0-.114.114-.114h.06v0H18.5l-.076.114c.076.07.076-.114.13,0,0,0,0,.07-.06.07l.06-.07.108.07-.162.114c.06.065.06-.06.162-.06l-.108.124.108.054Zm2.808-.622h0c.108,0,.108-.114.173-.114,0-.124.065-.124.179-.124h.06L22,14.069c.06,0,.184-.26.373-.081l.049.081.06-.081v-.179l.179-.114c0-.124-.179-.124-.287-.124a2.306,2.306,0,0,0-.725.611h-.233Zm2.077,1.471h-.06c.06,0,.06,0,.06-.124l-.108.124v-.124h-.417c0-.065.049-.065.049-.065h-.049l-.06-.119-.179.119h-.07c0-.119-.059,0-.059,0v-.119h-.124l.124-.06h-.238c.06,0,.06,0,0-.189,0,0,0,.189-.049.189-.124-.189,0-.189,0-.189l-.314.189c0-.189.124-.189.124-.189h-.3v-.06a.712.712,0,0,1,.362-.054,11.993,11.993,0,0,1,1.6.481Zm-2.131.546.357-.065-.13.065.411-.065H22.7a4.52,4.52,0,0,0-1.655-.676.4.4,0,0,0-.3.189h.179l-.119.238.173-.13s.07,0,0,.13h-.054c-.06,0-.06,0-.119.135l.357-.135h.124l-.233.249c.108,0,.352-.114.525-.114l-.411.179.655-.179v.114a1.334,1.334,0,0,0-.53.065Z" transform="translate(-3.078 19.769)" fill="#7e6659"/>
      <path id="path2539" d="M17.642,14.127l.054-.081c-.054,0-.054.081-.087.081Z" transform="translate(-0.022 21.864)" fill="#fff"/>
      <path id="path2541" d="M17.632,13.961l.087-.087S17.6,13.961,17.632,13.961Z" transform="translate(0.048 21.105)" fill="#fff"/>
      <path id="path2543" d="M17.233,13.875s.032,0,.032-.043Z" transform="translate(-1.685 20.92)" fill="#fff"/>
      <path id="path2549" d="M18.17,13.772h.038S18.17,13.728,18.17,13.772Z" transform="translate(2.447 20.569)" fill="#fff"/>
      <path id="path2551" d="M16.853,13.767H16.9l-.049-.141Z" transform="translate(-3.36 20.012)" fill="#151610"/>
      <path id="path2553" d="M17.03,13.746V13.7s-.092-.087-.13-.087C16.819,13.7,16.938,13.7,17.03,13.746Z" transform="translate(-3.272 19.946)" fill="#151610"/>
      <path id="path2555" d="M16.009,13.581c.032,0,.032,0,0-.043Z" transform="translate(-7.082 19.624)" fill="#151610"/>
      <path id="path2557" d="M16.168,13.621v-.1c0-.038-.076.1-.124,0Z" transform="translate(-6.928 19.53)" fill="#151610"/>
      <path id="path2559" d="M16.222,13.572H16.3v-.087l-.124.087Z" transform="translate(-6.359 19.39)" fill="#fff"/>
      <path id="path2561" d="M16.1,13.67h.049v-.049c0-.087,0-.087.076-.087.049,0-.076,0,0-.049v-.043h-.076Z" transform="translate(-6.681 19.205)" fill="#151610"/>
      <path id="path2563" d="M16.191,13.509v-.038s-.038-.043-.038,0Z" transform="translate(-6.447 19.242)" fill="#151610"/>
      <path id="path2565" d="M16.041,13.455h.087C16.122,13.369,16.041,13.455,16.041,13.455Z" transform="translate(-6.941 19.09)" fill="#151610"/>
      <path id="path2567" d="M16.333,13.436h.032c0-.049-.032-.049-.032-.049Z" transform="translate(-5.654 18.958)" fill="#151610"/>
      <path id="path2569" d="M16.52,13.436v-.049H16.4A.189.189,0,0,0,16.52,13.436Z" transform="translate(-5.376 18.958)" fill="#fff"/>
      <path id="path2571" d="M16.981,13.5s0-.049.081-.049c0,0,0,.049.027.049-.027-.049-.027-.124-.108-.124-.049.076-.049.076-.049.124Z" transform="translate(-3.012 18.896)" fill="#151610"/>
      <path id="path2575" d="M19.286,13.658l1.109-.3c0-.092-.049-.135-.07-.135a7.2,7.2,0,0,1-1.412.3Z" transform="translate(5.724 18.221)" fill="#ffe900"/>
      <path id="path2577" d="M16.968,13.293,17,13.25h-.032Z" transform="translate(-2.853 18.354)" fill="#151610"/>
      <path id="path2579" d="M17.547,13.335h.032c.054,0,.054-.043.054-.135h-.087c-.087,0,0,.092-.087.135Z" transform="translate(-0.684 18.133)" fill="#fff"/>
      <path id="path2581" d="M15.32,13.175h.124c.032,0,0-.049,0-.049Z" transform="translate(-10.121 17.807)" fill="#fff"/>
      <path id="path2583" d="M16.689,13.431h0v-.124s0-.054-.114-.054h-.06v-.189H16.4v.189h.179Zm-.287.233h0c0-.108.119,0,0-.108C16.342,13.555,16.4,13.663,16.4,13.663Zm-.06-.173v-.179h-.124l-.054-.054.054-.189h-.054v.189H16.1v.179h.119c.124-.005,0,.054.124.054Z" transform="translate(-6.685 17.529)" fill="#fff"/>
      <path id="path2585" d="M16.3,13.277,16.21,13.1s0,.049-.081.049c0,.038.081,0,.081,0a.189.189,0,0,1,.049.13C16.253,13.325,16.253,13.277,16.3,13.277Z" transform="translate(-6.553 17.683)" fill="#fff"/>
      <path id="path2587" d="M19.245,13.555a1.724,1.724,0,0,0,1.19-.438L20.273,13a8.29,8.29,0,0,1-1.071.563h.043Z" transform="translate(6.998 17.242)" fill="#ffe900"/>
      <path id="path2589" d="M19.5,13.33l1.028-.438v-.043c-.3-.092-.5.227-.784.314a2.019,2.019,0,0,0-.3.092s0,.076.054.076Z" transform="translate(8.07 16.51)" fill="#ffe900"/>
      <path id="path2591" d="M31.23,26.722h0l.422-.179c.1-.119.341-.417.1-.676a.462.462,0,0,0-.1-.238,1.549,1.549,0,0,1-.487-.611c0-.3.417-.357.352-.839-.108-.13-.352-.13-.53-.26-.287-.114-.352,0-.59,0h-.411c-.06,0-.119-.173-.3-.243-.065-.352,0-.665-.179-.79a.663.663,0,0,0-.671-.179,6.849,6.849,0,0,0-1.239.855h.184c.238.114,0,.114,0,.114,0,.07.049.07,0,.124H27.6l-.06.184c0,.065.06-.07.06,0,.184.065,0,.065,0,.124a.177.177,0,0,1-.119-.065v.065l.119.065h-.06s.06,0,.06.184v.049c.779-.227,1.066-.66,1.661-.914l-.238.308-.59.373c.233.179.59,0,.947.179a1.912,1.912,0,0,0,.779.049c.346,0,.649.184,1.006,0,0,.184-.184.254-.357.308-.173,0-.411-.054-.649-.054.346.3.584.855,1.006,1.2h0c-.471-.114-.709-.849-1.185-1.147,0,.249.179.487,0,.909h-.06c.06-.422,0-.909-.3-.963a1.9,1.9,0,0,0-1.477-.195c.114.195.346.249.346.5,0,.054-.054.054-.054,0a.59.59,0,0,0-.6-.3l-.049.054h-.422v.243a.117.117,0,0,0,.119-.119c.06,0,.06.119.119.119,0,.054-.06.054-.06.054h-.179l-.07-.054v.054s.07.124,0,.189c-.049,0-.049.243-.049.314v.108h.049c.07,0,0,0,0,.124l.189-.124v.124h-.119l.233.114a1.225,1.225,0,0,0,.887-.238c.179-.179.476-.422.6-.179.06,0,.06.07.06.07.287.108.287.72.471.968h.3c.238-.124.346-.444.584-.362.238.184.3.541.66.541a.07.07,0,0,0,.07.065Zm-5.848-1.2c-.1,0-.157-.07-.157-.26a1.549,1.549,0,0,1-.481-.292l.054-.249a1.976,1.976,0,0,0,.779-.606.631.631,0,0,0-.238-.438c-.3-.184-.839,0-1.2.07-.162.054-.287-.07-.4-.07-.06,0-.06-.114-.184-.184-.054,0-.179-.168-.179-.3.179-.179.471,0,.6-.179a.363.363,0,0,0,.292-.362c-.065-.368-.584-.481-.947-.611a.871.871,0,0,1-.3-.6l.054-.195V21.2c.07-.179.249-.243.433-.314.4.314.882.362,1.12.86a1.284,1.284,0,0,0,.481-.054l.822.357c.07,0,.07.13,0,.243a.472.472,0,0,0,.184.368.853.853,0,0,0,.671-.124c.276-.065.514,0,.584.184a.872.872,0,0,1,.119.784c-.189.492-.368.866-.476,1.223a7.91,7.91,0,0,1-.411-1.52c0-.179,0-.179-.065-.179v.9c-.119-.422-.606-.671-.952-.963l-.238-.914c0-.119-.054-.119-.054,0h-.06l.157.849a3.609,3.609,0,0,1-1.531-1.45l-.06.049v.076a4.55,4.55,0,0,0,1.434,1.455c-.184,0-.606,0-.779.179h0c.352.054.779-.179,1.19,0a2.285,2.285,0,0,1,.893,1.163h-.828c0,.049-.065.049-.065.049l.065.06c.411,0,.768-.06,1.006.195l.233.6Zm-1.828,2.851h0a.888.888,0,0,0,.644-.179c.184-.368,0-.855.3-1.044.427-.119.784.433,1.136.065.179-.179,0-.422-.06-.546-.054-.179-.238-.3-.238-.541.043-.189.184-.26.238-.373.124,0,.422.114.53.114.173.26.362.373.487.373.114-.114.114-.114.184-.114l.054-.189-.124-.184-.179-.124-.119.124h-.13l.13-.124h-.417l-.357.124c-.06,0-.06-.124-.06-.124s0,.124-.054.124l-.184-.124c-.114.124-.3,0-.3,0-.119,0-.119,0-.119-.108h-.179c-.243.108-.124.53,0,.844a2.648,2.648,0,0,0,.179.611,2.134,2.134,0,0,1-.427-1.039,5.535,5.535,0,0,0-.763,1.888,3,3,0,0,1,.525-1.774l-.065-.114c-.227.189-.352.373-.519.427v-.054c.227-.373.768-.444,1.006-.86v-.189h.06l-.124-.238H24.5v-.054c.119,0,0-.249.059-.249h.06l-.06-.124c.06-.124.124,0,.124-.124.06-.06-.065-.06-.065-.108l.179-.179h-.054V24.12L24.8,24h-.179l-.06-.07-.584.13c-.07.13,0,.13,0,.308l.406.357v.249c-.184.054-.243.179-.481.238a1.9,1.9,0,0,0-.763.314.666.666,0,0,0-.655.346.418.418,0,0,0,.065.444c.281.114.584.054.763.233.184.249.06.433,0,.606a.768.768,0,0,0-.249.736c0,.249.07.427.308.481Zm-1.309-1.948v-.379c0-.114.06-.179,0-.179h-.07v-.114c0-.124,0-.124.07-.124v.238c.06-.114.06-.114.173-.114-.173-.124-.238-.492-.6-.546-.352.054-.465.546-.7.66a1.1,1.1,0,0,1-.481,0l-.119-.238a.968.968,0,0,0-.114-.422c-.184-.189-.481.054-.779.054-.346-.054-.471-.054-.53-.238-.233-.173,0-.422.06-.655.06-.179.352-.179.525-.179a1.259,1.259,0,0,0,.546-.065,1.257,1.257,0,0,0,.06-.438c0-.184.049-.352.173-.352.3,0,.714.238,1.006,0a.69.69,0,0,0,.308-.546c0-.254.238-.319.465-.5.411,0,.822.427,1.071.73l-.119.179.119.13c-.119,0-.119.168-.119.168.119.07.119,0,.119,0l.06.184h.124v.07c-.124,0,0-.07-.124-.07h-.238c0,.07.06.07.06.124.119,0,.179-.124.179,0h-.06c-.481.114-.763-.308-1.136-.557v.081l.476.476a4.74,4.74,0,0,0-1.244.373c-.227-.065-.579-.373-.887-.373v.114l.833.26c-.525.292-1.071,0-1.434.417H20.1c.411-.124,1.012,0,1.3-.233-.054.233-.179.357-.487.606v.179c.433-.179.487-.676.855-.963a2.91,2.91,0,0,1,1.012-.13c-.189.13-.373.308-.546.417v.249a2.87,2.87,0,0,0,.59-.606.448.448,0,0,1,.481-.065c.06,0,.238,0,.238.065l-.238.065.184.179h.054l.124.108a.207.207,0,0,1-.179.195c0,.054,0,.054.054.054h-.054v.124h.054v.119h-.054v-.119H23.3s-.119.119-.179.119h-.184l.06.054c.054.124.054,0,.124.124l-.07.065-.114-.065V25.2h-.119v-.184l-.184.189-.054.054v.26c-.049,0-.114,0-.114.108H22.4c-.157.238-.1.5-.157.8Zm-2.137-2.743h0a.52.52,0,0,1,.3-.481l.054-.179s0,.179.06.179h.238v-.184h.162v-.06c0-.065.195.06.195,0v-.065h-.195l-.4-.179v-.06h.119l.714.06h.054c.06,0,.06,0,.06-.06h.124l-.119-.189h-.114v-.179h.054a2.517,2.517,0,0,0-.487-.844l-1.244-.379c.427-.108.779.135,1.152.135-.368-.617-.9-1.158-1.2-1.709v-.06a.7.7,0,0,0,.3.249,7.1,7.1,0,0,1,1,1.385c.195-.411,0-.839.254-1.082a2.594,2.594,0,0,0,.411,2.3h.427c0-.184,0,0-.195,0v-.114s0-.076.195-.076h.124l.1-.611v.557H22.6V22.1s-.049,0-.114.076l-.07-.076.536.368c0-.179,0-.179-.119-.179H22.65v-.114c0-.076.135-.076.184-.076l.119-.054c.06.054,0,.054,0,.13v.114h.114v-.243c-.054-.119-.054-.179-.114-.179v.06l-.119-.06v-.119h.119c0-.054,0-.054-.119-.054V21.61h.119l.06-.417a.966.966,0,0,0-.179-.546c-.352-.249-.66,0-1.012,0-.233-.249-.233-.844-.465-1.039l-.179-.065c-.254.065-.346.26-.655.189-.233-.189-.114-.806-.411-.855a1.233,1.233,0,0,0-.828.049,1.9,1.9,0,0,0-.184.806c.06.249.119.308.352.308a1.065,1.065,0,0,0,.227.362c0,.249,0,.427-.173.481h-.054l-.173.179c0,.552.947.682.7,1.223-.054.368-.352.427-.525.5,0,.108-.173.233-.173.233a2.053,2.053,0,0,0,.644.665Zm-1.731-2a1.769,1.769,0,0,1-.947-.492v-.314l.53-.238c0-.07.06-.07.06-.249a1.793,1.793,0,0,0-.179-.362,4.322,4.322,0,0,0-.779-.06.991.991,0,0,1-.649-.179v-.5c0-.108.168-.184.249-.184.216-.189.4-.189.465-.536-.065-.444-.465-.492-.714-.86a.755.755,0,0,1,.249-.66c.108-.179.4-.179.584-.179.357.179.417.6.709.839h.06a1,1,0,0,0,.59-.243l.124-.06a1.651,1.651,0,0,1,.709.3,1,1,0,0,0,.227.368v.492h-.233v.054s0-.054-.173-.054l-.124.238.06.06-.06-.06c-.06,0-.06,0-.06.06h-.233v.049l-.124.265v0s-.124,0-.124.108c.124.13.124.189.124.243.124,0,.124-.114.124-.054l-.124.054-.124-.114-.119-.611v-.909h-.119A7.489,7.489,0,0,0,18.3,19.1a14.175,14.175,0,0,1-1.434-1.823A7,7,0,0,0,18.3,19.283l-1.185-.108v.108a1.976,1.976,0,0,0,.887.243,1.407,1.407,0,0,1,.476,0l.243.189v.249s.124-.179.124,0l-.124.06h.124l-.124.184v.179h.124v.173h-.124v.07h.124c0,.179,0,.179.233.238-.233,0,0,.07-.233,0v.179A.936.936,0,0,0,19.134,21v.043h-.06l-.357.427.124.076c0,.049,0,.049-.124.124ZM16.25,16.925h.119c0-.043.054-.043,0-.043h-.081c-.173,0-.276-.319-.449-.433h.119c.06,0,.06.06.06.114H16.2v-.114h.227c-.054,0-.054.06-.054.06l-.119.173h.038l.135.124c.119-.124,0-.124,0-.249V16.5c.119-.06.119,0,.168,0,.081,0,.081-.06.081-.06v.06h.108l-.108-.06.108-.119h-.108v-.249c0-.06-.13,0-.249-.06,0-.07.119-.07.119-.184l.13.114v.13c.108,0,.108-.06.216-.06v.06c.184,0,.184,0,.184.059,0-.059-.184-.119-.184-.184a.259.259,0,0,0-.216.07v-.184l-.249-.373.249.13.216-.13h-.114c-.108,0-.108,0-.108-.06v-.119h.216a3.04,3.04,0,0,0-1.3-1.828h.06a1.691,1.691,0,0,1,.774.665,2.222,2.222,0,0,0-.406-.963c-.238-.481-.487-.8-.671-1.271h0a8.306,8.306,0,0,1,1.331,2.3v-.249c-.3-.725-.655-1.585-.963-2.478H15.6c-.249-.07-.249-.492-.59-.492h-.427a1.45,1.45,0,0,0,0,.849c0,.179.3.362.427.5.054.043.173.233,0,.536-.13.119-.427.119-.481.362,0,0,0,.238.054.238.362.487,1.077.736.952,1.412-.184.417-.525.6-.352.968.168.3.168.611.476.725h.189c.119,0,0,.124,0,.249h.179v.07Zm1.942.552v-.06h-.173v-.124c0-.054.173-.054.173-.054v-.119h.184s0-.06.119-.06l.119.06c0-.06-.119-.06-.119-.195v-.043c0-.07-.179-.07-.179-.2s0,0,.06,0c-.184-.357-.411-.73-.709-1.217-.06.13-.238.13-.238.3a.615.615,0,0,0,.3.611c.119.07.238.07.3.13,0,.373-.3.611,0,.914Z" transform="translate(-13.675 8.317)" fill="#009f46"/>
      <path id="path2593" d="M15.207,12.086h-.081v.049h.081Z" transform="translate(-10.976 13.221)" fill="#151610"/>
      <path id="path2595" d="M17.945,22.653c-.065,0-.065,0-.065-.168,0-.13-.184-.314-.352-.546H17.7a1.25,1.25,0,0,1,.671-.065l.06.065c-.06.238-.06.422-.124.481C18.188,22.48,18.128,22.653,17.945,22.653Zm.422.622c-.065,0-.065-.124-.124-.124l-.179-.249a3.969,3.969,0,0,1,1.493-1.039C19.135,22.356,18.788,22.832,18.367,23.275Zm7.13,2.851h0l.362-.179s-.119-.06-.119,0h-.184c-.06,0-.06,0-.184.179Zm-2.905,1.223h0a3.9,3.9,0,0,0,1.369-.308v-.07h-.308c0,.07-.238,0-.238,0h-.06Zm4.458-6.578h-.362v-.124a.569.569,0,0,1,.108-.541,2.086,2.086,0,0,1,.9-.07,4.261,4.261,0,0,0,.947,0h.308l-.119.07c-.233.065-.362.243-.487.3a2.082,2.082,0,0,1-1.3.362Zm-.844.86h.541a10.389,10.389,0,0,0,1.012-.606c-.476.054-1.071-.13-1.737-.13h-.162a.423.423,0,0,0-.119.433.115.115,0,0,0,.119.114C25.973,21.631,26.027,21.631,26.205,21.631Zm-1.233.849h-.189a.373.373,0,0,1-.411-.314c-.06-.06.054-.3.238-.362.763-.368,1.6.06,2.315.06A2.878,2.878,0,0,1,24.972,22.48Zm-1.488.849h0a10.467,10.467,0,0,0,1.3-.054,3.274,3.274,0,0,0,.9-.373,10.8,10.8,0,0,1-1.726-.487,1.089,1.089,0,0,0-.774.238c-.243,0-.3.249-.243.552.124,0,.124.07.124.07Zm-1.331.849a.291.291,0,0,1-.227-.06c-.173,0-.287-.119-.465-.233a.754.754,0,0,1,.179-.552c.763-.243,1.72.184,2.613.3.065.124.422.124.66.124a1.483,1.483,0,0,1-.66.124,6.708,6.708,0,0,1-2.1.292ZM20.8,25.1h0a10.2,10.2,0,0,0,2.559-.314,1.364,1.364,0,0,0,.833-.362c-1.25.362-2.434-.249-3.63-.308-.233,0-.422.06-.422.308,0,.362,0,.487.141.6A1.2,1.2,0,0,1,20.8,25.1Zm3.576,1.634a30.562,30.562,0,0,1-2.981-.8c-.53-.249-1.017-.373-1.423-.552l-.6-.108-.179-.081-.059.081H19l-.06.238h-.162c-.07.054,0,.124-.07.124v-.179l.779-.552.179.108.059.081h.114l.124.1v.081h.168V25.1c.141,0,.141.184.189.184H20.5a.239.239,0,0,1,.233.108c.054,0,.124,0,.124-.108l.3.179c0-.065.184,0,.238-.065,0,0,.07,0,.07-.108,0,0,0,.108.179.108.958.184,2.072.308,3.148.433l-.362.914h-.06Zm-.546-1.163h2.034a1.841,1.841,0,0,0,.53-.054l.476-.73c-.709,0-1.547.124-2.315.124-.124,0,0,.108-.124.108-.054.081-.054,0-.054,0h-.06c-.065,0,0,0,0,.081l-.065-.081h-.179v.184l-.114-.179h-.13c-.054,0-.054.081-.054.179l-.362.081h-.173l-.179.179Zm1.25-1.217h-.292c.292-.179.584-.06.9-.238L25.556,24a3.573,3.573,0,0,1-1.731.179,1.219,1.219,0,0,1,.422-.06c.828-.606,1.726,0,2.5-.119a6.5,6.5,0,0,1-1.672.357Zm.784-.79h0a5.767,5.767,0,0,0,2.608-.914h-.184a7.748,7.748,0,0,0-3.376.682c.065.184.3.184.411.184.6-.184.947-.238,1.428-.427h.119c0,.119-.119.119-.119.189a9.254,9.254,0,0,0-1.006.292Zm1.423-1.152h0a6.557,6.557,0,0,1,1-.243c.362-.3.844-.362,1.19-.73-.1,0-.173.189-.411,0-.287.189-.6,0-.941,0l-1.434.73c.06.184.179.243.233.184.362,0,.725-.314,1.012-.422l.049.108ZM28.6,21.258h0a3.584,3.584,0,0,0,1.071-.362,1.838,1.838,0,0,0,1.12-.855,3.153,3.153,0,0,1-1.482.314c-.357.362-.958.417-1.185.725,0,.124.1.124.222.124.124-.124.173-.308.249-.308h.179l-.3.308c.005.054.054-.005.13.054Zm.774-1.223h-.065a.868.868,0,0,1,.476-.3c.124-.189.357-.189.411-.368l-.887.427v-.06c.173-.189.655-.368.887-.606v-.184c.124-.065.179-.119.179-.254-.054-.054-.119-.054-.119-.114.119-.3.53-.5.59-.849h-.054l-.465.352v-.054c.465-.546,1.185-.368,1.834-.546.189,0,.189-.249.243-.249-.243.427-.422.747-.714.849a1.517,1.517,0,0,1-1.022.611l.6-.611-.774.552v.054c0,.065-.124.189-.173.254,0,0-.124,0,0,.184a11.556,11.556,0,0,0,1.185-.3,15.16,15.16,0,0,1-1.547,1.2ZM18.718,24.671h0a.924.924,0,0,0,.481-.552,8.064,8.064,0,0,1,1.542-2.31,4.437,4.437,0,0,0-2.494,2.2.345.345,0,0,0,.06.357.839.839,0,0,0,.411.308Zm1.379-.492c-.124-.06-.249-.06-.308-.179a.745.745,0,0,1-.054-.368,4.168,4.168,0,0,1,2.018-2.2,4.452,4.452,0,0,0-1.017,1.893c-.179.308-.233.79-.638.849Zm1.244-.849h0c.3,0,.411-.054.7-.357.357-.492.357-1.342.839-1.9a5.353,5.353,0,0,0-1.726,1.574.427.427,0,0,0,0,.622C21.153,23.33,21.282,23.33,21.342,23.33Zm1.6-.849c-.06,0-.108-.065-.173-.13a.955.955,0,0,1,.114-.914,6.652,6.652,0,0,1,1.369-1.028c-.292.427-.422,1.223-.763,1.7a.5.5,0,0,1-.546.373Zm1.309-.611h0c.065-.06.362-.06.422-.238.3-.606.3-1.461.7-1.828h0a4.259,4.259,0,0,0-1.412,1.639.559.559,0,0,1,.114.368Zm1.125-.849-.054-.13c-.114-.054-.114-.179-.114-.481.292-.373.709-.86,1-1.223a.948.948,0,0,1-.184.552,2.445,2.445,0,0,1-.162,1.093,1.1,1.1,0,0,1-.487.189Zm.952-.8h0l.422-.114c.179-.362.179-.968.411-1.52a1.958,1.958,0,0,0-.947,1.4c0,.06.06.124.06.238Zm1.141-.665c-.124,0-.179,0-.179-.179-.13-.184,0-.492.054-.676a3.557,3.557,0,0,1,.833-.963c-.292.352-.233,1.022-.292,1.455-.124.184-.238.362-.417.362Zm.709-.719c-.049,0-.049-.076-.049-.076v-.671a13.045,13.045,0,0,1,1.547-1.818l.525-.422c-.06-.135-.06-.135-.184-.135l-.233.319a1.034,1.034,0,0,1,.233-.622c.184-.3.308-.665.487-.779a6.394,6.394,0,0,0-.065,1.082,1.46,1.46,0,0,1-.649.86l-.114-.184A3.855,3.855,0,0,0,28.6,18.58c-.13.119-.254.3-.427.254Zm1.131-.747c-.07,0-.243,0-.243-.054-.054,0-.054-.049-.054-.238-.06-.13.054-.308.3-.552a4.075,4.075,0,0,0,1.834-1.628c-.476.66-.887,1.45-1.309,2.126a.56.56,0,0,1-.525.346ZM28.12,19.8h0a3.285,3.285,0,0,0,1.888-.665c-.341-.184-.774.054-1.179,0h.406c.6-.444.958-1.347,1.493-1.65l.227-.249c.184.249.422.249.839,0a3.117,3.117,0,0,0,1.017-1.526,3.389,3.389,0,0,1-1.547.736c-.124.195-.314.254-.314.611,0,.179-.525.5-.7.736-.476.552-1.423.292-1.785,1.044v.119l.3.184h-.179a1.116,1.116,0,0,0-.719.238l-.179.179c0,.189.06.189.06.249Zm3.8-3.771a.338.338,0,0,1-.308-.184.593.593,0,0,1,.07-.368c.287-.487,1.049-.3,1.471-.736a4.218,4.218,0,0,1-.7.968.741.741,0,0,1-.53.319Zm.53-1.163h0a1.6,1.6,0,0,0,.7-.79c.119-.368.249-.606.362-1.033-.362.433-.779.671-1.12,1.033a5.154,5.154,0,0,0-.243.552A.819.819,0,0,1,32.453,14.869ZM32.74,13.6h0a1.354,1.354,0,0,0,.541-1.044,4.939,4.939,0,0,0,0-1.39,11.835,11.835,0,0,0-.822,1.639.912.912,0,0,0,.114.671Zm-.817.611c-.13,0-.13-.07-.13-.179-.179-.552.184-1.163.362-1.65-.179.541.3,1.277-.179,1.758Zm-.9,1.277c.119,0,.119,0,.119-.07l.233-.3v.07c.238-.308.13-.546,0-.974a4.162,4.162,0,0,1,0-1.163,8.91,8.91,0,0,1-.709,1.59,1.645,1.645,0,0,0,.119.779c.06.07.238-.005.238.07Z" transform="translate(-0.384 9.151)" fill="#fee800"/>
      <path id="path2597" d="M15.258,12.64h.1l.027-.032s-.124,0-.157.032Z" transform="translate(-10.535 15.523)" fill="#151610"/>
      <path id="path2599" d="M15.258,12.624h.1c-.1-.038-.1-.038-.13-.038Z" transform="translate(-10.535 15.426)" fill="#151610"/>
      <path id="path2601" d="M15.74,12.786a1.375,1.375,0,0,1-.032-.179c0-.043.032-.043.032-.043,0-.087.081-.087,0-.13l-.157.13c0,.043.124.043.124.184l-.092.043h-.032c.032.07.124-.049.157-.005Z" transform="translate(-8.961 14.755)" fill="#fff"/>
      <path id="path2603" d="M15.628,12.593h.043v-.135l-.043.043Z" transform="translate(-8.762 14.861)" fill="#fff"/>
      <path id="path2605" d="M15.6,12.412c0-.032-.049-.032-.049-.032h0S15.547,12.412,15.6,12.412Z" transform="translate(-9.369 14.517)" fill="#fff"/>
      <path id="path2607" d="M42.393,15.453h0l.065-.119.3-.362-.433.481h.07Zm.655-.487h-.054l.465-.611s-.054.13,0,.189C43.4,14.663,43.28,14.917,43.048,14.966Zm.357.546h0l.947-1.206C44.119,14.663,43.518,15.036,43.4,15.513Zm-.839,1.715h0l.714-.373v-.238Zm-6.411,5.4H36.8c-.065-.189-.362-.189-.53-.065h-.3a.28.28,0,0,0,.184.065Zm1.358-.844h.362c-.119-.179-.471-.179-.536,0ZM20.332,16.351h0c-.065-.049-.065-.1-.114-.287l-.124-.054h-.06v.243c.06.1.184,0,.233,0v.1h.065Zm.719,4.03h.119C21.171,20.316,21.052,20.316,21.052,20.381Zm-2.088-.476h.124c0-.195-.07-.195-.124-.195H18.9Zm.054-.438h.07c0-.179-.07-.3-.124-.3H18.9v.119a.294.294,0,0,1,.06.179h.054Zm.249.243-.179-.184.179-.054c.054.054.173.054.173.13C19.321,19.71,19.321,19.71,19.266,19.71Zm.222-.243h0c0-.119,0-.119-.054-.179v.06C19.44,19.467,19.44,19.467,19.488,19.467Zm.249.243-.243-.114h.243Zm-.249.243h0v-.049s0-.195-.054-.195v.195C19.44,19.905,19.44,19.954,19.488,19.954Zm-.222.179h0l.054-.06s-.054,0-.054-.124c0,0-.179,0-.179.124ZM22,23.789h0v-.238H21.82c0,.184.124.184.184.3Zm-.427-.736h.065c.179,0,0,0,0-.108h-.065Zm-.3.124h0c.119,0,.119,0,.119-.124A.118.118,0,0,0,21.279,23.178Zm.119.373c0-.179-.119-.26,0-.26h.06c0,.081.119.195,0,.26Zm-.227,0h0a.057.057,0,0,0,.054-.065l-.054-.195v.26Zm7.076.844h0l.417-.238-.417-.308-.06.546Zm-.422-.427h0v-.054c.124,0,0,0,0-.065-.184,0-.184,0-.184.065C27.825,23.914,27.825,23.914,27.825,23.968Zm-.184-.233h.184v-.184s-.184,0-.184.114Zm2.975-2.748h0c.173,0,.173,0,.173-.07,0-.168,0-.168-.173,0Zm-.119-.546h.06a.232.232,0,0,0-.06-.124h-.054v.124Zm-.3.314h.065v-.135H30.1v.135Zm0,.352h0l.065-.114v-.07H30.1v.07Zm.3-.119h0v-.07c0-.168,0-.168-.054,0v.07Zm-.714.119h.179v-.114c-.179.114-.179,0-.233.114Zm-8.142,2.38h0l.179-.114c.124-.081,0-.081,0-.195h-.179C21.576,23.292,21.641,23.292,21.641,23.486Zm1.9-3.581h0s0-.195-.054-.195v.195Zm-6.665-7v-.5c-.173-.238-.406-.481-.173-.849l.173.368V12.3c0,.054,0,.179.07.179v.238Zm-.173.287h0l.173-.173v-.114H16.7v.114C16.7,13.138,16.583,13.138,16.7,13.192Zm-1.953-1.331H14.8v-.108C14.749,11.747,14.749,11.747,14.749,11.861Zm.346.3h0v-.195h-.119l.06.195Zm-.292,0h0v-.195h-.054Zm.054.314h0c.119,0,.119,0,.119-.07v-.06H14.8v.13h.054Zm-.168,0h.06l-.06-.13-.13-.054v.179h.13Z" transform="translate(-13.472 10.892)" fill="#fff"/>
      <path id="path2609" d="M30.266,8.517a14.512,14.512,0,1,0,14.509,14.5,14.534,14.534,0,0,0-14.509-14.5Zm-.016-1.109A15.618,15.618,0,1,1,14.626,23.031,15.658,15.658,0,0,1,30.249,7.408Z" transform="translate(-13.181 -7.408)" fill="#d8ac56"/>
      <path id="path2611" d="M27.913,7.942A12.726,12.726,0,1,1,15.162,20.66,12.748,12.748,0,0,1,27.913,7.942Z" transform="translate(-10.817 -5.053)" fill="#00468e"/>
      <path id="path2613" d="M29.779,7.519A15.009,15.009,0,1,1,14.74,22.531,15.023,15.023,0,0,1,29.779,7.519Z" transform="translate(-12.678 -6.919)" fill="#0091bf"/>
      <path id="path2615" d="M25.825,8.412A10.181,10.181,0,1,1,15.633,18.593,10.193,10.193,0,0,1,25.825,8.412Z" transform="translate(-8.74 -2.981)" fill="#e30016"/>
      <path id="path2617" d="M27.678,7.99A12.467,12.467,0,1,1,15.209,20.47,12.49,12.49,0,0,1,27.678,7.99Z" transform="translate(-10.61 -4.842)" fill="#da0018"/>
      <path id="path2619" d="M25.662,8.449A9.984,9.984,0,1,1,15.67,18.43,9.977,9.977,0,0,1,25.662,8.449Z" transform="translate(-8.577 -2.817)" fill="#009f46"/>
      <path id="path2621" d="M32.861,15.033l7.487-3.094-3.105,7.52,7.525,3.078-7.525,3.111,3.105,7.509-7.5-3.105-3.094,7.5-3.1-7.5-7.52,3.105,3.1-7.509-7.493-3.111,7.493-3.078-3.1-7.52,7.493,3.094,3.121-7.514Z" transform="translate(-12.687 -6.919)" fill="#d8ac56"/>
      <path id="path2623" d="M30.262,14.222l6.216-2.559L33.892,17.9l6.254,2.559L33.892,23.04l2.586,6.227-6.243-2.575-2.559,6.227L25.09,26.691l-6.227,2.575,2.575-6.227-6.227-2.586L21.439,17.9l-2.575-6.232,6.216,2.559,2.6-6.232Z" transform="translate(-10.597 -4.842)" fill="#fff"/>
      <path id="path2625" d="M29.752,14.06l5.967-2.445L33.236,17.6l6,2.456-6,2.472,2.483,5.983-5.978-2.467L27.28,32.015,24.8,26.042l-5.983,2.467L21.3,22.526l-6-2.472,6-2.456-2.488-5.983,5.967,2.445,2.5-5.978Z" transform="translate(-10.196 -4.436)" fill="#fff"/>
      <path id="path2627" d="M19.727,21.048c-.243-.07-.373-.124-.606-.184-1.044-.73-1.4-2.186-1.6-3.527h-.119a4.107,4.107,0,0,0,.243,1.883,5.883,5.883,0,0,1-.719-1.769,6.185,6.185,0,0,1,.9-3.765v.86c.179,1.574,0,3.587,1.217,4.744.07,0,.184,0,.184-.07,0-.719-.481-1.277-.611-2.061a12.464,12.464,0,0,1-.427-1.65,6.974,6.974,0,0,1,1.407-4.8v.352a5.158,5.158,0,0,0,.124,1.466,2.247,2.247,0,0,1,.114.8,19.445,19.445,0,0,0,.563,2.245,4.863,4.863,0,0,1,.179.92c.3,1.082-.427,2.369-.13,3.159a.527.527,0,0,0,.433.179v-.3c.914-3.4-2.2-6.995-.433-10.408-.049,2.2,1.347,3.727,1.834,5.729a7.328,7.328,0,0,1,.124,4.679,2.793,2.793,0,0,1-.855,1.4c-.314.054-.676.054-.741-.179-.411,0-.66.379-1.087.3Zm2.483-.671a5.733,5.733,0,0,0,1.839-3.04c.6-2.921-1.59-4.809-2.683-6.627.184,2.131,1.709,3.836,1.58,6.021a5.748,5.748,0,0,1-.665,3.4.564.564,0,0,0-.07.243Z" transform="translate(-3.135 0.115)" fill="#da0018"/>
      <path id="path2629" d="M19.586,13.123A.584.584,0,1,1,19,12.539.59.59,0,0,1,19.586,13.123Z" transform="translate(3.541 15.218)" fill="#d8ac56"/>
      <path id="path2631" d="M20.934,11.742a.587.587,0,1,1-1.174,0,.587.587,0,0,1,1.174,0Z" transform="translate(9.459 9.151)" fill="#d8ac56"/>
      <path id="path2633" d="M20.934,9.826a.587.587,0,0,1-1.174,0,.587.587,0,1,1,1.174,0Z" transform="translate(9.459 0.653)" fill="#d8ac56"/>
      <path id="path2635" d="M19.559,8.418a.587.587,0,1,1-.579-.584A.585.585,0,0,1,19.559,8.418Z" transform="translate(3.395 -5.529)" fill="#d8ac56"/>
      <path id="path2637" d="M17.572,8.418a.584.584,0,1,1-.584-.584A.583.583,0,0,1,17.572,8.418Z" transform="translate(-5.345 -5.529)" fill="#d8ac56"/>
      <path id="path2639" d="M16.223,9.826a.584.584,0,1,1-1.169,0,.584.584,0,0,1,.59-.59A.592.592,0,0,1,16.223,9.826Z" transform="translate(-11.294 0.653)" fill="#d8ac56"/>
      <path id="path2641" d="M16.223,11.742a.584.584,0,1,1-1.169,0,.579.579,0,0,1,.59-.579A.587.587,0,0,1,16.223,11.742Z" transform="translate(-11.294 9.151)" fill="#d8ac56"/>
      <path id="path2643" d="M17.572,13.123a.584.584,0,1,1-.584-.584A.586.586,0,0,1,17.572,13.123Z" transform="translate(-5.345 15.218)" fill="#d8ac56"/>
    </g>
    <path id="path2682" d="M16.527,4.768H18.3a3.536,3.536,0,0,1,.914.092,1.584,1.584,0,0,1,.719.444,2.142,2.142,0,0,1,.46.779,3.621,3.621,0,0,1,.157,1.136A3.19,3.19,0,0,1,20.4,8.241a2.1,2.1,0,0,1-.514.849,1.72,1.72,0,0,1-.682.384,2.808,2.808,0,0,1-.855.1H16.527Zm.974.811V8.76h.719a2.9,2.9,0,0,0,.584-.043.89.89,0,0,0,.39-.2,1.01,1.01,0,0,0,.254-.465,3.174,3.174,0,0,0,.1-.882,2.889,2.889,0,0,0-.1-.855,1.088,1.088,0,0,0-.276-.465.982.982,0,0,0-.449-.227,4.287,4.287,0,0,0-.8-.043Zm3.836,3.992v-4.8h.974v4.8Zm.043-5.237V3.464h.9v.871Zm1.856,5.237v-4.8h.941l1.975,3.219V4.768h.9v4.8h-.974L24.128,6.418V9.572Z" transform="translate(26.555 13.997)" fill="#d9251c"/>
  </g>
</svg>
