<svg xmlns="http://www.w3.org/2000/svg" width="172.269" height="126.004" viewBox="0 0 172.269 126.004">
  <g id="eko" transform="translate(-333.807 -6326.979)">
    <path id="Path_363" data-name="Path 363" d="M366.148,399.5a3.106,3.106,0,0,1-.631,2.011,2.28,2.28,0,0,1-.844.656,2.309,2.309,0,0,1-1.055.2,2.059,2.059,0,0,1-.856-.131,2.038,2.038,0,0,1-.723-.47,2.516,2.516,0,0,1-.61-1.831v-.493h3.789a2.04,2.04,0,0,0-.449-1.4,1.7,1.7,0,0,0-.619-.419,1.714,1.714,0,0,0-.743-.113,2.758,2.758,0,0,0-1.12.237,3.684,3.684,0,0,0-.71.414h-.05v-.986c.18-.078.46-.178.83-.305a4,4,0,0,1,1.04-.148,2.74,2.74,0,0,1,1.1.157,2.7,2.7,0,0,1,.946.583A2.8,2.8,0,0,1,366.148,399.5Zm-.93.631h-2.9a1.787,1.787,0,0,0,.31,1.075,1.267,1.267,0,0,0,.477.33,1.287,1.287,0,0,0,.576.085,1.474,1.474,0,0,0,.591-.1,1.452,1.452,0,0,0,.5-.327A1.688,1.688,0,0,0,365.218,400.133Z" transform="translate(15.858 6020.906)" fill="#2b2a29" fill-rule="evenodd"/>
    <path id="Path_364" data-name="Path 364" d="M384.052,398.223H384a.762.762,0,0,0-.21-.029,2.288,2.288,0,0,0-.28-.01,1.815,1.815,0,0,0-.739.157,2.533,2.533,0,0,0-.69.474v3.806h-.919v-5.372h.919v.8a4.132,4.132,0,0,1,.88-.621,1.649,1.649,0,0,1,.721-.178,1.121,1.121,0,0,1,.209.01.987.987,0,0,1,.16.02Z" transform="translate(1.786 6020.529)" fill="#2b2a29"/>
    <path id="Path_365" data-name="Path 365" d="M398.29,394.574a3.279,3.279,0,0,1-.651,2.119,1.987,1.987,0,0,1-.716.6,2.019,2.019,0,0,1-.914.211,2.422,2.422,0,0,1-.759-.108,2.806,2.806,0,0,1-.63-.3l-.062.257h-.86v-7.493h.921v2.681a3.268,3.268,0,0,1,.76-.512,2.1,2.1,0,0,1,.919-.2,1.746,1.746,0,0,1,.823.183,1.722,1.722,0,0,1,.636.546,3.366,3.366,0,0,1,.531,2.012Zm-.95.069a2.876,2.876,0,0,0-.3-1.459,1.036,1.036,0,0,0-.41-.379,1.055,1.055,0,0,0-.55-.114,1.824,1.824,0,0,0-.76.177,2.694,2.694,0,0,0-.7.434v3.075a3.841,3.841,0,0,0,.619.237,2.232,2.232,0,0,0,.59.069,1.375,1.375,0,0,0,.614-.118,1.36,1.36,0,0,0,.5-.376,2.4,2.4,0,0,0,.4-1.547Z" transform="translate(-7.15 6025.794)" fill="#2b2a29" fill-rule="evenodd"/>
    <path id="Path_366" data-name="Path 366" d="M414.893,401.829l-.132.1a1.9,1.9,0,0,1-.36.238,2.6,2.6,0,0,1-.47.187,2.146,2.146,0,0,1-.64.069,1.619,1.619,0,0,1-.64-.128,1.692,1.692,0,0,1-.53-.345,1.817,1.817,0,0,1-.35-.55,1.751,1.751,0,0,1-.13-.68,1.815,1.815,0,0,1,.24-.956,1.7,1.7,0,0,1,.75-.621,3.738,3.738,0,0,1,1.09-.286c.41-.049.86-.089,1.34-.118v-.178a1.065,1.065,0,0,0-.1-.513.62.62,0,0,0-.27-.305.96.96,0,0,0-.429-.148,3.06,3.06,0,0,0-.52-.039,3.272,3.272,0,0,0-.75.1,5.062,5.062,0,0,0-.86.275h-.05v-.916c.17-.049.41-.1.73-.157a5.169,5.169,0,0,1,.94-.089,4.392,4.392,0,0,1,.95.089,1.958,1.958,0,0,1,.689.305,1.278,1.278,0,0,1,.441.582,2.136,2.136,0,0,1,.149.854v3.678h-.919V401.7C415.017,401.733,414.961,401.776,414.893,401.829Zm.168-.886v-1.479l-.276.027c-.16.016-.341.034-.543.052a4.343,4.343,0,0,0-.81.138,1.583,1.583,0,0,0-.6.335.859.859,0,0,0-.188.3.845.845,0,0,0-.052.345.9.9,0,0,0,.26.69,1.121,1.121,0,0,0,.77.238,1.573,1.573,0,0,0,.78-.187,2.71,2.71,0,0,0,.659-.45Z" transform="translate(-19.941 6020.874)" fill="#2b2a29" fill-rule="evenodd"/>
    <path id="Path_367" data-name="Path 367" d="M324,398.16l2.45-7.168h1.2l2.45,7.168h-1.02l-.66-1.992H325.64l-.66,1.992Zm4.148-2.819-1.121-3.362-1.119,3.362Z" transform="translate(42.535 6024.99)" fill="#2b2a29" fill-rule="evenodd"/>
    <path id="Path_368" data-name="Path 368" d="M349.9,402.615h-4v-.672l2.848-3.953h-2.73v-.749h3.829v.651l-2.859,3.963h2.91Z" transform="translate(26.922 6020.537)" fill="#2b2a29"/>
    <path id="Path_369" data-name="Path 369" d="M430.806,404.6l2.929-7.355h-.961l-1.479,3.983-1.49-3.983h-.99l1.981,5.116-.98,2.238Z" transform="translate(-32.184 6020.535)" fill="#2b2a29"/>
    <path id="Path_370" data-name="Path 370" d="M449.312,402.42a3.094,3.094,0,0,1-1.03-.167,2.042,2.042,0,0,1-.81-.523,2.221,2.221,0,0,1-.52-.867,3.615,3.615,0,0,1-.19-1.242,3.7,3.7,0,0,1,.19-1.221,2.59,2.59,0,0,1,.52-.867,2.089,2.089,0,0,1,.8-.543,2.783,2.783,0,0,1,1.039-.187,2.854,2.854,0,0,1,.871.128,4.608,4.608,0,0,1,.74.286v1.016h-.05a2.232,2.232,0,0,0-.26-.187,3.618,3.618,0,0,0-.371-.217,3.391,3.391,0,0,0-.45-.168,1.823,1.823,0,0,0-.5-.068,1.427,1.427,0,0,0-.639.131,1.406,1.406,0,0,0-.511.4,2.822,2.822,0,0,0-.011,2.978,1.387,1.387,0,0,0,.514.405,1.412,1.412,0,0,0,.646.127,1.992,1.992,0,0,0,.86-.187,2.743,2.743,0,0,0,.72-.463h.05V402c-.09.04-.2.089-.34.148a3.136,3.136,0,0,1-.371.138l-.132.033c-.106.027-.2.051-.287.065A2.227,2.227,0,0,1,449.312,402.42Z" transform="translate(-44.978 6020.848)" fill="#2b2a29"/>
    <path id="Path_371" data-name="Path 371" d="M466.275,401.711c-.043.03-.1.072-.163.123l-.136.1a1.883,1.883,0,0,1-.361.237,2.574,2.574,0,0,1-.47.187,2.156,2.156,0,0,1-.64.069,1.606,1.606,0,0,1-.64-.128,1.684,1.684,0,0,1-.53-.346,1.81,1.81,0,0,1-.35-.549,1.752,1.752,0,0,1-.129-.681,1.811,1.811,0,0,1,.24-.956,1.684,1.684,0,0,1,.749-.621,3.736,3.736,0,0,1,1.09-.286c.41-.049.86-.088,1.34-.119v-.177a1.067,1.067,0,0,0-.1-.513.632.632,0,0,0-.27-.305.964.964,0,0,0-.43-.148,3.089,3.089,0,0,0-.52-.039,3.271,3.271,0,0,0-.75.1,5.036,5.036,0,0,0-.86.275h-.05v-.916c.17-.049.41-.1.73-.157a5.122,5.122,0,0,1,.939-.088,4.388,4.388,0,0,1,.95.088,1.972,1.972,0,0,1,.69.305,1.277,1.277,0,0,1,.44.582,2.127,2.127,0,0,1,.151.854v3.678h-.92Zm0-.759v-1.479L466,399.5l-.545.053a4.319,4.319,0,0,0-.81.138,1.591,1.591,0,0,0-.6.335.853.853,0,0,0-.188.3.841.841,0,0,0-.053.345.892.892,0,0,0,.261.69,1.12,1.12,0,0,0,.77.237,1.574,1.574,0,0,0,.78-.187A2.689,2.689,0,0,0,466.275,400.952Z" transform="translate(-56.452 6020.867)" fill="#2b2a29" fill-rule="evenodd"/>
    <path id="Path_372" data-name="Path 372" d="M486.757,402.25h-.919v-3.066a5.116,5.116,0,0,0-.04-.69,1.587,1.587,0,0,0-.131-.513.759.759,0,0,0-.32-.3,1.172,1.172,0,0,0-.54-.1,1.619,1.619,0,0,0-.71.177,3.446,3.446,0,0,0-.709.474v4.013h-.921v-5.371h.921v.6a3.352,3.352,0,0,1,.81-.562,1.945,1.945,0,0,1,.85-.187,1.624,1.624,0,0,1,.689.122,1.6,1.6,0,0,1,.57.4,2.236,2.236,0,0,1,.449,1.509Z" transform="translate(-70.433 6020.899)" fill="#2b2a29"/>
    <path id="Path_373" data-name="Path 373" d="M518.715,398.154h-1.25l-2.309-2.849h-1.1v2.849h-.971v-7.169h1.879a6.247,6.247,0,0,1,1.041.069,2.141,2.141,0,0,1,.81.305,1.966,1.966,0,0,1,.6.621,1.837,1.837,0,0,1,.22.945,2.1,2.1,0,0,1-.4,1.321,2.418,2.418,0,0,1-1.109.789Zm-2.09-5.146a1.358,1.358,0,0,0-.11-.549.9.9,0,0,0-.349-.395,1.166,1.166,0,0,0-.48-.187,3.129,3.129,0,0,0-.67-.061h-.96v2.692h.849a4.333,4.333,0,0,0,.75-.069,1.136,1.136,0,0,0,.557-.3,1.306,1.306,0,0,0,.31-.483A1.867,1.867,0,0,0,516.625,393.008Z" transform="translate(-92.259 6024.995)" fill="#2b2a29" fill-rule="evenodd"/>
    <path id="Path_374" data-name="Path 374" d="M534.072,402.209a2.787,2.787,0,0,0,1.089.156,2.84,2.84,0,0,0,.55-.039,3.738,3.738,0,0,0,.49-.108c.13-.04.27-.088.43-.148.078-.029.148-.058.212-.084s.131-.053.188-.074v-.986h-.05a3.03,3.03,0,0,1-.29.2,2.777,2.777,0,0,1-.42.207,2.078,2.078,0,0,1-.529.178,2.333,2.333,0,0,1-.59.069,1.787,1.787,0,0,1-.718-.109,1.764,1.764,0,0,1-.612-.384,1.983,1.983,0,0,1-.48-1.43h3.789v-.493a3.16,3.16,0,0,0-.16-1.085,2,2,0,0,0-.45-.759,1.729,1.729,0,0,0-.681-.444,2.519,2.519,0,0,0-.9-.148,2.357,2.357,0,0,0-1,.186,2.325,2.325,0,0,0-.826.593,2.969,2.969,0,0,0-.7,2.08,2.8,2.8,0,0,0,.721,2.061A2.757,2.757,0,0,0,534.072,402.209Zm2.078-3.876a2.671,2.671,0,0,1,.09.631h-2.9a2.121,2.121,0,0,1,.14-.6,1.418,1.418,0,0,1,.309-.463,1.453,1.453,0,0,1,.47-.315,1.671,1.671,0,0,1,.63-.108,1.458,1.458,0,0,1,.619.108,1.006,1.006,0,0,1,.42.305A1.31,1.31,0,0,1,536.15,398.333Z" transform="translate(-106.032 6020.905)" fill="#2b2a29" fill-rule="evenodd"/>
    <path id="Path_375" data-name="Path 375" d="M551.714,402.238a3.432,3.432,0,0,0,1.019.148,2.707,2.707,0,0,0,.92-.126,1.952,1.952,0,0,0,.66-.366,1.424,1.424,0,0,0,.41-.533,1.614,1.614,0,0,0,.141-.651,1.4,1.4,0,0,0-.3-.946,1.774,1.774,0,0,0-.91-.493c-.189-.049-.369-.089-.529-.119-.114-.02-.219-.044-.317-.067l-.143-.032a1.625,1.625,0,0,1-.59-.275.65.65,0,0,1-.145-.232.639.639,0,0,1-.035-.271.616.616,0,0,1,.074-.328.626.626,0,0,1,.236-.243,1.425,1.425,0,0,1,.76-.187,2.381,2.381,0,0,1,.866.157,2.761,2.761,0,0,1,.78.444h.05v-.966a3.139,3.139,0,0,0-.77-.287,4.175,4.175,0,0,0-.91-.108,2.245,2.245,0,0,0-1.48.454,1.481,1.481,0,0,0-.418.527,1.461,1.461,0,0,0-.139.655,1.5,1.5,0,0,0,.281.906,1.714,1.714,0,0,0,.909.553c.16.04.34.079.52.118l.047.009c.17.034.313.062.413.09a1.562,1.562,0,0,1,.63.277.669.669,0,0,1,.134.224.656.656,0,0,1,.036.259.8.8,0,0,1-.07.384.959.959,0,0,1-.248.236,1.3,1.3,0,0,1-.372.129,2.649,2.649,0,0,1-.459.049,2.2,2.2,0,0,1-.58-.079,3.551,3.551,0,0,1-.52-.2,3.831,3.831,0,0,1-.419-.227c-.067-.053-.129-.1-.186-.144l-.084-.064h-.05v1.016A4.887,4.887,0,0,0,551.714,402.238Z" transform="translate(-119.233 6020.882)" fill="#2b2a29"/>
    <path id="Path_376" data-name="Path 376" d="M571.547,401.56a3.3,3.3,0,0,0,.649-2.14,3.245,3.245,0,0,0-.529-1.961,1.7,1.7,0,0,0-.636-.549,1.723,1.723,0,0,0-.825-.18,2.063,2.063,0,0,0-.919.206,3.292,3.292,0,0,0-.76.5v-.562h-.919v7.356h.919v-2.247a3.326,3.326,0,0,0,.64.286,2.677,2.677,0,0,0,.72.089,2.073,2.073,0,0,0,.926-.2A2.041,2.041,0,0,0,571.547,401.56Zm-.6-3.471a2.853,2.853,0,0,1,.3,1.43,2.407,2.407,0,0,1-.4,1.509,1.294,1.294,0,0,1-.489.395,1.312,1.312,0,0,1-.62.119,2.659,2.659,0,0,1-.59-.061,4.829,4.829,0,0,1-.619-.236V398.2a3.732,3.732,0,0,1,.69-.443,1.885,1.885,0,0,1,.76-.168,1.049,1.049,0,0,1,.558.115A1.034,1.034,0,0,1,570.948,398.089Z" transform="translate(-131.129 6020.901)" fill="#2b2a29" fill-rule="evenodd"/>
    <path id="Path_377" data-name="Path 377" d="M590.128,402.615h.92l0-5.374h-.921v4.013a3.41,3.41,0,0,1-.7.463,1.562,1.562,0,0,1-.71.187,1.207,1.207,0,0,1-.557-.1.646.646,0,0,1-.3-.305,1.259,1.259,0,0,1-.15-.493,7.012,7.012,0,0,1-.03-.711v-3.056h-.919v3.49a2.748,2.748,0,0,0,.13.916,1.846,1.846,0,0,0,.359.631,1.447,1.447,0,0,0,.55.366,1.928,1.928,0,0,0,.681.118,1.817,1.817,0,0,0,.84-.187,3.79,3.79,0,0,0,.81-.562Z" transform="translate(-144.779 6020.537)" fill="#2b2a29"/>
    <path id="Path_378" data-name="Path 378" d="M610.242,396.694a3.277,3.277,0,0,0,.651-2.119h0a3.369,3.369,0,0,0-.531-2.012,1.717,1.717,0,0,0-.636-.546,1.745,1.745,0,0,0-.823-.183,2.1,2.1,0,0,0-.921.2,3.271,3.271,0,0,0-.759.512v-2.681H606.3v7.493h.86l.062-.257a2.8,2.8,0,0,0,.63.3,2.42,2.42,0,0,0,.76.108,2.019,2.019,0,0,0,.913-.211A1.987,1.987,0,0,0,610.242,396.694Zm-.6-3.51a2.875,2.875,0,0,1,.3,1.459,2.4,2.4,0,0,1-.4,1.547,1.36,1.36,0,0,1-.5.376,1.374,1.374,0,0,1-.614.118,2.245,2.245,0,0,1-.59-.069,3.829,3.829,0,0,1-.619-.237V393.3a2.7,2.7,0,0,1,.7-.434,1.823,1.823,0,0,1,.76-.177,1.056,1.056,0,0,1,.55.114A1.036,1.036,0,0,1,609.643,393.184Z" transform="translate(-158.713 6025.794)" fill="#2b2a29" fill-rule="evenodd"/>
    <path id="Path_379" data-name="Path 379" d="M625.676,397.355h.919v-7.493h-.919Z" transform="translate(-172.525 6025.794)" fill="#2b2a29"/>
    <path id="Path_380" data-name="Path 380" d="M633.434,391.761h1.052v-.936h-1.052Z" transform="translate(-178.053 6025.11)" fill="#2b2a29"/>
    <path id="Path_381" data-name="Path 381" d="M633.65,402.622h.921V397.25h-.921Z" transform="translate(-178.208 6020.53)" fill="#2b2a29"/>
    <path id="Path_382" data-name="Path 382" d="M644.842,397.355h1.2l-2.546-3.126,2.239-2.248h-1.14l-2.167,2.268v-4.387h-.921v7.492h.921v-2.248l.371-.344Z" transform="translate(-183.809 6025.794)" fill="#2b2a29"/>
    <path id="Path_383" data-name="Path 383" d="M660.807,401.829c.063-.049.115-.089.157-.118l0,.573h.921v-3.678a2.119,2.119,0,0,0-.151-.855,1.274,1.274,0,0,0-.439-.582,1.974,1.974,0,0,0-.69-.305,4.386,4.386,0,0,0-.95-.088,5.163,5.163,0,0,0-.94.088c-.319.059-.56.108-.729.158v.916h.05a5.065,5.065,0,0,1,.86-.275,3.284,3.284,0,0,1,.749-.1,3.09,3.09,0,0,1,.52.039.962.962,0,0,1,.433.148.63.63,0,0,1,.27.305,1.065,1.065,0,0,1,.1.513v.178c-.48.03-.93.069-1.34.118a3.732,3.732,0,0,0-1.09.286,1.691,1.691,0,0,0-.75.621,1.814,1.814,0,0,0-.24.956,1.751,1.751,0,0,0,.13.681,1.8,1.8,0,0,0,.35.549,1.689,1.689,0,0,0,.529.346,1.62,1.62,0,0,0,.64.128,2.157,2.157,0,0,0,.64-.069,2.636,2.636,0,0,0,.47-.187,1.859,1.859,0,0,0,.36-.237Zm.157-2.356v1.479h0a2.686,2.686,0,0,1-.659.453,1.575,1.575,0,0,1-.78.188,1.12,1.12,0,0,1-.769-.237.9.9,0,0,1-.205-.317.882.882,0,0,1-.055-.372.843.843,0,0,1,.052-.345.858.858,0,0,1,.188-.3,1.586,1.586,0,0,1,.6-.335,4.32,4.32,0,0,1,.81-.138c.205-.019.387-.037.548-.053Z" transform="translate(-195.242 6020.867)" fill="#2b2a29" fill-rule="evenodd"/>
    <path id="Path_384" data-name="Path 384" d="M676.8,402.236a3.431,3.431,0,0,0,1.019.148h0a2.712,2.712,0,0,0,.922-.127,1.953,1.953,0,0,0,.66-.366,1.427,1.427,0,0,0,.41-.533,1.618,1.618,0,0,0,.14-.651,1.4,1.4,0,0,0-.3-.945,1.776,1.776,0,0,0-.91-.493c-.189-.049-.369-.088-.529-.119-.114-.02-.218-.044-.317-.067l-.143-.032a1.623,1.623,0,0,1-.59-.275.643.643,0,0,1-.18-.5.619.619,0,0,1,.074-.328.631.631,0,0,1,.236-.243,1.427,1.427,0,0,1,.76-.187,2.377,2.377,0,0,1,.867.157,2.745,2.745,0,0,1,.78.444h.05v-.966a3.154,3.154,0,0,0-.77-.287,4.174,4.174,0,0,0-.91-.108,2.245,2.245,0,0,0-1.48.453,1.486,1.486,0,0,0-.418.528,1.46,1.46,0,0,0-.139.655,1.5,1.5,0,0,0,.28.906,1.717,1.717,0,0,0,.909.553c.16.04.34.079.52.118l.047.009c.169.034.313.062.413.09a1.561,1.561,0,0,1,.629.276.655.655,0,0,1,.17.483.8.8,0,0,1-.07.384.965.965,0,0,1-.248.236,1.3,1.3,0,0,1-.371.129,2.657,2.657,0,0,1-.459.049,2.2,2.2,0,0,1-.581-.079,3.566,3.566,0,0,1-.52-.2,3.889,3.889,0,0,1-.42-.227c-.075-.059-.145-.112-.208-.161l-.062-.047h-.05v1.016A4.872,4.872,0,0,0,676.8,402.236Z" transform="translate(-208.406 6020.884)" fill="#2b2a29"/>
    <path id="Path_385" data-name="Path 385" d="M692.8,402.62h.919v-5.372H692.8Z" transform="translate(-220.375 6020.529)" fill="#2b2a29"/>
    <path id="Path_386" data-name="Path 386" d="M458.184,494.354h-1.078l-3.207-6.181v6.181H453v-7.166h1.368l2.917,5.677v-5.677h.9Zm4.447-.571c-.07.049-.17.128-.3.227a1.883,1.883,0,0,1-.359.236,2.681,2.681,0,0,1-.47.187,2.178,2.178,0,0,1-.639.068,1.606,1.606,0,0,1-.639-.128,1.686,1.686,0,0,1-.53-.344,1.831,1.831,0,0,1-.349-.553,1.747,1.747,0,0,1-.13-.68,1.812,1.812,0,0,1,.239-.956,1.688,1.688,0,0,1,.749-.622,3.726,3.726,0,0,1,1.089-.286c.409-.049.859-.088,1.338-.118v-.178a1.063,1.063,0,0,0-.1-.513.622.622,0,0,0-.27-.305.954.954,0,0,0-.429-.148,2.931,2.931,0,0,0-.519-.04,3.256,3.256,0,0,0-.749.1,5.067,5.067,0,0,0-.859.276h-.05v-.915c.17-.05.409-.1.729-.158a5.083,5.083,0,0,1,.939-.088,4.33,4.33,0,0,1,.949.088,1.957,1.957,0,0,1,.689.305,1.281,1.281,0,0,1,.44.582,2.149,2.149,0,0,1,.15.858v3.676h-.918Zm0-.759v-1.479c-.219.02-.49.049-.819.079a4.406,4.406,0,0,0-.809.138,1.6,1.6,0,0,0-.6.335.851.851,0,0,0-.187.3.84.84,0,0,0-.052.345.9.9,0,0,0,.259.691,1.124,1.124,0,0,0,.769.236,1.567,1.567,0,0,0,.779-.187,2.708,2.708,0,0,0,.659-.453Zm5.784,1.331h-4v-.671l2.845-3.953h-2.727v-.749h3.826v.653l-2.857,3.963h2.907Zm1.879-6.28h-1.048v-.936h1.048Zm-.069,6.28h-.92v-5.371h.92Zm4.226-4.395h-.05a.794.794,0,0,0-.21-.03,2.266,2.266,0,0,0-.279-.01,1.818,1.818,0,0,0-.742.158,2.56,2.56,0,0,0-.689.473v3.806h-.92v-5.371h.92v.8a4.107,4.107,0,0,1,.879-.622,1.655,1.655,0,0,1,.719-.178,1.131,1.131,0,0,1,.21.011.969.969,0,0,1,.16.019Zm1.659,4.395h-.92v-7.492h.92Zm2.357-6.28h-1.048v-.936h1.048Zm-.07,6.28h-.918v-5.371h.918Zm5.625-5.371-2.927,7.354h-.99l.978-2.237-1.979-5.117h.99l1.488,3.983,1.479-3.983Zm1.71-.906H484.68v-.936h1.051Zm-.07,6.279h-.919v-5.371h.919Z" transform="translate(-49.424 5956.646)" fill="#2b2a29"/>
    <path id="Path_387" data-name="Path 387" d="M210,443.349v-9.075h6.118v1.739h-3.854V437.6h3.555v1.734h-3.555v2.284h3.854v1.735Zm14.36,0h-2.537l-1.84-2.971-.336.45v2.521h-2.126v-9.487h2.129v5.317l2.028-2.671h2.512l-2.388,2.946Zm7.209-3.42a3.729,3.729,0,0,1-.92,2.658,3.78,3.78,0,0,1-5.2,0,4.094,4.094,0,0,1,0-5.329,3.437,3.437,0,0,1,2.6-.962,3.418,3.418,0,0,1,2.6.974,3.73,3.73,0,0,1,.92,2.658Zm-2.176.012a4.581,4.581,0,0,0-.1-1.011,1.953,1.953,0,0,0-.273-.649,1.052,1.052,0,0,0-.434-.349,1.424,1.424,0,0,0-.535-.1,1.362,1.362,0,0,0-.522.086,1.1,1.1,0,0,0-.434.337,2.1,2.1,0,0,0-.285.649,4.037,4.037,0,0,0-.112,1.036,4.27,4.27,0,0,0,.1,1.011,1.856,1.856,0,0,0,.273.612,1.031,1.031,0,0,0,.423.349,1.428,1.428,0,0,0,.572.113,1.316,1.316,0,0,0,.521-.113.929.929,0,0,0,.423-.325,1.912,1.912,0,0,0,.285-.622,4.344,4.344,0,0,0,.1-1.025Zm5.419,3.408h-2.127v-9.487h2.127Zm8.18-3.42a3.731,3.731,0,0,1-.92,2.658,3.781,3.781,0,0,1-5.2,0,4.094,4.094,0,0,1,0-5.329,3.437,3.437,0,0,1,2.6-.962,3.419,3.419,0,0,1,2.6.974,3.733,3.733,0,0,1,.92,2.658Zm-2.176.012a4.6,4.6,0,0,0-.1-1.011,1.989,1.989,0,0,0-.273-.649,1.054,1.054,0,0,0-.434-.349,1.424,1.424,0,0,0-.535-.1,1.362,1.362,0,0,0-.521.086,1.1,1.1,0,0,0-.434.337,2.1,2.1,0,0,0-.285.649,4.033,4.033,0,0,0-.112,1.036,4.347,4.347,0,0,0,.1,1.011,1.882,1.882,0,0,0,.274.612,1.038,1.038,0,0,0,.422.349,1.435,1.435,0,0,0,.572.113,1.323,1.323,0,0,0,.523-.113.932.932,0,0,0,.423-.325,1.933,1.933,0,0,0,.285-.622,4.333,4.333,0,0,0,.1-1.025Zm9.5,2.621a4.146,4.146,0,0,1-.274,1.611,2.521,2.521,0,0,1-.744,1.036,3.06,3.06,0,0,1-1.144.55,5.956,5.956,0,0,1-1.468.162,8.4,8.4,0,0,1-1.293-.088c-.41-.062-.77-.125-1.069-.2V443.91h.248c.112.037.236.088.372.137s.3.088.434.137c.186.037.349.075.523.112a3.366,3.366,0,0,0,.51.037,3.147,3.147,0,0,0,.908-.112,1.223,1.223,0,0,0,.547-.311,1.413,1.413,0,0,0,.248-.513,2.945,2.945,0,0,0,.075-.723v-.125a2.946,2.946,0,0,1-.833.513,2.579,2.579,0,0,1-.969.187,2.54,2.54,0,0,1-2.052-.861,4.059,4.059,0,0,1-.721-2.634,4.4,4.4,0,0,1,.224-1.448,3.1,3.1,0,0,1,.62-1.086,2.415,2.415,0,0,1,.908-.661,2.68,2.68,0,0,1,1.117-.237,2.718,2.718,0,0,1,.93.137,2.79,2.79,0,0,1,.758.349l.075-.3h2.064Zm-2.127-1.373v-3.107a1.378,1.378,0,0,0-.385-.125,2.015,2.015,0,0,0-.473-.05,1.37,1.37,0,0,0-1.156.5,2.161,2.161,0,0,0-.385,1.386,4.178,4.178,0,0,0,.062.747,1.449,1.449,0,0,0,.212.55.906.906,0,0,0,.4.349,1.418,1.418,0,0,0,.635.124,1.79,1.79,0,0,0,.572-.1,2.345,2.345,0,0,0,.521-.271Zm5.929-5.654h-2.25v-1.66h2.25Zm-.062,7.814h-2.127V436.51h2.127Zm7.994-6.84-3.432,9.349h-2.287l1.033-2.671-2.5-6.678H257.1l1.431,4.3,1.33-4.3Zm4.548,6.116c-.149.125-.273.225-.385.325a2.652,2.652,0,0,1-.472.3,3.71,3.71,0,0,1-.548.212,2.979,2.979,0,0,1-.758.076,1.983,1.983,0,0,1-1.492-.613,2.119,2.119,0,0,1-.6-1.535,2.267,2.267,0,0,1,.3-1.235,2.236,2.236,0,0,1,.868-.747,4.261,4.261,0,0,1,1.381-.386c.534-.075,1.106-.137,1.716-.175v-.037a.824.824,0,0,0-.09-.454.815.815,0,0,0-.32-.332,2.905,2.905,0,0,0-1.244-.212,3.618,3.618,0,0,0-.882.138,6.736,6.736,0,0,0-.971.349h-.186v-1.66c.211-.062.546-.125,1.019-.212a7.838,7.838,0,0,1,1.419-.124,4.414,4.414,0,0,1,2.562.586,2.076,2.076,0,0,1,.807,1.8v4.669h-2.128Zm0-1.058v-1.436c-.36.038-.646.062-.869.1a3.052,3.052,0,0,0-.647.15.921.921,0,0,0-.434.3.851.851,0,0,0-.149.525.738.738,0,0,0,.261.661,1.244,1.244,0,0,0,.744.187,1.642,1.642,0,0,0,.572-.124,2.076,2.076,0,0,0,.52-.364Zm13.725-5.056-2.45,6.84H275.56l-2.437-6.84h2.238l1.393,4.531,1.392-4.531Zm7.071,3.358a3.643,3.643,0,0,1-.969,2.683,3.572,3.572,0,0,1-2.675.987c-2.1,0-3.158-1.1-3.158-3.283v-.761h4.676a1.621,1.621,0,0,0-.66-1.307,2.476,2.476,0,0,0-1.43-.349,3.357,3.357,0,0,0-1.393.3,4.3,4.3,0,0,0-.846.487h-.224v-1.76c.224-.088.584-.212,1.07-.374a6.9,6.9,0,0,1,1.613-.187,4.4,4.4,0,0,1,2.873.849,3.3,3.3,0,0,1,1.123,2.715Zm-2.126.912H282.68c.025.924.434,1.386,1.219,1.386.859,0,1.319-.464,1.37-1.387Zm8.749,2.571v-7.338h-2.673v-1.735h7.623v1.735h-2.673v7.339Zm12.01-3.483a3.638,3.638,0,0,1-.971,2.683,3.566,3.566,0,0,1-2.673.987c-2.1,0-3.158-1.1-3.158-3.283v-.761H303.9a1.614,1.614,0,0,0-.659-1.307,2.475,2.475,0,0,0-1.431-.349,3.365,3.365,0,0,0-1.393.3,4.326,4.326,0,0,0-.845.487h-.224v-1.76c.224-.088.584-.212,1.069-.374a6.905,6.905,0,0,1,1.617-.187,4.405,4.405,0,0,1,2.872.849,3.3,3.3,0,0,1,1.121,2.715Zm-2.127.912h-2.586c.025.924.434,1.386,1.219,1.386.858,0,1.319-.464,1.368-1.387Zm9.933-.934a4.047,4.047,0,0,1-.821,2.634,2.577,2.577,0,0,1-2.052,1.01,3.094,3.094,0,0,1-.883-.112,4.51,4.51,0,0,1-.806-.362l-.086.337h-2.04v-9.491h2.126v3.357a4.982,4.982,0,0,1,.958-.649,2.454,2.454,0,0,1,1.117-.249,2.107,2.107,0,0,1,1.84.934,4.4,4.4,0,0,1,.647,2.586Zm-2.177.037a2.54,2.54,0,0,0-.31-1.46,1.088,1.088,0,0,0-.957-.435,1.737,1.737,0,0,0-.559.088,2.321,2.321,0,0,0-.558.275v3.432a1.309,1.309,0,0,0,.434.112,2.35,2.35,0,0,0,.423.038,1.378,1.378,0,0,0,1.157-.513,2.587,2.587,0,0,0,.371-1.54Zm5.531-4.343h-2.252v-1.66h2.252Zm-.062,7.813H315V436.51h2.126Zm3.816-7.813h-2.25v-1.66h2.25Zm-.062,7.813h-2.127V436.51h2.127Zm8.192.162a7.324,7.324,0,0,1-1.827-.2,9.414,9.414,0,0,1-1.455-.5v-2.159H326a5.018,5.018,0,0,0,1.492.885,4.348,4.348,0,0,0,1.592.311,4.723,4.723,0,0,0,.509-.037,2.187,2.187,0,0,0,.509-.137,1.308,1.308,0,0,0,.4-.288.8.8,0,0,0,.1-.8.687.687,0,0,0-.2-.249,1.852,1.852,0,0,0-.647-.312c-.3-.074-.634-.149-.982-.223a6.951,6.951,0,0,1-.971-.275,2.963,2.963,0,0,1-1.5-1,2.54,2.54,0,0,1-.459-1.573,2.454,2.454,0,0,1,1.07-2.06,4.45,4.45,0,0,1,2.686-.786,7.781,7.781,0,0,1,1.6.162,7.129,7.129,0,0,1,1.43.449V436.8h-.2a4.516,4.516,0,0,0-1.231-.725,3.789,3.789,0,0,0-1.48-.3,3.517,3.517,0,0,0-.535.037,2.859,2.859,0,0,0-.5.163.994.994,0,0,0-.36.287.624.624,0,0,0-.161.424.7.7,0,0,0,.248.56,2.652,2.652,0,0,0,.945.363c.3.074.6.137.883.2a6.578,6.578,0,0,1,.9.275,2.983,2.983,0,0,1,1.392.911,2.337,2.337,0,0,1,.461,1.523,2.609,2.609,0,0,1-1.055,2.171,4.533,4.533,0,0,1-2.863.816Zm11.214-3.645a3.638,3.638,0,0,1-.97,2.683,3.569,3.569,0,0,1-2.674.987c-2.1,0-3.158-1.1-3.158-3.284V439.5h4.676a1.613,1.613,0,0,0-.659-1.307,2.472,2.472,0,0,0-1.431-.349,3.365,3.365,0,0,0-1.392.3,4.337,4.337,0,0,0-.846.487h-.224v-1.76c.224-.088.584-.212,1.07-.373a6.914,6.914,0,0,1,1.616-.187,4.408,4.408,0,0,1,2.873.849,3.3,3.3,0,0,1,1.12,2.713Zm-2.127.912h-2.586c.025.924.434,1.385,1.219,1.385.858,0,1.319-.466,1.368-1.39Zm7.832-2.246h-.174a1.666,1.666,0,0,0-.36-.062,3.281,3.281,0,0,0-.51-.025,2.743,2.743,0,0,0-.7.1,6.747,6.747,0,0,0-.721.225v4.58H341.4V436.51h2.127v.974c.1-.088.236-.2.41-.337a4.016,4.016,0,0,1,.472-.325,2.6,2.6,0,0,1,.535-.237,2.035,2.035,0,0,1,.584-.1h.224c.088.013.174.013.236.025Zm7.2-2.023-2.449,6.84h-2.313l-2.437-6.84h2.238l1.393,4.531,1.393-4.531Zm7.071,3.357a3.64,3.64,0,0,1-.971,2.683,3.569,3.569,0,0,1-2.673.987c-2.1,0-3.159-1.1-3.159-3.284V439.5h4.676a1.614,1.614,0,0,0-.659-1.307,2.473,2.473,0,0,0-1.43-.349,3.367,3.367,0,0,0-1.393.3,4.317,4.317,0,0,0-.846.487h-.224v-1.76c.224-.088.584-.212,1.069-.373a6.917,6.917,0,0,1,1.616-.187,4.408,4.408,0,0,1,2.873.849,3.307,3.307,0,0,1,1.126,2.713Zm-2.127.912h-2.587c.025.924.434,1.385,1.218,1.385.864,0,1.324-.466,1.373-1.39ZM364,443.49a2.743,2.743,0,0,1-1.891-.536,2.282,2.282,0,0,1-.6-1.761V438H360.7V436.51h.806v-1.96h2.127v1.96h2.051V438h-2.051v2.434c0,.237,0,.449.013.622a1.538,1.538,0,0,0,.086.487.731.731,0,0,0,.31.337,1.188,1.188,0,0,0,.62.124,2.444,2.444,0,0,0,.833-.211h.186v1.494a5.913,5.913,0,0,1-.733.15,7.065,7.065,0,0,1-.95.049Zm4.674-.137h-2.126v-9.491h2.126Zm7.894-3.483a3.637,3.637,0,0,1-.969,2.683,3.569,3.569,0,0,1-2.673.987c-2.1,0-3.158-1.1-3.158-3.284V439.5h4.676a1.611,1.611,0,0,0-.659-1.307,2.474,2.474,0,0,0-1.43-.349,3.367,3.367,0,0,0-1.393.3,4.307,4.307,0,0,0-.845.487h-.224v-1.76c.224-.088.584-.212,1.069-.373a6.918,6.918,0,0,1,1.616-.187,4.406,4.406,0,0,1,2.873.849,3.305,3.305,0,0,1,1.122,2.713Zm-2.126.912h-2.586c.025.924.434,1.385,1.218,1.385.863,0,1.323-.466,1.373-1.39Zm7.831-2.246H382.1a1.7,1.7,0,0,0-.36-.062,3.288,3.288,0,0,0-.51-.025,2.742,2.742,0,0,0-.7.1,6.772,6.772,0,0,0-.721.225v4.58h-2.126V436.51h2.126v.974q.149-.132.411-.337a3.916,3.916,0,0,1,.472-.325,2.611,2.611,0,0,1,.534-.237,2.04,2.04,0,0,1,.584-.1h.224c.087.013.174.013.236.025Z" transform="translate(123.807 5994.429)" fill="#2b2a29"/>
    <path id="Path_388" data-name="Path 388" d="M523.072,81H541.95a8.384,8.384,0,0,1,8.359,8.36v18.876a8.384,8.384,0,0,1-8.359,8.36H523.072a8.384,8.384,0,0,1-8.359-8.36V89.361A8.384,8.384,0,0,1,523.072,81" transform="translate(-93.422 6245.979)" fill="#81ae33"/>
    <path id="Path_389" data-name="Path 389" d="M519.94,113l6.471-6.471V81.01q.194-.01.388-.01h2.578v22.561l7.175-7.175V81h2.966V93.42l10.92-10.92a8.383,8.383,0,0,1,2.1,2.1L541.528,95.6h12.507v2.966H538.561l-7.089,7.089h22.563v2.575q0,.2-.01.391H528.506l-6.469,6.469a8.386,8.386,0,0,1-2.1-2.1Z" transform="translate(-97.147 6245.979)" fill="#fefefe"/>
    <path id="Path_390" data-name="Path 390" d="M406.869,116.6H387.992a8.385,8.385,0,0,1-8.359-8.36V89.361A8.385,8.385,0,0,1,387.992,81h18.877a8.383,8.383,0,0,1,8.359,8.36v18.876a8.383,8.383,0,0,1-8.359,8.36" transform="translate(2.878 6245.979)" fill="#ffed00" fill-rule="evenodd"/>
    <path id="Path_391" data-name="Path 391" d="M406.623,81h-3.071a19.444,19.444,0,0,1-23.919,24.114v3.066A22.414,22.414,0,0,0,406.623,81Z" transform="translate(2.878 6245.979)" fill="#fefefe"/>
    <path id="Path_392" data-name="Path 392" d="M379.633,98.864l.076.032A13.525,13.525,0,0,0,397.374,81.23c-.032-.077-.064-.153-.1-.229h-3.328a10.553,10.553,0,0,1-14.315,14.558Z" transform="translate(2.878 6245.979)" fill="#fefefe"/>
    <path id="Path_393" data-name="Path 393" d="M406.872,216.092H388a8.383,8.383,0,0,0-8.36,8.359v18.877a8.384,8.384,0,0,0,8.36,8.36h18.876a8.383,8.383,0,0,0,8.359-8.36V224.451a8.383,8.383,0,0,0-8.359-8.359" transform="translate(2.873 6149.674)" fill="#b18274" fill-rule="evenodd"/>
    <path id="Path_394" data-name="Path 394" d="M415.23,257.207l-17.8-12.986-17.8,12.986v3.656l17.8-12.987,17.8,12.987Z" transform="translate(2.873 6129.622)" fill="#fefefe"/>
    <path id="Path_395" data-name="Path 395" d="M416.082,290.285l-17.223-12.568-17.223,12.568a8.376,8.376,0,0,0,1.548,2.525l15.675-11.438,15.675,11.438A8.38,8.38,0,0,0,416.082,290.285Z" transform="translate(1.448 6105.743)" fill="#fefefe"/>
    <path id="Path_396" data-name="Path 396" d="M523.072,216.092H541.95a8.383,8.383,0,0,1,8.359,8.359v18.877a8.384,8.384,0,0,1-8.359,8.36H523.072a8.384,8.384,0,0,1-8.359-8.36V224.451a8.383,8.383,0,0,1,8.359-8.359" transform="translate(-93.422 6149.674)" fill="#31a3d8" fill-rule="evenodd"/>
    <path id="Path_397" data-name="Path 397" d="M550.308,237.38a4.285,4.285,0,0,1-1.876.825,6.247,6.247,0,0,1-2.531-1.252c-1.421-.938-2.842-1.876-4.576-1.876s-3.156.938-4.576,1.876l-.037.025a6.226,6.226,0,0,1-2.482,1.227,6.322,6.322,0,0,1-2.517-1.251h0c-1.42-.938-2.841-1.876-4.576-1.876s-3.155.938-4.576,1.876h0a3.184,3.184,0,0,1-5.062,0,13.619,13.619,0,0,0-2.785-1.546V224.45a8.383,8.383,0,0,1,8.359-8.359H541.95a8.383,8.383,0,0,1,8.359,8.359Z" transform="translate(-93.422 6149.673)" fill="#a4d7f1"/>
    <path id="Path_398" data-name="Path 398" d="M514.713,283.914v-3.379a15.671,15.671,0,0,1,2.306,1.346l.02.013a3.485,3.485,0,0,0,5.433,0l.017-.012a6.173,6.173,0,0,1,8.743,0l.02.013a3.461,3.461,0,0,0,5.412,0l.015-.01a6.173,6.173,0,0,1,8.743,0,6.332,6.332,0,0,0,2.735,1.315,4.717,4.717,0,0,0,2.151-.933v3.4a5.175,5.175,0,0,1-2.151.507,8.17,8.17,0,0,1-4.372-1.814,3.5,3.5,0,0,0-5.47,0h0a8.207,8.207,0,0,1-4.345,1.812h-.023a8.209,8.209,0,0,1-4.349-1.814,3.5,3.5,0,0,0-5.468,0l0,0a6.175,6.175,0,0,1-8.743,0C515.159,284.2,514.935,284.055,514.713,283.914Z" transform="translate(-93.422 6104.067)" fill="#fefefe"/>
    <path id="Path_399" data-name="Path 399" d="M515.332,311.321a8.38,8.38,0,0,1-.619-3.138v-.646a15.662,15.662,0,0,1,2.306,1.345l.005,0a3.5,3.5,0,0,0,5.463,0h0l0,0a6.172,6.172,0,0,1,8.737,0h0l0,0a6.456,6.456,0,0,0,2.707,1.311,6.344,6.344,0,0,0,2.735-1.315,6.173,6.173,0,0,1,8.74,0l0,0a6.322,6.322,0,0,0,2.735,1.315,4.522,4.522,0,0,0,2.071-.881,8.384,8.384,0,0,1-1.558,3.822,4.374,4.374,0,0,1-.512.03,8.17,8.17,0,0,1-4.372-1.814,3.5,3.5,0,0,0-5.467,0l0,0h0a8.211,8.211,0,0,1-4.345,1.813h0a8.166,8.166,0,0,1-4.372-1.814,3.495,3.495,0,0,0-5.457-.009l-.014.009a6.174,6.174,0,0,1-8.743,0Z" transform="translate(-93.422 6084.819)" fill="#fefefe"/>
  </g>
</svg>
