<svg xmlns="http://www.w3.org/2000/svg" xmlns:xlink="http://www.w3.org/1999/xlink" width="103.406" height="103.406" viewBox="0 0 103.406 103.406">
  <defs>
    <linearGradient id="linear-gradient" x1="-23.864" y1="24.44" x2="-23.864" y2="24.395" gradientUnits="objectBoundingBox">
      <stop offset="0" stop-color="#e97500"/>
      <stop offset="1" stop-color="#fff"/>
    </linearGradient>
    <linearGradient id="linear-gradient-2" x1="-186.542" y1="-189.923" x2="-186.542" y2="-190.096" xlink:href="#linear-gradient"/>
    <linearGradient id="linear-gradient-3" x1="-11.193" y1="2.448" x2="-11.193" y2="2.44" gradientUnits="objectBoundingBox">
      <stop offset="0" stop-color="#e97500"/>
      <stop offset="0.024" stop-color="#eb7f12"/>
      <stop offset="0.094" stop-color="#ef9a44"/>
      <stop offset="0.17" stop-color="#f3b270"/>
      <stop offset="0.25" stop-color="#f6c797"/>
      <stop offset="0.335" stop-color="#f9d8b7"/>
      <stop offset="0.426" stop-color="#fbe6d1"/>
      <stop offset="0.525" stop-color="#fdf1e6"/>
      <stop offset="0.637" stop-color="#fef9f4"/>
      <stop offset="0.774" stop-color="#fffefc"/>
      <stop offset="1" stop-color="#fff"/>
    </linearGradient>
    <linearGradient id="linear-gradient-4" x1="-8.466" y1="-15.549" x2="-8.466" y2="-15.594" xlink:href="#linear-gradient"/>
    <linearGradient id="linear-gradient-5" x1="-271.72" y1="20.163" x2="-271.72" y2="19.99" xlink:href="#linear-gradient"/>
    <linearGradient id="linear-gradient-6" x1="-6.868" y1="0.981" x2="-6.868" y2="0.973" gradientUnits="objectBoundingBox">
      <stop offset="0" stop-color="#e97500"/>
      <stop offset="0.047" stop-color="#ed8f30"/>
      <stop offset="0.098" stop-color="#f1a65b"/>
      <stop offset="0.154" stop-color="#f4bb82"/>
      <stop offset="0.215" stop-color="#f7cea4"/>
      <stop offset="0.281" stop-color="#faddc0"/>
      <stop offset="0.354" stop-color="#fcead8"/>
      <stop offset="0.439" stop-color="#fdf3e9"/>
      <stop offset="0.541" stop-color="#fefaf6"/>
      <stop offset="0.678" stop-color="#fffefd"/>
      <stop offset="1" stop-color="#fff"/>
    </linearGradient>
    <linearGradient id="linear-gradient-7" x1="-6.789" y1="36.95" x2="-6.773" y2="36.95" gradientUnits="objectBoundingBox">
      <stop offset="0" stop-color="#e97500"/>
      <stop offset="0.027" stop-color="#eb7f12"/>
      <stop offset="0.139" stop-color="#f1a559"/>
      <stop offset="0.245" stop-color="#f6c594"/>
      <stop offset="0.342" stop-color="#fadec2"/>
      <stop offset="0.427" stop-color="#fdf0e3"/>
      <stop offset="0.498" stop-color="#fefbf8"/>
      <stop offset="0.546" stop-color="#fff"/>
      <stop offset="1" stop-color="#e97500"/>
    </linearGradient>
    <linearGradient id="linear-gradient-8" x1="-7.247" y1="23.199" x2="-7.247" y2="23.161" xlink:href="#linear-gradient"/>
    <linearGradient id="linear-gradient-9" x1="-26.337" y1="87.787" x2="-26.337" y2="87.7" gradientUnits="objectBoundingBox">
      <stop offset="0" stop-color="#fdd5a5"/>
      <stop offset="1" stop-color="#fff"/>
    </linearGradient>
    <linearGradient id="linear-gradient-10" x1="23.517" y1="1.281" x2="23.517" y2="1.195" xlink:href="#linear-gradient-9"/>
    <linearGradient id="linear-gradient-11" x1="-35.72" y1="-10.483" x2="-35.72" y2="-10.53" gradientUnits="objectBoundingBox">
      <stop offset="0" stop-color="#00722c"/>
      <stop offset="1" stop-color="#a7d4ac"/>
    </linearGradient>
    <linearGradient id="linear-gradient-12" x1="-33.468" y1="-20.641" x2="-33.468" y2="-20.724" xlink:href="#linear-gradient-11"/>
    <linearGradient id="linear-gradient-13" x1="-17.886" y1="-9.261" x2="-17.886" y2="-9.309" xlink:href="#linear-gradient-11"/>
    <linearGradient id="linear-gradient-14" x1="-26.975" y1="-7.579" x2="-26.975" y2="-7.624" xlink:href="#linear-gradient-11"/>
    <linearGradient id="linear-gradient-15" x1="-30.764" y1="-18.389" x2="-30.764" y2="-18.469" xlink:href="#linear-gradient-11"/>
    <linearGradient id="linear-gradient-16" x1="-31.894" y1="-27.306" x2="-31.894" y2="-27.387" xlink:href="#linear-gradient-11"/>
    <linearGradient id="linear-gradient-17" x1="-24.433" y1="-9.284" x2="-24.433" y2="-9.334" xlink:href="#linear-gradient-11"/>
    <linearGradient id="linear-gradient-18" x1="-30.224" y1="-26.656" x2="-30.224" y2="-26.746" xlink:href="#linear-gradient-11"/>
    <linearGradient id="linear-gradient-19" x1="-49.801" y1="-17.341" x2="-49.801" y2="-17.392" xlink:href="#linear-gradient-11"/>
    <linearGradient id="linear-gradient-20" x1="-24.335" y1="37.439" x2="-24.335" y2="37.38" gradientUnits="objectBoundingBox">
      <stop offset="0" stop-color="#00944f"/>
      <stop offset="1" stop-color="#a7d4ac"/>
    </linearGradient>
    <linearGradient id="linear-gradient-21" x1="-7.654" y1="73.569" x2="-7.654" y2="73.492" xlink:href="#linear-gradient-20"/>
    <linearGradient id="linear-gradient-22" x1="-20.072" y1="48" x2="-20.072" y2="47.932" xlink:href="#linear-gradient-20"/>
    <linearGradient id="linear-gradient-23" x1="-21.86" y1="60.695" x2="-21.86" y2="60.618" xlink:href="#linear-gradient-20"/>
    <linearGradient id="linear-gradient-24" x1="-22.774" y1="60.556" x2="-22.774" y2="60.479" xlink:href="#linear-gradient-20"/>
    <linearGradient id="linear-gradient-25" x1="-24.547" y1="29.046" x2="-24.547" y2="28.998" xlink:href="#linear-gradient-20"/>
    <linearGradient id="linear-gradient-26" x1="-28.297" y1="29.018" x2="-28.297" y2="28.973" xlink:href="#linear-gradient-20"/>
    <linearGradient id="linear-gradient-27" x1="-42.869" y1="28.665" x2="-42.869" y2="28.622" xlink:href="#linear-gradient-20"/>
    <linearGradient id="linear-gradient-28" x1="-68.133" y1="36.97" x2="-68.133" y2="36.926" xlink:href="#linear-gradient-20"/>
    <linearGradient id="linear-gradient-29" x1="-74.677" y1="-5.821" x2="-74.677" y2="-5.869" xlink:href="#linear-gradient-11"/>
    <linearGradient id="linear-gradient-30" x1="-40.106" y1="10.086" x2="-40.106" y2="10.002" xlink:href="#linear-gradient-11"/>
    <linearGradient id="linear-gradient-31" x1="-20.224" y1="5.992" x2="-20.224" y2="5.944" xlink:href="#linear-gradient-11"/>
    <linearGradient id="linear-gradient-32" x1="-50.164" y1="-0.077" x2="-50.164" y2="-0.121" xlink:href="#linear-gradient-11"/>
    <linearGradient id="linear-gradient-33" x1="-35.108" y1="8.556" x2="-35.108" y2="8.475" xlink:href="#linear-gradient-11"/>
    <linearGradient id="linear-gradient-34" x1="-44.42" y1="20.437" x2="-44.42" y2="20.356" xlink:href="#linear-gradient-11"/>
    <linearGradient id="linear-gradient-35" x1="-40.2" y1="4.666" x2="-40.2" y2="4.616" xlink:href="#linear-gradient-11"/>
    <linearGradient id="linear-gradient-36" x1="-37.759" y1="21.487" x2="-37.759" y2="21.397" xlink:href="#linear-gradient-11"/>
    <linearGradient id="linear-gradient-37" x1="-126.688" y1="-18.217" x2="-126.688" y2="-18.268" xlink:href="#linear-gradient-11"/>
    <linearGradient id="linear-gradient-38" x1="-14.648" y1="-29.497" x2="-14.648" y2="-29.556" xlink:href="#linear-gradient-20"/>
    <linearGradient id="linear-gradient-39" x1="-1.55" y1="-46.634" x2="-1.55" y2="-46.712" xlink:href="#linear-gradient-20"/>
    <linearGradient id="linear-gradient-40" x1="-14.785" y1="-41.224" x2="-14.785" y2="-41.292" xlink:href="#linear-gradient-20"/>
    <linearGradient id="linear-gradient-41" x1="-15.65" y1="-55.095" x2="-15.65" y2="-55.171" xlink:href="#linear-gradient-20"/>
    <linearGradient id="linear-gradient-42" x1="-15.937" y1="-56.812" x2="-15.937" y2="-56.889" xlink:href="#linear-gradient-20"/>
    <linearGradient id="linear-gradient-43" x1="-6.104" y1="-15.97" x2="-6.104" y2="-16.018" xlink:href="#linear-gradient-20"/>
    <linearGradient id="linear-gradient-44" x1="9.738" y1="-4.67" x2="9.738" y2="-4.715" xlink:href="#linear-gradient-20"/>
    <linearGradient id="linear-gradient-45" x1="29.17" y1="1.412" x2="29.17" y2="1.37" xlink:href="#linear-gradient-20"/>
    <linearGradient id="linear-gradient-46" x1="89.131" y1="22.043" x2="89.131" y2="21.999" xlink:href="#linear-gradient-20"/>
    <linearGradient id="linear-gradient-47" y1="0.5" x2="1" y2="0.5" gradientUnits="objectBoundingBox">
      <stop offset="1" stop-color="#c5c7c8"/>
      <stop offset="1" stop-color="#fff"/>
    </linearGradient>
    <linearGradient id="linear-gradient-48" x1="-14.172" y1="2.551" x2="-14.172" y2="2.543" xlink:href="#linear-gradient-3"/>
    <linearGradient id="linear-gradient-49" x1="0.838" y1="13.447" x2="0.838" y2="13.408" xlink:href="#linear-gradient"/>
  </defs>
  <g id="gomruk" transform="translate(-7.947 -0.447)">
    <path id="path2_7_" d="M59.65.6,73.472,20.386,96.1,15.7l-4.22,23.766L111.2,52.15,91.414,65.972,96.1,88.6l-23.766-4.22L59.65,103.7,45.829,83.914,23.2,88.6l4.22-23.766L8.1,52.15,27.886,38.329,23.2,15.7l23.766,4.22Z" transform="translate(0 0)" fill="#fffa45" stroke="#007852" stroke-width="0.168"/>
    <path id="path12_7_" d="M20.39,16.04a45.371,45.371,0,0,1-4.408-3.561l-1.809,1.895a25.675,25.675,0,0,0,4.6,3.865l-.555-2.056Z" transform="translate(27.233 53.262)" stroke="#000" stroke-width="0.036" fill="url(#linear-gradient)"/>
    <path id="path22_3_" d="M14.167,13.411l.777-.716L16.4,14.171Z" transform="translate(27.207 54.228)" stroke="#000" stroke-width="0.036" fill="url(#linear-gradient-2)"/>
    <path id="path32_1_" d="M20.5,37.293l2.217-1.984c-7.549-8.247-7.432-17.972-2.684-25.792l-2.8-1.984c-5.914,7.819-5.6,21.512,3.268,29.76h0Z" transform="translate(23.071 31.094)" stroke="#000" stroke-width="0.036" fill="url(#linear-gradient-3)"/>
    <path id="path34_3_" d="M14.112,10.605l.319.006-.014.79-1.02-.018,0-.263.238-.036a1.326,1.326,0,0,1-.139-.14.621.621,0,0,1-.1-.182.745.745,0,0,1-.039-.273.882.882,0,0,1,.068-.329.8.8,0,0,1,.193-.276.879.879,0,0,1,.315-.186,1.227,1.227,0,0,1,.43-.061,1.211,1.211,0,0,1,.5.11.844.844,0,0,1,.361.317.911.911,0,0,1,.129.515,1.022,1.022,0,0,1-.066.363.756.756,0,0,1-.16.252.7.7,0,0,1-.209.148.622.622,0,0,1-.217.056L14.709,11a.247.247,0,0,0,.121-.048.447.447,0,0,0,.136-.142.413.413,0,0,0,.061-.219.528.528,0,0,0-.067-.273.5.5,0,0,0-.221-.2.876.876,0,0,0-.382-.081.826.826,0,0,0-.39.071.446.446,0,0,0-.208.2.636.636,0,0,0-.063.272.52.52,0,0,0,.026.158.439.439,0,0,0,.119.179.547.547,0,0,0,.263.129Zm.209,1.578a1.173,1.173,0,0,1,.52.044.785.785,0,0,1,.331.212.879.879,0,0,1,.17.277,1.141,1.141,0,0,1,.065.267,1.129,1.129,0,0,1-.008.274.885.885,0,0,1-.108.306.781.781,0,0,1-.279.277,1.389,1.389,0,0,1-1.021.107.773.773,0,0,1-.331-.213.887.887,0,0,1-.17-.278,1.018,1.018,0,0,1-.056-.535.885.885,0,0,1,.109-.309.778.778,0,0,1,.279-.277,1.173,1.173,0,0,1,.5-.151Zm.041.393a.931.931,0,0,0-.311.08.544.544,0,0,0-.191.145.453.453,0,0,0-.089.176.526.526,0,0,0-.013.179.538.538,0,0,0,.05.173.445.445,0,0,0,.123.153.547.547,0,0,0,.217.1,1.092,1.092,0,0,0,.633-.067.552.552,0,0,0,.192-.145.445.445,0,0,0,.088-.176.537.537,0,0,0,.012-.18.529.529,0,0,0-.05-.173.451.451,0,0,0-.123-.154.543.543,0,0,0-.217-.1.938.938,0,0,0-.322-.014Zm1.5.269-.3.032-.035-.33.3-.032Zm.054.512-.3.032-.035-.33.3-.032Zm-.027,3.063-1.857.361-.07-.362,1.553-.3v-.005l-1.62-.045-.074-.38,1.487-.641V15.04l-1.553.3-.07-.362,1.857-.361.11.566-1.4.62v.005l1.528.047ZM14.3,17.731l1.789-.616.311.9a.631.631,0,0,1,.031.372.48.48,0,0,1-.143.243.611.611,0,0,1-.2.122.515.515,0,0,1-.291.018.4.4,0,0,1-.23-.148.513.513,0,0,1-.033.157.28.28,0,0,1-.1.115.991.991,0,0,1-.239.11c-.1.035-.173.061-.213.078a.27.27,0,0,0-.088.052.1.1,0,0,0-.028.073l-.047.016-.142-.414a1.405,1.405,0,0,1,.348-.164.976.976,0,0,0,.2-.087.159.159,0,0,0,.074-.113.464.464,0,0,0-.035-.208l-.133-.387-.7.241Zm1.128.021.151.439a.364.364,0,0,0,.132.2.239.239,0,0,0,.211.006.237.237,0,0,0,.144-.343l-.16-.466ZM17.5,20.685l-1.124.5a.67.67,0,0,1-.573.033.854.854,0,0,1-.393-.454,1.072,1.072,0,0,1-.085-.316.62.62,0,0,1,.05-.327.706.706,0,0,1,.359-.321l1.145-.51.164.368-1.121.5a.388.388,0,0,0-.221.2.374.374,0,0,0,.5.462l1.138-.507Zm.128-.991-.277.123-.135-.3.277-.123Zm.209.469-.277.123-.135-.3.277-.123Zm-.672,2.4-.537.349-.215-.331L18,21.553l.215.331-.645.419,1.039.186.279.429-1.07-.226-.492,1.293-.277-.427.377-.943Z" transform="translate(23.605 40.523)" fill="#007852"/>
    <path id="path44_3_" d="M19.677,16.1a45.365,45.365,0,0,0,4.408-3.561l1.809,1.895A25.675,25.675,0,0,1,21.3,18.3l.555-2.056Z" transform="translate(51.911 53.538)" stroke="#000" stroke-width="0.036" fill="url(#linear-gradient-4)"/>
    <path id="path54_2_" d="M22.64,13.472l-.777-.716-1.453,1.477Z" transform="translate(55.198 54.504)" stroke="#000" stroke-width="0.036" fill="url(#linear-gradient-5)"/>
    <path id="path64_1_" d="M22.229,37.355l-2.217-1.984C27.56,27.124,27.443,17.4,22.7,9.579L25.5,7.6c5.914,7.819,5.6,21.512-3.268,29.76Z" transform="translate(53.408 31.37)" stroke="#000" stroke-width="0.036" fill="url(#linear-gradient-6)"/>
    <path id="path79" d="M32.175,7.519v2.592q-8.34-4.253-16.148,0V7.519Q23.835,3.266,32.175,7.519Z" transform="translate(35.546 21.497)" stroke="#000" stroke-width="0.036" fill="url(#linear-gradient-7)"/>
    <path id="path89" d="M16.306,7.534,18.99,9.518l-5.539,4.7C13.677,11.832,15.07,9.826,16.306,7.534Z" transform="translate(24.002 31.094)" stroke="#000" stroke-width="0.036" fill="url(#linear-gradient-8)"/>
    <path id="path99" d="M19.609,5.7l-3.5,2.97L16.023,6.8A31.221,31.221,0,0,1,19.609,5.7Z" transform="translate(35.531 22.878)" stroke="#000" stroke-width="0.036" fill="url(#linear-gradient-9)"/>
    <path id="path101" d="M33.456,8.031l-.312-2.848c-9.68,2.126-16.913,7.7-20.212,17.437l2.915,2.156C19.275,15.964,25.564,10.792,33.456,8.031Z" transform="translate(21.671 20.553)" fill="#fff" stroke="#000" stroke-width="0.036"/>
    <path id="path103" d="M14.254,21.944l.254.288-.195.336L13.1,21.143l.214-.368,1.845.344-.2.346-.373-.083Zm-.708-.781.493.544.225-.388-.716-.16Zm2.535-2.112.263.17-.754,1.154-.263-.17-.461-1.383-.485.743-.263-.17.737-1.13.244.158.474,1.405Zm.9-2.152-.566.775a.576.576,0,0,0,.437.132.5.5,0,0,0,.292-.2.492.492,0,0,0,.1-.337A.569.569,0,0,0,16.979,16.9Zm-.183-.126a.456.456,0,0,0-.677.111.683.683,0,0,0-.1.194.463.463,0,0,0-.028.176.314.314,0,0,0,.048.144l-.182.25a.493.493,0,0,1-.15-.226.586.586,0,0,1-.012-.322,1.016,1.016,0,0,1,.187-.39.923.923,0,0,1,.242-.235.727.727,0,0,1,.275-.114.774.774,0,0,1,.285,0,.958.958,0,0,1,.283.092,1.436,1.436,0,0,1,.178.111,1.11,1.11,0,0,1,.335.354.729.729,0,0,1,.1.354.77.77,0,0,1-.057.3,1.023,1.023,0,0,1-.12.223,1.04,1.04,0,0,1-.176.182.846.846,0,0,1-.268.146.72.72,0,0,1-.369.018,1.087,1.087,0,0,1-.441-.206.986.986,0,0,1-.117-.1Zm1.726-.534-1.316-1.179.6-.662a.591.591,0,0,1,.291-.194.453.453,0,0,1,.264.007.572.572,0,0,1,.191.108.481.481,0,0,1,.147.229.368.368,0,0,1-.017.254.488.488,0,0,1,.143-.044.265.265,0,0,1,.141.032.928.928,0,0,1,.2.145c.075.067.128.113.16.139a.252.252,0,0,0,.083.048.1.1,0,0,0,.072-.01l.035.031-.274.3a1.318,1.318,0,0,1-.292-.209.91.91,0,0,0-.162-.123.149.149,0,0,0-.126-.009.434.434,0,0,0-.154.122l-.256.283.515.461Zm-.495-.928.291-.321a.339.339,0,0,0,.1-.2.222.222,0,0,0-.091-.175.222.222,0,0,0-.346.037L17.677,15Zm2.19-.952-1.23-1.267.619-.595a.642.642,0,0,1,.282-.173.412.412,0,0,1,.244.006.476.476,0,0,1,.181.116.375.375,0,0,1,.122.216.476.476,0,0,1-.027.194.414.414,0,0,1,.5.119.505.505,0,0,1,.143.367.577.577,0,0,1-.023.146.534.534,0,0,1-.082.15,1.647,1.647,0,0,1-.187.206Zm-.286-.8.329.339.326-.314a.238.238,0,0,0,.024-.381.183.183,0,0,0-.167-.062.328.328,0,0,0-.173.093Zm-.476-.491.269.277.312-.3a.33.33,0,0,0,.1-.166.166.166,0,0,0-.051-.157.159.159,0,0,0-.151-.058.383.383,0,0,0-.176.109Zm2.668-1,.134.359-.3.244L21.332,10.9l.332-.267,1.6.979-.312.251-.318-.211Zm-.38-.981.264.683.35-.282-.611-.4Zm2.608-1.076.381.541-.3.211-.383-.545-1.134-.549.358-.249.743.417L23.859,9l.344-.24Zm2.406-2.118-.321.184a.533.533,0,0,0-.207-.13A.362.362,0,0,0,25.946,8a.408.408,0,0,0-.193.274.68.68,0,0,0,.123.478.945.945,0,0,0,.192.239.471.471,0,0,0,.234.116.376.376,0,0,0,.256-.053.426.426,0,0,0,.14-.124.336.336,0,0,0,.059-.165.458.458,0,0,0-.026-.193l.321-.184a.932.932,0,0,1,.054.363A.667.667,0,0,1,27,9.08a.9.9,0,0,1-.7.375.718.718,0,0,1-.406-.131,1.145,1.145,0,0,1-.342-.385,1.116,1.116,0,0,1-.163-.493.723.723,0,0,1,.094-.418.817.817,0,0,1,.307-.3.89.89,0,0,1,.317-.115.671.671,0,0,1,.5.118.647.647,0,0,1,.156.157Zm1.718.073.042.381-.353.164L27.99,6.644l.387-.18L29.69,7.8l-.364.169-.257-.281Zm-.13-1.044.09.727.409-.19-.494-.539Zm3.109-.355-.422-1.153.324-.117.606,1.655-.347.126-1.111-.934,0,0,.432,1.18-.324.117L30,5.783l.366-.132,1.083.913Z" transform="translate(22.406 21.045)" fill="#007852"/>
    <path id="path113" d="M18.336,5.7l3.5,2.97L21.922,6.8A31.221,31.221,0,0,0,18.336,5.7Z" transform="translate(45.897 22.878)" stroke="#000" stroke-width="0.036" fill="url(#linear-gradient-10)"/>
    <g id="Layer1002_2_" transform="translate(30.67 47.011)">
      <g id="Layer1003_2_">
        <g id="Layer1004_2_" transform="translate(0 0.798)">
          <path id="path137" d="M13.807,10.878c-.528-.4-.489-.759-1.571-.907.763.82.669,2.135,1.526,2.816,1.21,1.26,1.423.41,2.185,2.576A5.167,5.167,0,0,0,13.807,10.878Z" transform="translate(-12.119 -5.786)" stroke="#000" stroke-width="0.009" fill="url(#linear-gradient-11)"/>
          <path id="path147" d="M18.229,14.148c-1.472.534-2.912,1.958-4.413,1.9a6.734,6.734,0,0,0,3.8.891c1.086-.2,2.2-1.692,4.337.038-.087-.221.384-.152.3-.348C21.277,14.309,19.949,13.427,18.229,14.148Z" transform="translate(-5.034 11.834)" stroke="#000" stroke-width="0.009" fill="url(#linear-gradient-12)"/>
          <path id="path157" d="M20.139,15.242c-1.466.59-2.732,3.093-4.213,3.079.751.546,2.077,1.263,4.511.054.615-.347,2.182-1.427,3.451-.385l2.424,2.253,1.145-.878c-.025-.318-1.689-.128-2.873-2.12C23.374,15.251,21.8,14.481,20.139,15.242Z" transform="translate(4.428 16.546)" stroke="#000" stroke-width="0.009" fill="url(#linear-gradient-13)"/>
          <path id="path167_1_" d="M14.328,11.526c-.979-.221-1.435-.052-2.114-.777a6.253,6.253,0,0,0,1.372,2.577c1.024.861,2.222,1.118,3.283,2.365-.007-.171.5.94.483.778-.258-1.906-2.006-4.457-3.023-4.943h0Z" transform="translate(-12.214 -2.303)" stroke="#000" stroke-width="0.009" fill="url(#linear-gradient-14)"/>
          <path id="path177_1_" d="M18.875,14.746c-1.5.453-2.77,2.149-4.238,2.144a5.168,5.168,0,0,0,4.829.433c1.315-.274,2.185-1.836,4.352.091-.168-.372.373-.262.181-.559a4.707,4.707,0,0,0-5.124-2.109Z" transform="translate(-1.352 14.814)" stroke="#000" stroke-width="0.009" fill="url(#linear-gradient-15)"/>
          <path id="path187_1_" d="M15.845,12.571a5.438,5.438,0,0,1-3.3-.067c.588.512,1.135,2.187,3.6,2.007a3.915,3.915,0,0,1,3.191,1c-.077-.295.789.336.662.066-.686-1.457-2.99-3.382-4.157-3.007Z" transform="translate(-10.715 5.566)" stroke="#000" stroke-width="0.009" fill="url(#linear-gradient-16)"/>
          <path id="path197" d="M16.266,12.9c-1.188-.354-3.168-.713-3.967-1.347.562.617,1.058,2.7,3.642,3.077,1.628.24,1.32.534,2.354,1.563-.036-.187.568.579.535.412C18.506,14.98,17.581,13.289,16.266,12.9Z" transform="translate(-11.834 1.289)" stroke="#000" stroke-width="0.009" fill="url(#linear-gradient-17)"/>
          <path id="path207" d="M18.128,13.255c-2.371-.064-3.4,1.145-5.187.3.859,1.123,2.878,2.675,4.685,2.147,1.291-.377,3.039-.663,4.333.38-.092-.228.4-.017.262-.246C21.475,14.6,19.5,13.025,18.128,13.255Z" transform="translate(-8.957 8.83)" stroke="#000" stroke-width="0.009" fill="url(#linear-gradient-18)"/>
          <path id="path217" d="M13.6,10.629a2.923,2.923,0,0,1-1.076-1.421,3.439,3.439,0,0,0,.145,2.247c.668,1.169,1.175,1.3,1.818,2.707,1.011-1.068-.173-2.983-.887-3.533Z" transform="translate(-11.358 -9.208)" stroke="#000" stroke-width="0.009" fill="url(#linear-gradient-19)"/>
        </g>
        <g id="Layer1005_2_" transform="translate(1.109)">
          <g id="Layer1006_2_">
            <path id="path228" d="M15.98,13.106a4.567,4.567,0,0,1-3.323-.9c.511.571.448,2.892,3.217,2.912a4.211,4.211,0,0,1,3.473,1.428C19.243,14.6,17.424,12.95,15.98,13.106Z" transform="translate(-11.339 5.046)" stroke="#000" stroke-width="0.009" fill="url(#linear-gradient-20)"/>
            <path id="path238" d="M18.288,13.129c-2.332-.433-3.6.674-5.276-.026a4.65,4.65,0,0,0,4.4,2.167,5.812,5.812,0,0,1,4.221,1.051c-.355-1.535-1.7-3.206-3.346-3.191Z" transform="translate(-9.745 8.699)" stroke="#000" stroke-width="0.011" fill="url(#linear-gradient-21)"/>
            <path id="path248" d="M18.41,13.742c-1.554.186-3.281,1.245-4.728.844a6.733,6.733,0,0,0,3.5,1.732c1.1.048,3.927-1.02,5.61,1.149C22.354,14.459,20.406,13.4,18.41,13.742Z" transform="translate(-6.745 11.641)" stroke="#000" stroke-width="0.01" fill="url(#linear-gradient-22)"/>
            <path id="path258" d="M19.264,14.42c-1.554.186-3.2,1.843-4.643,1.441.477.907,1,2.007,3.629,1.476,1.05-.459,3.909-2.385,5.652.359-.715-2.815-2.642-3.614-4.638-3.276Z" transform="translate(-2.536 14.629)" stroke="#000" stroke-width="0.01" fill="url(#linear-gradient-23)"/>
            <path id="path268" d="M20.459,14.922c-1.554.285-3.295,2.485-4.743,2.176.477.876,1.7,1.386,4.325.687.775-.251,2.918-1.744,5.314.237A3.9,3.9,0,0,0,20.459,14.922Z" transform="translate(2.377 16.643)" stroke="#000" stroke-width="0.01" fill="url(#linear-gradient-24)"/>
            <path id="path278" d="M15.951,13.1c-1.112-.548-2.777-.914-3.458-1.673.45.7.364,2.514,2.848,3.323,1.565.51,1.65.822,2.5,2.009-.04-2.029-.528-2.99-1.886-3.66Z" transform="translate(-12.071 1.527)" stroke="#000" stroke-width="0.009" fill="url(#linear-gradient-25)"/>
            <path id="path288" d="M14.317,11.789c-.91-.425-1.391-.357-1.9-1.21a6.254,6.254,0,0,0,.79,2.81A10.165,10.165,0,0,1,16.244,16.3,4.787,4.787,0,0,0,14.317,11.789Z" transform="translate(-12.417 -2.266)" stroke="#000" stroke-width="0.01" fill="url(#linear-gradient-26)"/>
            <path id="path298" d="M14.1,10.926c-.677-.471-.649-.72-1.687-1.058.6.943.278,2.22,1,3.042.966,1.456,1.327.657,1.692,2.924.594-2.276-.133-4.3-1-4.909Z" transform="translate(-12.416 -5.449)" stroke="#000" stroke-width="0.008" fill="url(#linear-gradient-27)"/>
            <path id="path308" d="M13.821,10.75a2.512,2.512,0,0,1-.641-1.687,4.18,4.18,0,0,0-.567,2.372c.219,1.389.955,1.709,1.058,3.38C15.092,13.546,14.324,11.4,13.821,10.75Z" transform="translate(-11.65 -9.063)" stroke="#000" stroke-width="0.007" fill="url(#linear-gradient-28)"/>
          </g>
          <path id="path311" d="M30.515,42.757c2.962,1.118,4.224-1.006,5.814-1.178,1.433-.155,3.3.613,3.756,2.015M24.62,39.585c2.607,1.757,3.8-.462,5.317-.468,1.42-.006,3.3.613,3.756,2.015M19.388,35.217c2.417,1.326,4.224.221,5.743.435a4.814,4.814,0,0,1,3.33,2.426M15.695,30.837c1.731,2.107,4.011.765,5.53.979a5.292,5.292,0,0,1,3.046,2.166M13.744,26.266c1.5,2.274,2.5,1.671,3.992,2.041a4.772,4.772,0,0,1,2.708,2.268M12.845,22a5.1,5.1,0,0,0,3.329,2.6c1.447.513,1.569,1.737,2.022,2.676m-5.777-9.9c.339,1.723,1.862,1.884,2.533,2.873a6.1,6.1,0,0,1,1.255,2.714m-3.788-9.517c.7,1.482,1.562,1.733,2.071,2.812a7.788,7.788,0,0,1,.652,2.965M13.934,9.078a3.738,3.738,0,0,0,.41,3.053,2.5,2.5,0,0,1,.087,2.6" transform="translate(-12.407 -8.994)" fill="#6abc80" stroke="#007852" stroke-width="0.023"/>
        </g>
      </g>
      <g id="Layer1007" transform="translate(26.076)">
        <g id="Layer1008_1_" transform="translate(0 0.798)">
          <path id="path323" d="M24.24,10.878c.528-.4.489-.759,1.571-.907-.763.82-.669,2.135-1.526,2.816-1.21,1.26-1.423.41-2.185,2.576A5.167,5.167,0,0,1,24.24,10.878Z" transform="translate(5.958 -5.786)" stroke="#000" stroke-width="0.009" fill="url(#linear-gradient-29)"/>
          <path id="path333" d="M23.68,14.148c1.472.534,2.912,1.958,4.413,1.9a6.734,6.734,0,0,1-3.8.891c-1.086-.2-2.2-1.692-4.337.038.087-.221-.384-.152-.3-.348C20.632,14.309,21.959,13.427,23.68,14.148Z" transform="translate(-4.989 11.834)" stroke="#000" stroke-width="0.009" fill="url(#linear-gradient-30)"/>
          <path id="path343" d="M24.288,15.242c1.466.59,2.732,3.093,4.213,3.079-.751.546-2.077,1.263-4.511.054-.615-.347-2.182-1.427-3.451-.385l-2.424,2.253-1.145-.878c.025-.318,1.689-.128,2.873-2.12C21.054,15.251,22.629,14.481,24.288,15.242Z" transform="translate(-16.97 16.546)" stroke="#000" stroke-width="0.009" fill="url(#linear-gradient-31)"/>
          <path id="path353" d="M24.873,11.526c.979-.221,1.435-.052,2.114-.777a6.253,6.253,0,0,1-1.372,2.577c-1.024.861-2.222,1.118-3.283,2.365.007-.171-.5.94-.483.778C22.107,14.563,23.856,12.012,24.873,11.526Z" transform="translate(4.899 -2.303)" stroke="#000" stroke-width="0.009" fill="url(#linear-gradient-32)"/>
          <path id="path363" d="M23.813,14.746c1.5.453,2.77,2.149,4.238,2.144a5.168,5.168,0,0,1-4.829.433c-1.315-.274-2.185-1.836-4.352.091.168-.372-.373-.262-.181-.559a4.707,4.707,0,0,1,5.124-2.109Z" transform="translate(-9.451 14.814)" stroke="#000" stroke-width="0.009" fill="url(#linear-gradient-33)"/>
          <path id="path373" d="M25.259,12.571a5.438,5.438,0,0,0,3.3-.067c-.588.512-1.135,2.187-3.6,2.007a3.915,3.915,0,0,0-3.191,1c.077-.295-.789.336-.662.066.686-1.457,2.99-3.382,4.157-3.007Z" transform="translate(1.496 5.566)" stroke="#000" stroke-width="0.009" fill="url(#linear-gradient-34)"/>
          <path id="path383" d="M24.075,12.9c1.188-.354,3.168-.713,3.967-1.347-.562.617-1.058,2.7-3.642,3.077-1.628.24-1.32.534-2.354,1.563.036-.187-.568.579-.535.412.324-1.621,1.249-3.312,2.564-3.7Z" transform="translate(3.379 1.289)" stroke="#000" stroke-width="0.009" fill="url(#linear-gradient-35)"/>
          <path id="path393" d="M24.48,13.255c2.371-.064,3.4,1.145,5.187.3-.859,1.123-2.878,2.675-4.685,2.147-1.291-.377-3.039-.663-4.333.38.092-.228-.4-.017-.262-.246.747-1.236,2.72-2.808,4.093-2.579Z" transform="translate(-1.766 8.83)" stroke="#000" stroke-width="0.009" fill="url(#linear-gradient-36)"/>
          <path id="path403" d="M23.422,10.629A2.923,2.923,0,0,0,24.5,9.208a3.439,3.439,0,0,1-.145,2.247c-.668,1.169-1.175,1.3-1.818,2.707-1.011-1.068.173-2.983.887-3.533Z" transform="translate(6.22 -9.208)" stroke="#000" stroke-width="0.009" fill="url(#linear-gradient-37)"/>
        </g>
        <g id="Layer1009" transform="translate(3.044)">
          <g id="Layer1010">
            <path id="path414" d="M24.49,13.106a4.567,4.567,0,0,0,3.323-.9c-.511.571-.449,2.892-3.217,2.912a4.211,4.211,0,0,0-3.473,1.428c.1-1.947,1.923-3.6,3.367-3.444Z" transform="translate(-1.399 5.046)" stroke="#000" stroke-width="0.009" fill="url(#linear-gradient-38)"/>
            <path id="path424" d="M23.761,13.129c2.332-.433,3.6.674,5.276-.026a4.65,4.65,0,0,1-4.4,2.167,5.812,5.812,0,0,0-4.221,1.051c.355-1.535,1.7-3.206,3.346-3.191Z" transform="translate(-4.572 8.699)" stroke="#000" stroke-width="0.011" fill="url(#linear-gradient-39)"/>
            <path id="path434" d="M24.038,13.742c1.554.186,3.281,1.245,4.728.844a6.733,6.733,0,0,1-3.5,1.732c-1.1.048-3.927-1.02-5.61,1.149C20.094,14.459,22.043,13.4,24.038,13.742Z" transform="translate(-7.971 11.641)" stroke="#000" stroke-width="0.01" fill="url(#linear-gradient-40)"/>
            <path id="path444" d="M23.324,14.42c1.554.186,3.2,1.843,4.643,1.441-.477.907-1,2.007-3.628,1.476-1.05-.459-3.909-2.385-5.652.359.715-2.815,2.642-3.614,4.638-3.276h0Z" transform="translate(-12.32 14.629)" stroke="#000" stroke-width="0.01" fill="url(#linear-gradient-41)"/>
            <path id="path454" d="M22.422,14.922c1.554.285,3.295,2.485,4.743,2.176-.477.876-1.7,1.386-4.325.687-.775-.251-2.918-1.744-5.314.237A3.9,3.9,0,0,1,22.422,14.922Z" transform="translate(-17.525 16.643)" stroke="#000" stroke-width="0.01" fill="url(#linear-gradient-42)"/>
            <path id="path464" d="M23.418,13.1c1.112-.548,2.777-.914,3.458-1.673-.45.7-.364,2.514-2.848,3.323-1.565.51-1.65.822-2.5,2.009.039-2.029.528-2.99,1.886-3.66Z" transform="translate(0.434 1.527)" stroke="#000" stroke-width="0.009" fill="url(#linear-gradient-43)"/>
            <path id="path474" d="M23.865,11.789c.91-.425,1.391-.357,1.9-1.21a6.253,6.253,0,0,1-.79,2.81A10.165,10.165,0,0,0,21.938,16.3,4.787,4.787,0,0,1,23.865,11.789Z" transform="translate(1.967 -2.266)" stroke="#000" stroke-width="0.01" fill="url(#linear-gradient-44)"/>
            <path id="path484" d="M23.273,10.926c.677-.471.649-.72,1.687-1.058-.6.943-.278,2.22-1,3.042-.966,1.456-1.327.657-1.692,2.924-.593-2.276.133-4.3,1-4.909Z" transform="translate(2.771 -5.449)" stroke="#000" stroke-width="0.008" fill="url(#linear-gradient-45)"/>
            <path id="path494" d="M22.73,10.75a2.512,2.512,0,0,0,.641-1.687,4.18,4.18,0,0,1,.567,2.372c-.219,1.389-.955,1.709-1.058,3.38C21.459,13.546,22.228,11.4,22.73,10.75Z" transform="translate(2.831 -9.063)" stroke="#000" stroke-width="0.007" fill="url(#linear-gradient-46)"/>
          </g>
          <path id="path497" d="M27.106,42.757c-2.962,1.118-4.224-1.006-5.814-1.178-1.433-.155-3.3.613-3.756,2.015M33,39.585c-2.607,1.757-3.8-.462-5.317-.468-1.42-.006-3.3.613-3.756,2.015m14.306-5.915c-2.417,1.326-4.224.221-5.743.435a4.814,4.814,0,0,0-3.33,2.426m12.767-7.241c-1.731,2.107-4.011.765-5.53.979a5.292,5.292,0,0,0-3.046,2.166m10.526-7.716c-1.5,2.274-2.5,1.671-3.992,2.041a4.772,4.772,0,0,0-2.708,2.268M44.776,22a5.1,5.1,0,0,1-3.329,2.6c-1.447.513-1.569,1.737-2.022,2.676m5.777-9.9c-.339,1.723-1.862,1.884-2.533,2.873a6.1,6.1,0,0,0-1.255,2.714M45.2,13.458c-.7,1.482-1.562,1.733-2.071,2.812a7.788,7.788,0,0,0-.652,2.965M43.687,9.078a3.738,3.738,0,0,1-.41,3.053,2.5,2.5,0,0,0-.087,2.6" transform="translate(-17.482 -8.994)" fill="#6abc80" stroke="#007852" stroke-width="0.018"/>
        </g>
      </g>
    </g>
    <path id="Path_466" data-name="Path 466" d="M19.7,6.27v46.3a.524.524,0,0,1-.1.12,7.5,7.5,0,0,1-2.637-4.176V6.27Z" transform="translate(39.76 25.428)"/>
    <path id="Path_467" data-name="Path 467" d="M19.784,6.27V48.509a8.666,8.666,0,0,1-2.318,4.056V6.27Z" transform="translate(41.998 25.428)" fill="url(#linear-gradient-47)"/>
    <path id="path543" d="M17.651,3.749l2.523-.023a1.805,1.805,0,0,1,.614,1.023H17.105a2.327,2.327,0,0,1,.545-1Z" transform="translate(40.381 14.028)" fill="#c09d4a" stroke="#000" stroke-width="0.036"/>
    <path id="path633" d="M17.6,6.307h1.785a.357.357,0,0,0,.391-.3V5.6a.357.357,0,0,0-.391-.3H17.6a.357.357,0,0,0-.39.3V6A.357.357,0,0,0,17.6,6.307Z" transform="translate(40.837 21.045)" fill="#c09d4a" stroke="#000" stroke-width="0.036"/>
    <g id="Group_157" data-name="Group 157" transform="translate(57.068 17.081)">
      <path id="path528" d="M17.7,5.87l3.1-.028A2.215,2.215,0,0,1,21.547,7.1H17.029A2.859,2.859,0,0,1,17.7,5.87Z" transform="translate(-17.029 6.43)" fill="#c09d4a" stroke="#000" stroke-width="0.036"/>
      <path id="path558" d="M17.651,5.183l2.523.023a1.805,1.805,0,0,0,.614-1.023H17.105a2.327,2.327,0,0,0,.545,1Z" transform="translate(-16.687 -1.008)" fill="#c09d4a" stroke="#000" stroke-width="0.036"/>
      <path id="path573" d="M17.584,3.619,19.3,3.6a1.231,1.231,0,0,1,.418.7h-2.51a1.586,1.586,0,0,1,.372-.682Z" transform="translate(-16.208 -3.604)" fill="#c09d4a" stroke="#000" stroke-width="0.036"/>
      <path id="path588_1_" d="M17.049,3.914V5.392h4.323V3.914Z" transform="translate(-16.938 -2.213)" fill="#c09d4a" stroke="#000" stroke-width="0.036"/>
      <path id="path603" d="M17.6,6.677h1.785a.357.357,0,0,0,.391-.3V5.966a.357.357,0,0,0-.391-.3H17.6a.357.357,0,0,0-.39.3v.406A.357.357,0,0,0,17.6,6.677Z" transform="translate(-16.231 5.623)" fill="#c09d4a" stroke="#000" stroke-width="0.036"/>
      <path id="path618_1_" d="M17.6,5.477h1.785a.357.357,0,0,1,.391.3v.406a.357.357,0,0,1-.391.3H17.6a.357.357,0,0,1-.39-.3V5.781A.357.357,0,0,1,17.6,5.477Z" transform="translate(-16.231 4.794)" fill="#c09d4a" stroke="#000" stroke-width="0.036"/>
      <path id="path648" d="M17.6,5.107h1.785a.357.357,0,0,1,.391.3v.406a.357.357,0,0,1-.391.3H17.6a.357.357,0,0,1-.39-.3V5.411A.357.357,0,0,1,17.6,5.107Z" transform="translate(-16.231 3.135)" fill="#c09d4a" stroke="#000" stroke-width="0.036"/>
      <path id="path663" d="M17.6,5.937h1.785a.357.357,0,0,0,.391-.3V5.226a.357.357,0,0,0-.391-.3H17.6a.357.357,0,0,0-.39.3v.406A.357.357,0,0,0,17.6,5.937Z" transform="translate(-16.231 2.305)" fill="#c09d4a" stroke="#000" stroke-width="0.036"/>
      <path id="path678_1_" d="M17.6,4.737h1.785a.357.357,0,0,1,.391.3v.406a.357.357,0,0,1-.391.3H17.6a.357.357,0,0,1-.39-.3V5.041A.357.357,0,0,1,17.6,4.737Z" transform="translate(-16.231 1.476)" fill="#c09d4a" stroke="#000" stroke-width="0.036"/>
      <path id="path693" d="M17.6,5.566h1.785a.357.357,0,0,0,.391-.3V4.856a.357.357,0,0,0-.391-.3H17.6a.357.357,0,0,0-.39.3v.406A.357.357,0,0,0,17.6,5.566Z" transform="translate(-16.231 0.646)" fill="#c09d4a" stroke="#000" stroke-width="0.036"/>
    </g>
    <path id="path708" d="M17.6,4.367h1.785a.357.357,0,0,1,.391.3v.406a.357.357,0,0,1-.391.3H17.6a.357.357,0,0,1-.39-.3V4.671A.357.357,0,0,1,17.6,4.367Z" transform="translate(40.837 16.898)" fill="#c09d4a" stroke="#000" stroke-width="0.036"/>
    <path id="path710" d="M24,6.071h2.4l3.231,2.4c1.134.669,1.608-.372.669-.865.7-.26,1.413-.13,1.7.976-.085,1.776-1.62,1.547-2.817,1.144L26.729,8A2.2,2.2,0,0,0,24,8.414,2.2,2.2,0,0,0,21.263,8L18.808,9.725c-1.2.4-2.732.633-2.817-1.144.288-1.107,1-1.237,1.7-.976-.939.493-.465,1.534.669.865l3.231-2.4Z" transform="translate(35.387 24.537)" fill="#e3925d" stroke="#000" stroke-width="0.036"/>
    <path id="path712_1_" d="M31.51,6.851A17.172,17.172,0,1,1,14.338,24.023,17.206,17.206,0,0,1,31.51,6.851Zm0,4.863A12.309,12.309,0,1,1,19.2,24.023,12.333,12.333,0,0,1,31.51,11.714h0Z" transform="translate(27.976 28.034)" fill="#eceded" stroke="#d9dadb" stroke-width="0.01"/>
    <path id="path714_1_" d="M32.5,6.629A18.388,18.388,0,1,1,14.116,25.017,18.424,18.424,0,0,1,32.5,6.629Zm0,1.24A17.148,17.148,0,1,1,15.357,25.017,17.181,17.181,0,0,1,32.5,7.87Z" transform="translate(26.982 27.04)" fill="#098acd" stroke="#000" stroke-width="0.073"/>
    <path id="path32_2_" d="M22.229,37.355C31.1,29.107,31.411,15.414,25.5,7.6L22.7,9.579c4.747,7.819,4.864,17.544-2.684,25.792l2.217,1.984Z" transform="translate(53.408 31.37)" stroke="#000" stroke-width="0.036" fill="url(#linear-gradient-48)"/>
    <path id="path851" d="M15.751,15.878c0,.261.195.418.587.418h.826v.316h-.319v.594h.319v.205h-.319v.852h.583V17.9h.945v.366h.638v-.852h-.264v-.205h.264v-.594h-.264V16.3H29.3a.573.573,0,0,0,.456.263.44.44,0,0,0,.391-.263h.3v.263c.4,0,.594-.088.594-.263h.225a4.358,4.358,0,0,0-.275.4,1.315,1.315,0,0,0-.109.589,1.036,1.036,0,0,0,.525.857,2.1,2.1,0,0,0,1.217.361q2.195,0,2.195-1.483a1.319,1.319,0,0,0-.656-1.042,2.2,2.2,0,0,0,.413-.461,1,1,0,0,0,.221-.448q0-1.755-2.173-1.753a2.1,2.1,0,0,0-1.217.358,1.039,1.039,0,0,0-.525.859,1.533,1.533,0,0,0,.395.879h-.214a.209.209,0,0,0-.181-.233,1.524,1.524,0,0,0-.4-.023v.256h-.308a.425.425,0,0,0-.391-.256.637.637,0,0,0-.478.256H16.305a.577.577,0,0,0-.377.148.426.426,0,0,0-.177.323Zm15.923-1.415c0-.378.366-.566,1.094-.566.779,0,1.166.215,1.166.646,0,.323-.123.483-.369.483a.746.746,0,0,1-.456-.168c-.022.288-.033.448-.033.483a.622.622,0,0,0,.138.293,2.083,2.083,0,0,1,.181.288,1.888,1.888,0,0,1-.181.256.533.533,0,0,0-.138.286.9.9,0,0,0,.105.5.458.458,0,0,1,.384-.185q.456,0,.456.376c0,.509-.438.762-1.318.762-.677,0-1.018-.225-1.018-.681,0-.256.054-.381.159-.381.149,0,.232.06.254.183.022.145.134.22.34.22s.319-.11.319-.331c0-.308-.239-.476-.721-.5a.531.531,0,0,0,.275-.514.559.559,0,0,0-.275-.536c.482-.025.721-.19.721-.5,0-.22-.105-.331-.319-.331s-.319.073-.34.22c-.022.12-.105.183-.254.183-.112,0-.17-.165-.17-.491Z" transform="translate(34.31 56.992)" fill="#fff" stroke="#000" stroke-width="0.036"/>
    <path id="path123" d="M23.339,7.534,20.5,9.753l5.7,4.463C25.968,11.832,24.575,9.826,23.339,7.534Z" transform="translate(55.589 31.094)" stroke="#000" stroke-width="0.036" fill="url(#linear-gradient-49)"/>
    <path id="path125" d="M18.325,8.031l.312-2.848c9.68,2.126,16.913,7.7,20.212,17.437l-2.916,2.156C32.506,15.964,26.217,10.792,18.325,8.031Z" transform="translate(45.849 20.553)" fill="#fff" stroke="#000" stroke-width="0.036"/>
    <path id="path127" d="M18.551,7,19.1,5.342l.818.286a.571.571,0,0,1,.283.189.454.454,0,0,1,.094.243.584.584,0,0,1-.024.216.481.481,0,0,1-.148.224.354.354,0,0,1-.233.084.477.477,0,0,1,.094.113.267.267,0,0,1,.025.141.94.94,0,0,1-.054.238c-.031.094-.052.161-.063.2a.257.257,0,0,0-.012.094.1.1,0,0,0,.037.062l-.015.044-.374-.131A1.338,1.338,0,0,1,19.607,7a.923.923,0,0,0,.048-.2.15.15,0,0,0-.04-.118.417.417,0,0,0-.168-.093L19.1,6.47l-.216.651Zm.64-.816.4.139a.322.322,0,0,0,.215.016.221.221,0,0,0,.121-.151.253.253,0,0,0,0-.17.242.242,0,0,0-.163-.13l-.421-.148Zm3.3.434-.117.286-.836-.362-.139.34.768.332-.117.286-.768-.332-.172.419.874.378-.117.286-1.2-.517.663-1.619Zm.269,1.467.3.164a.3.3,0,0,0-.018.211.375.375,0,0,0,.209.213q.316.172.42-.03a.149.149,0,0,0,0-.155,1.015,1.015,0,0,0-.172-.186l-.142-.126a2.082,2.082,0,0,1-.217-.217.431.431,0,0,1-.092-.215.479.479,0,0,1,.064-.285.577.577,0,0,1,.159-.189.458.458,0,0,1,.273-.089.785.785,0,0,1,.4.115.845.845,0,0,1,.255.2.579.579,0,0,1,.119.224.56.56,0,0,1,.013.216.6.6,0,0,1-.055.182l-.3-.165a.416.416,0,0,0,.026-.119.245.245,0,0,0-.043-.138.444.444,0,0,0-.173-.145.414.414,0,0,0-.208-.055.165.165,0,0,0-.151.1.149.149,0,0,0-.013.137.4.4,0,0,0,.09.113l.321.292a.823.823,0,0,1,.221.3A.4.4,0,0,1,24,8.775a.524.524,0,0,1-.206.23.485.485,0,0,1-.246.065.766.766,0,0,1-.229-.036,1.092,1.092,0,0,1-.176-.074,1.054,1.054,0,0,1-.3-.226.584.584,0,0,1-.133-.238.528.528,0,0,1-.01-.219.657.657,0,0,1,.062-.187Zm2.489,1.222-.334.533-.3-.2.926-1.476.657.435a.584.584,0,0,1,.2.215.472.472,0,0,1,.051.267.658.658,0,0,1-.1.286.685.685,0,0,1-.163.172.491.491,0,0,1-.261.1.514.514,0,0,1-.33-.1Zm.16-.255.278.185c.1.064.172.081.228.052a.362.362,0,0,0,.141-.134.22.22,0,0,0,.035-.2.416.416,0,0,0-.172-.182l-.238-.158Zm2.895,1.353-.7.89a.6.6,0,0,1-.447.27.76.76,0,0,1-.5-.208.983.983,0,0,1-.2-.225.584.584,0,0,1-.095-.291.666.666,0,0,1,.156-.417l.71-.907.284.235-.7.888a.366.366,0,0,0-.094.26.306.306,0,0,0,.116.21.292.292,0,0,0,.474-.039l.706-.9Zm-.166,1.766L29.3,10.888l.609.58a.637.637,0,0,1,.183.27.417.417,0,0,1,.008.242.474.474,0,0,1-.1.186.364.364,0,0,1-.2.133.452.452,0,0,1-.189-.016.417.417,0,0,1-.088.5.487.487,0,0,1-.159.118.477.477,0,0,1-.188.044.55.55,0,0,1-.143-.014.512.512,0,0,1-.149-.072,1.607,1.607,0,0,1-.209-.174Zm.763-.327-.31.344.321.306a.228.228,0,0,0,.371,0,.184.184,0,0,0,.051-.169.325.325,0,0,0-.1-.167Zm.45-.5-.254.282.307.293a.318.318,0,0,0,.166.092.159.159,0,0,0,.149-.059.161.161,0,0,0,.048-.152.38.38,0,0,0-.115-.168Zm1.927,1.476-1.021.984.582.637-.226.218-.826-.9,1.246-1.2Zm1.327,1.527L31.321,15.51l-.235-.276,1.286-1.157ZM32.934,14l-.206.185-.2-.232.206-.185Zm-.356,2.138-.461.359-.216-.292,1.362-1.062.216.292-.554.432.948.1.279.378-.979-.136-.358,1.231-.278-.376.278-.9Zm.989,2.067-.358.1L33,17.992l1.756-.469.232.35-1.076,1.5-.218-.329.23-.3Zm.98-.294-.682.2.245.37.44-.57Zm.164,1.747.177.3a.3.3,0,0,0-.121.171.386.386,0,0,0,.072.294q.185.314.375.2a.146.146,0,0,0,.075-.135,1.05,1.05,0,0,0-.054-.251l-.059-.184a2.167,2.167,0,0,1-.077-.3.435.435,0,0,1,.029-.233.463.463,0,0,1,.2-.21.555.555,0,0,1,.231-.078.457.457,0,0,1,.278.069.815.815,0,0,1,.281.308.882.882,0,0,1,.119.306.59.59,0,0,1-.011.255.551.551,0,0,1-.1.192.573.573,0,0,1-.138.127l-.178-.3a.4.4,0,0,0,.082-.088.244.244,0,0,0,.033-.141.462.462,0,0,0-.076-.216.429.429,0,0,0-.15-.157.162.162,0,0,0-.179,0,.144.144,0,0,0-.08.11.413.413,0,0,0,.021.144l.129.42a.847.847,0,0,1,.041.37.388.388,0,0,1-.2.268.505.505,0,0,1-.292.088.487.487,0,0,1-.244-.075.792.792,0,0,1-.178-.152,1.124,1.124,0,0,1-.114-.156,1.1,1.1,0,0,1-.142-.352.6.6,0,0,1,.005-.274.518.518,0,0,1,.1-.193.631.631,0,0,1,.147-.127h0Zm2.327,1.665-1.492.857-.174-.32,1.492-.857Z" transform="translate(46.861 21.271)" fill="#007852"/>
    <path id="path66" d="M21.942,21.774l1.16.038-.27.4-.736-.064.322.678-.258.382L21.7,22.16l-1.089-.039.264-.391.695.062-.313-.628.254-.377Zm.088-1.922,1.655.917-.191.345L21.839,20.2Zm-.476-.212.265.147-.161.29-.265-.147Zm2.394.411-1.742-.739.326-.769a.775.775,0,0,1,.227-.317.636.636,0,0,1,.3-.133.908.908,0,0,1,.313,0,1.447,1.447,0,0,1,.3.089,1.557,1.557,0,0,1,.3.167,1.069,1.069,0,0,1,.243.241.692.692,0,0,1,.127.32.727.727,0,0,1-.063.382Zm-1.29-.968,1.14.484.15-.354a.351.351,0,0,0,.014-.263.5.5,0,0,0-.161-.22,1.091,1.091,0,0,0-.27-.161.888.888,0,0,0-.386-.09.344.344,0,0,0-.223.081.524.524,0,0,0-.116.173Zm1.031-3.59,1.8.585-.114.351-1.5-.489,0,.005,1.4.825-.12.368-1.611-.16,0,0,1.5.489-.114.35-1.8-.585.178-.549,1.524.135,0,0-1.314-.782Zm1.422-1.96-.179,1.013a.613.613,0,0,0,.482-.078.548.548,0,0,0,.123-.7A.613.613,0,0,0,25.111,13.534Zm-.235-.036a.485.485,0,0,0-.6.424.733.733,0,0,0-.007.235.5.5,0,0,0,.056.183.34.34,0,0,0,.114.116l-.058.327a.531.531,0,0,1-.25-.148.632.632,0,0,1-.163-.3,1.1,1.1,0,0,1,0-.464.989.989,0,0,1,.122-.34.774.774,0,0,1,.211-.238.821.821,0,0,1,.273-.136,1.015,1.015,0,0,1,.315-.044,1.559,1.559,0,0,1,.224.024,1.189,1.189,0,0,1,.488.185.784.784,0,0,1,.258.3.834.834,0,0,1,.086.315,1.1,1.1,0,0,1-.01.272,1.119,1.119,0,0,1-.083.258.9.9,0,0,1-.189.266.766.766,0,0,1-.347.19,1.159,1.159,0,0,1-.52.008,1.06,1.06,0,0,1-.161-.045Zm-.229-1.856,1.552.136-.034.393-1.552-.136-.05.57-.333-.029.134-1.533.333.029Zm-.279-1.721H26.26v.395H24.368Zm-.519.045h.3V10.3h-.3Z" transform="translate(56.096 41.794)" fill="#007852"/>
    <circle id="Ellipse_982" data-name="Ellipse 982" cx="14.86" cy="14.86" r="14.86" transform="translate(44.627 37.135)" fill="none" stroke="#b3b3b3" stroke-width="0.838"/>
    <path id="path837" d="M27.661,7.7A12.454,12.454,0,0,1,40.115,20.157h0A12.454,12.454,0,1,1,27.661,7.7Z" transform="translate(31.875 31.856)" fill="#098ed2" stroke="#000" stroke-width="0.036"/>
    <g id="Layer1012" transform="translate(47.083 39.56)">
      <path id="path839" d="M15.873,25.981,33.485,8.369" transform="translate(-12.225 -4.721)" fill="none" stroke="#000" stroke-width="0.036"/>
      <g id="Layer1013">
        <path id="path841" d="M17.479,7.7V32.611" transform="translate(-5.026 -7.704)" fill="none" stroke="#000" stroke-width="0.036"/>
        <path id="path843" d="M15.208,9.975H40.115" transform="translate(-15.208 2.479)" fill="none" stroke="#000" stroke-miterlimit="10" stroke-width="0.036"/>
        <path id="path845" d="M33.485,25.981,15.873,8.369" transform="translate(-12.225 -4.721)" fill="none" stroke="#000" stroke-width="0.036"/>
      </g>
    </g>
    <path id="path849" d="M20.227,9.362a3.36,3.36,0,0,1,3.36,3.36h0a3.36,3.36,0,1,1-3.36-3.36Z" transform="translate(39.309 39.291)" fill="#eceded" stroke="#000" stroke-width="0.036"/>
    <g id="Layer1011" transform="translate(43.895 36.412)">
      <path id="path729" d="M20.027,7.853a.807.807,0,1,1-.807.807.807.807,0,0,1,.807-.807Z" transform="translate(5.968 -3.889)" fill="#c09d4a" stroke="#000" stroke-width="0.036"/>
      <path id="path744" d="M16.282,7.853a.807.807,0,1,1-.807.807.807.807,0,0,1,.807-.807Z" transform="translate(-10.822 -3.889)" fill="#c09d4a" stroke="#000" stroke-width="0.036"/>
      <path id="path759" d="M15.433,9.731a.807.807,0,1,1-.807.807.807.807,0,0,1,.807-.807Z" transform="translate(-14.626 4.532)" fill="#c09d4a" stroke="#000" stroke-width="0.036"/>
      <path id="path774" d="M20.819,9.731a.807.807,0,1,1-.807.807.807.807,0,0,1,.807-.807Z" transform="translate(9.519 4.532)" fill="#c09d4a" stroke="#000" stroke-width="0.036"/>
      <path id="path789" d="M20.05,11.655a.807.807,0,1,1-.807.807.807.807,0,0,1,.807-.807Z" transform="translate(6.07 13.155)" fill="#c09d4a" stroke="#000" stroke-width="0.036"/>
      <path id="path804" d="M16.236,11.655a.807.807,0,1,1-.807.807.807.807,0,0,1,.807-.807Z" transform="translate(-11.025 13.155)" fill="#c09d4a" stroke="#000" stroke-width="0.036"/>
      <path id="path819" d="M18.126,12.447a.807.807,0,1,1-.807.807.807.807,0,0,1,.807-.807Z" transform="translate(-2.553 16.706)" fill="#c09d4a" stroke="#000" stroke-width="0.036"/>
      <path id="path834" d="M18.126,7.13a.807.807,0,1,1-.807.807.807.807,0,0,1,.807-.807Z" transform="translate(-2.553 -7.13)" fill="#c09d4a" stroke="#000" stroke-width="0.036"/>
    </g>
    <g id="Layer1014_1_" transform="translate(42.594 35.206)">
      <path id="path853" d="M15.8,7.344l2.512,3.942" transform="translate(-8.086 -4.964)" fill="none" stroke="#000" stroke-width="0.036"/>
      <path id="path855" d="M14.9,8.2l3.775,2.7" transform="translate(-12.101 -1.125)" fill="none" stroke="#000" stroke-width="0.036"/>
      <path id="path857" d="M24.344,9.342l-4.659.6" transform="translate(9.349 3.995)" fill="none" stroke="#000" stroke-width="0.036"/>
      <path id="path859" d="M14.407,9.329l4.63.609" transform="translate(-14.309 3.935)" fill="none" stroke="#000" stroke-width="0.036"/>
      <path id="path861" d="M24.281,11.3l-4.561-.956" transform="translate(9.51 8.49)" fill="none" stroke="#000" stroke-width="0.036"/>
      <path id="path863" d="M14.389,11.324l4.75-1" transform="translate(-14.389 8.416)" fill="none" stroke="#000" stroke-width="0.036"/>
      <path id="path865" d="M23.273,13.914l-3.9-2.705" transform="translate(7.947 12.362)" fill="none" stroke="#000" stroke-width="0.036"/>
      <path id="path867" d="M14.856,13.956l3.977-2.766" transform="translate(-12.295 12.281)" fill="none" stroke="#000" stroke-width="0.036"/>
      <path id="path869" d="M21.327,15.777l-2.554-3.939" transform="translate(5.261 15.18)" fill="none" stroke="#000" stroke-width="0.036"/>
      <path id="path871" d="M15.7,15.87l2.633-4.054" transform="translate(-8.509 15.083)" fill="none" stroke="#000" stroke-width="0.036"/>
      <path id="path873" d="M18.7,16.963l-.778-4.779" transform="translate(1.427 16.731)" fill="none" stroke="#000" stroke-width="0.036"/>
      <path id="path875" d="M16.787,16.877l1.183-4.7" transform="translate(-3.641 16.712)" fill="none" stroke="#000" stroke-width="0.036"/>
      <path id="path877" d="M21.179,7.351l-2.476,3.9" transform="translate(4.949 -4.932)" fill="none" stroke="#000" stroke-width="0.036"/>
      <path id="path879" d="M23.162,8.211l-3.808,2.719" transform="translate(7.866 -1.074)" fill="none" stroke="#000" stroke-width="0.036"/>
      <path id="path881" d="M18.7,6.91l-.778,4.614" transform="translate(1.427 -6.91)" fill="none" stroke="#000" stroke-width="0.036"/>
      <path id="path883" d="M16.8,6.929l1.136,4.533" transform="translate(-3.603 -6.824)" fill="none" stroke="#000" stroke-width="0.036"/>
    </g>
  </g>
</svg>
