<svg id="kapital" xmlns="http://www.w3.org/2000/svg" xmlns:xlink="http://www.w3.org/1999/xlink" width="195.976" height="39.535" viewBox="0 0 195.976 39.535">
  <defs>
    <linearGradient id="linear-gradient" x1="-0.001" y1="0.499" x2="1.001" y2="0.499" gradientUnits="objectBoundingBox">
      <stop offset="0" stop-color="#790e2e"/>
      <stop offset="0.076" stop-color="#8a132f"/>
      <stop offset="0.258" stop-color="#ae1d31"/>
      <stop offset="0.442" stop-color="#c92633"/>
      <stop offset="0.627" stop-color="#dd2b34"/>
      <stop offset="0.812" stop-color="#e92f35"/>
      <stop offset="1" stop-color="#ed3035"/>
    </linearGradient>
  </defs>
  <path id="Path_62181" data-name="Path 62181" d="M.2,0,17.408,17.208,34.517,0Z" transform="translate(-0.003)" fill-rule="evenodd" fill="url(#linear-gradient)"/>
  <path id="Path_62182" data-name="Path 62182" d="M0,34.51v.2H34.416v-.2L17.208,17.4Z" transform="translate(0 -0.29)" fill="#790e2e" fill-rule="evenodd"/>
  <path id="Path_62183" data-name="Path 62183" d="M.2,0H0V34.219L17.306,17.11Z" fill="#b01d2d" fill-rule="evenodd"/>
  <path id="Path_62184" data-name="Path 62184" d="M45.833,15.855,53.306,7.3h5.015l-8.555,9.341,8.948,11.013H53.5L46.325,18.51,45.833,19v8.651H41.9V7.3h3.933Z" transform="translate(-0.699 -0.122)" fill="#9c0631"/>
  <path id="Path_62185" data-name="Path 62185" d="M69.816,14.491h3.738V27.766H69.816V26.094a4.728,4.728,0,0,1-4.032,2.163A6.747,6.747,0,0,1,59,21.178c0-3.933,2.655-6.982,6.588-6.982a4.819,4.819,0,0,1,4.228,2.163ZM62.835,21.08a3.64,3.64,0,1,0,7.276,0,3.64,3.64,0,1,0-7.276,0Z" transform="translate(-0.985 -0.233)" fill="#9c0631"/>
  <path id="Path_62186" data-name="Path 62186" d="M79.538,34.744H75.8V14.488h3.738V16.16A5.013,5.013,0,0,1,83.863,14c3.933,0,6.49,3.048,6.49,6.982,0,4.032-2.655,7.08-6.588,7.08a5.126,5.126,0,0,1-4.227-2.163Zm-.394-13.671a3.64,3.64,0,1,0,7.276,0,3.64,3.64,0,1,0-7.276,0Z" transform="translate(-1.265 -0.23)" fill="#9c0631"/>
  <path id="Path_62187" data-name="Path 62187" d="M93.962,6.6a2.287,2.287,0,0,1,2.262,2.262,2.262,2.262,0,1,1-4.523,0A2.287,2.287,0,0,1,93.962,6.6Zm1.869,7.768V27.643H92.092V14.368Z" transform="translate(-1.531 -0.11)" fill="#9c0631"/>
  <path id="Path_62188" data-name="Path 62188" d="M103.711,17.668V27.7H99.973V17.668H98.5V14.522h1.475V9.9h3.738v4.523h2.557v3.146h-2.557Z" transform="translate(-1.644 -0.165)" fill="#9c0631"/>
  <path id="Path_62189" data-name="Path 62189" d="M117.816,14.491h3.738V27.766h-3.738V26.094a4.728,4.728,0,0,1-4.032,2.163A6.747,6.747,0,0,1,107,21.178c0-3.933,2.656-6.982,6.589-6.982a4.819,4.819,0,0,1,4.228,2.163Zm-6.982,6.589a3.652,3.652,0,0,0,3.638,3.738,3.592,3.592,0,0,0,3.638-3.738,3.592,3.592,0,0,0-3.638-3.738,3.652,3.652,0,0,0-3.638,3.738Z" transform="translate(-1.786 -0.233)" fill="#9c0631"/>
  <path id="Path_62190" data-name="Path 62190" d="M127.738,4.7V27.609H124V4.7Z" transform="translate(-2.07 -0.078)" fill="#9c0631"/>
  <path id="Path_62191" data-name="Path 62191" d="M141.517,7.3a8.244,8.244,0,0,1,5.015,1.278,5.213,5.213,0,0,1,1.869,4.228,4.456,4.456,0,0,1-2.262,4.032,4.454,4.454,0,0,1,2.655,1.278,5.436,5.436,0,0,1,1.475,3.835,5.3,5.3,0,0,1-1.77,4.13,7.292,7.292,0,0,1-5.113,1.671H136.6V7.3Zm-1.082,8.457h1.082c.587,0,3.048-.1,3.048-2.655,0-1.869-1.475-2.557-3.048-2.557h-1.179v5.211Zm0,8.651h1.671a5,5,0,0,0,2.753-.587,2.67,2.67,0,0,0,1.278-2.36,2.437,2.437,0,0,0-1.474-2.359,6.694,6.694,0,0,0-2.753-.394h-1.475Z" transform="translate(-2.28 -0.122)" fill="#9c0631"/>
  <path id="Path_62192" data-name="Path 62192" d="M163.016,14.491h3.738V27.766h-3.738V26.094a4.728,4.728,0,0,1-4.032,2.163,6.747,6.747,0,0,1-6.785-7.08c0-3.933,2.656-6.982,6.589-6.982a4.819,4.819,0,0,1,4.228,2.163Zm-6.982,6.589a3.64,3.64,0,1,0,7.276,0,3.64,3.64,0,1,0-7.276,0Z" transform="translate(-2.54 -0.233)" fill="#9c0631"/>
  <path id="Path_62193" data-name="Path 62193" d="M169.2,14.491h3.738v1.671A4.873,4.873,0,0,1,177.066,14,5.1,5.1,0,0,1,181,15.573a5.744,5.744,0,0,1,1.082,3.738v8.455h-3.738V20.587a3.632,3.632,0,0,0-.688-2.557,2.544,2.544,0,0,0-1.77-.688,2.333,2.333,0,0,0-2.262,1.18,4.239,4.239,0,0,0-.587,2.557v6.686H169.3V14.491Z" transform="translate(-2.824 -0.233)" fill="#9c0631"/>
  <path id="Path_62194" data-name="Path 62194" d="M188.838,4.7V19.154l4.917-4.818h4.818l-6.194,5.8,6.686,7.375h-4.917l-4.917-5.607-.394.394v5.31H185.1V4.7Z" transform="translate(-3.089 -0.078)" fill="#9c0631"/>
  <g id="Group_9462" data-name="Group 9462" transform="translate(134.125 32.727)">
    <path id="Path_62195" data-name="Path 62195" d="M136.5,34.9h1.771a2.166,2.166,0,0,1,.787.1,1.4,1.4,0,0,1,.587.2.768.768,0,0,1,.394.394,1.247,1.247,0,0,1,.1.587.743.743,0,0,1-.1.394c0,.1-.1.2-.2.295l-.295.295c-.1.1-.2.1-.394.2h0c.394.1.688.2.787.394a1.877,1.877,0,0,1,.295.787,1.421,1.421,0,0,1-.195.69.982.982,0,0,1-.394.492l-.587.295a1.917,1.917,0,0,1-.787.1H136.4V34.9Zm1.671,2.065a.831.831,0,0,0,.587-.2.751.751,0,0,0,.2-.492.511.511,0,0,0-.2-.394c-.1-.1-.295-.1-.587-.1h-.587v1.18Zm.1,2.163c.587,0,.983-.2.983-.688a.751.751,0,0,0-.2-.492,1.421,1.421,0,0,0-.688-.2h-.688v1.377Z" transform="translate(-136.403 -33.307)" fill="#9c0631"/>
    <path id="Path_62196" data-name="Path 62196" d="M143.188,34.47a.682.682,0,0,1-.688-.587.694.694,0,0,1,1.377,0A.682.682,0,0,1,143.188,34.47Zm-.587.394h1.18v5.113H142.6Z" transform="translate(-136.504 -33.273)" fill="#9c0631"/>
    <path id="Path_62197" data-name="Path 62197" d="M148.953,40.01l-.983-1.869h-.587V40.01H146.2V34.9h1.869a2.165,2.165,0,0,1,.787.1c.2.1.492.1.587.295a.982.982,0,0,1,.394.492,1.853,1.853,0,0,1,.2.787,1.2,1.2,0,0,1-.295.885,4.277,4.277,0,0,1-.688.587l1.18,2.065h-1.278Zm-1.573-2.753h.587a1.421,1.421,0,0,0,.688-.2c.2-.1.2-.295.2-.587a.578.578,0,0,0-.2-.492,1.421,1.421,0,0,0-.688-.2h-.587Z" transform="translate(-136.565 -33.307)" fill="#9c0631"/>
    <path id="Path_62198" data-name="Path 62198" d="M152.688,34.466a.682.682,0,0,1-.688-.593.694.694,0,0,1,1.377,0,.748.748,0,0,1-.2.394C152.983,34.367,152.885,34.466,152.688,34.466Zm-.587.394h1.18v5.113H152.1Z" transform="translate(-136.662 -33.269)" fill="#9c0631"/>
    <path id="Path_62199" data-name="Path 62199" d="M156,34.9h1.18l1.377,2.557.492,1.18h0c0-.295-.1-.587-.1-.885s-.1-.688-.1-.983V35h1.082v5.113h-1.18l-1.377-2.557-.492-1.082h0c0,.295.1.587.1.885s.1.688.1.983v1.77H156Z" transform="translate(-136.729 -33.31)" fill="#9c0631"/>
    <path id="Path_62200" data-name="Path 62200" d="M162.3,37.453a4.936,4.936,0,0,1,.2-1.18,3.987,3.987,0,0,1,.492-.885,1.351,1.351,0,0,1,.787-.492,2.909,2.909,0,0,1,.982-.2,2.871,2.871,0,0,1,.885.2,1.762,1.762,0,0,1,.688.492l-.587.688c-.1-.1-.295-.2-.394-.295a1.278,1.278,0,0,0-.983,0,1.357,1.357,0,0,0-.394.295,2.149,2.149,0,0,0-.295.492,1.458,1.458,0,0,0-.1.688,2.46,2.46,0,0,0,.295,1.278.961.961,0,0,0,.885.394,1.247,1.247,0,0,0,.587-.1,1.357,1.357,0,0,0,.394-.295l.587.688c-.2.295-.492.394-.688.587a2.871,2.871,0,0,1-.885.2,3.494,3.494,0,0,1-.983-.2,2.063,2.063,0,0,1-1.278-1.278A3.035,3.035,0,0,1,162.3,37.453Z" transform="translate(-136.834 -33.307)" fill="#9c0631"/>
    <path id="Path_62201" data-name="Path 62201" d="M169.088,34.47a.682.682,0,0,1-.688-.587.694.694,0,0,1,1.377,0,.682.682,0,0,1-.688.587Zm-.587.394h1.18v5.113H168.5Z" transform="translate(-136.936 -33.273)" fill="#9c0631"/>
    <path id="Path_62202" data-name="Path 62202" d="M175.2,34.9h1.771a2.165,2.165,0,0,1,.787.1,1.4,1.4,0,0,1,.587.2.768.768,0,0,1,.394.394,1.247,1.247,0,0,1,.1.587.744.744,0,0,1-.1.394c0,.1-.1.2-.2.295l-.295.295c-.1.1-.2.1-.394.2h0c.394.1.688.2.787.394a1.878,1.878,0,0,1,.295.787,1.421,1.421,0,0,1-.195.69.981.981,0,0,1-.394.492l-.587.295a1.917,1.917,0,0,1-.787.1H175.1V34.9Zm1.671,2.065a.832.832,0,0,0,.587-.2.751.751,0,0,0,.2-.492.511.511,0,0,0-.2-.394c-.1-.1-.295-.1-.587-.1h-.587v1.18Zm.1,2.163c.587,0,.983-.2.983-.688a.751.751,0,0,0-.2-.492,1.421,1.421,0,0,0-.688-.2h-.688v1.377Z" transform="translate(-137.049 -33.307)" fill="#9c0631"/>
    <path id="Path_62203" data-name="Path 62203" d="M183.748,38.834h-1.573l-.295,1.18H180.7l1.573-5.113h1.377l1.573,5.113h-1.18Zm-.295-.983-.1-.492c-.1-.295-.1-.492-.2-.787s-.1-.587-.2-.787h0c-.1.295-.1.587-.2.885s-.1.587-.2.787l-.1.492h.983Z" transform="translate(-137.141 -33.311)" fill="#9c0631"/>
    <path id="Path_62204" data-name="Path 62204" d="M187.2,34.9h1.18l1.377,2.557.492,1.18h0c0-.295-.1-.587-.1-.885s-.1-.688-.1-.983V35h1.082v5.113h-1.18l-1.377-2.557-.492-1.082h0c0,.295.1.587.1.885s.1.688.1.983v1.77H187.2Z" transform="translate(-137.25 -33.31)" fill="#9c0631"/>
    <path id="Path_62205" data-name="Path 62205" d="M193.8,34.9h1.18v2.065h0l1.573-2.065h1.278l-1.575,2.065,1.869,3.048h-1.278l-1.278-2.163-.587.787v1.377H193.8Z" transform="translate(-137.359 -33.31)" fill="#9c0631"/>
  </g>
</svg>
