<svg xmlns="http://www.w3.org/2000/svg" width="125" height="125" viewBox="0 0 125 125">
  <g id="locc" transform="translate(-496 -1303)">
    <rect id="Rectangle_298" data-name="Rectangle 298" width="125" height="125" transform="translate(496 1303)" fill="#fafafa"/>
    <path id="location-big" d="M30.534,87.671C4.78,50.86,0,47.082,0,33.554A33.8,33.8,0,0,1,34.031,0,33.8,33.8,0,0,1,68.063,33.554c0,13.529-4.78,17.306-30.534,54.117A4.29,4.29,0,0,1,30.534,87.671Zm3.5-40.137a13.982,13.982,0,1,0-14.18-13.981A14.081,14.081,0,0,0,34.031,47.534Z" transform="translate(524 1321)" fill="#0f4c75"/>
  </g>
</svg>
