<svg xmlns="http://www.w3.org/2000/svg" width="178.888" height="82.696" viewBox="0 0 178.888 82.696">
  <g id="pashabank" transform="translate(-30.936 -30.958)">
    <path id="Path_39448" data-name="Path 39448" d="M292.069,175.869c3.015,0,4.523-.8,4.523-2.714,0-2.14-1.64-2.91-4.921-2.91h-2.476v5.621Zm-.829-9.5c2.471,0,3.711-.439,3.711-2.543,0-2.009-1.341-2.81-4.015-2.81h-1.741v5.35Zm-7.764-9.705h8.295c5.788,0,8.8,2.076,8.8,6.525a5.039,5.039,0,0,1-2.378,4.216v.068a5.959,5.959,0,0,1,4.082,5.552c0,4.315-2.544,7.291-9.5,7.291h-9.3Z" transform="translate(-158.285 -78.788)" fill="#cf0026"/>
    <path id="Path_39449" data-name="Path 39449" d="M349.655,183.984v-2.876l-2.745.068c-1.641.029-2.841.567-2.841,1.906,0,1.068,1.036,1.536,2.039,1.536a14.136,14.136,0,0,0,3.547-.634m-11.006-.57c0-4.615,4.216-5.549,7.827-5.549h3.179v-1.143c0-1.6-1.033-2.073-3.315-2.073a24.513,24.513,0,0,0-5.449.8l-1.109-4.044a19.977,19.977,0,0,1,7.4-1.474c5.653,0,7.928,1.6,7.928,5.72v8.127c0,.6.6.742,1.64.77l-.2,4.216c-.437.038-.873.038-1.307.038-2.206,0-4.552-.371-5.056-1.942a8.993,8.993,0,0,1-5.25,2.072c-4.017,0-6.288-1.874-6.288-5.52" transform="translate(-192.866 -87.107)" fill="#cf0026"/>
    <path id="Path_39450" data-name="Path 39450" d="M394.481,170.316h5.586v1.841a10.852,10.852,0,0,1,5.954-2.307c5.722,0,6.125,3.141,6.125,7.289v11.438H406.59V177.605c0-2.507-.569-2.943-2.442-2.943a9.741,9.741,0,0,0-4.081.973v12.942h-5.587Z" transform="translate(-227.86 -87.054)" fill="#cf0026"/>
    <path id="Path_39451" data-name="Path 39451" d="M451.467,152.45h5.584v13.718l5.052-6.756h5.988l-6.658,8.431,7.764,9.832H462.3l-5.251-7.526v7.524h-5.583Z" transform="translate(-263.578 -76.148)" fill="#cf0026"/>
    <path id="Path_39452" data-name="Path 39452" d="M292.68,62.8h-9.2V86.467h5.72V79.774h1.741c7.064,0,10.879-3.917,10.879-8.569,0-5.292-3.816-8.4-9.142-8.4m-1.537,12.586H289.2V67.249h2.747c3.047,0,4.012,1.708,4.012,4.089,0,2.2-1.269,4.049-4.818,4.049M360.15,62.8h-7.772l-7.964,23.668H350.3l2.241-6.929h7.437l2.241,6.929h5.891Zm-6.265,12.62,2.381-9.1,2.374,9.1ZM309.009,62.8l-7.964,23.668h5.891l2.242-6.929h7.434l2.243,6.929h5.891L316.778,62.8Zm1.513,12.62,2.378-9.1,2.371,9.1ZM332.2,68.987c0-1.01.736-1.916,3.129-1.916a17.792,17.792,0,0,1,5.617.973l1.647-3.966a15.943,15.943,0,0,0-7.434-1.615c-4.208,0-8.543,1.986-8.543,6.559,0,8.073,11.3,7.034,11.3,10.9,0,1.448-1.31,2.324-4.171,2.324a16.8,16.8,0,0,1-6.291-1.081l-1.618,4.107a14.786,14.786,0,0,0,6.872,1.657,7.631,7.631,0,0,1,.329,1.809c0,1.177-1.712,1.851-2.556,2.357l1.918,3.364c2.121-.876,5.319-2.357,5.319-5.08a6.975,6.975,0,0,0-.746-2.724h-.031c3.7-.721,6.77-2.842,6.77-6.933,0-7.57-11.512-7.57-11.512-10.734" transform="translate(-158.29 -19.744)" fill="#007142"/>
    <path id="Path_39453" data-name="Path 39453" d="M165.76,63.4h14.572V87.061H156.67v-5.34l13.071-13.062.639-.639Z" transform="translate(-78.807 -20.333)" fill="#007142"/>
    <path id="Path_39454" data-name="Path 39454" d="M124.421,30.958l16.731,16.729L124.421,64.416l-3.773-3.775V41.258h-6.53Z" transform="translate(-52.136)" fill="#cf0026"/>
    <path id="Path_39455" data-name="Path 39455" d="M63.387,63.4V77.968l3.976-3.976.643-.639,13.7,13.705h5.339V63.4Z" transform="translate(-20.339 -20.333)" fill="#007142"/>
    <path id="Path_39456" data-name="Path 39456" d="M30.936,113.645,47.667,96.916l16.726,16.729-3.77,3.774H41.236v6.53Z" transform="translate(0 -41.34)" fill="#cf0026"/>
    <path id="Path_39457" data-name="Path 39457" d="M63.387,180.358V156.7h23.66v5.334L73.978,175.1l-.639.639.639.637,3.979,3.983Z" transform="translate(-20.339 -78.811)" fill="#007142"/>
    <path id="Path_39458" data-name="Path 39458" d="M113.632,196.345,96.9,179.619l16.733-16.729,3.764,3.768v19.387h6.537Z" transform="translate(-41.344 -82.692)" fill="#cf0026"/>
    <path id="Path_39459" data-name="Path 39459" d="M180.324,180.358H156.658V156.7H162l13.064,13.069.639.632.639-.639,3.983-3.973Z" transform="translate(-78.799 -78.811)" fill="#007142"/>
    <path id="Path_39460" data-name="Path 39460" d="M179.6,141.17l-16.724-16.729,3.77-3.77h19.382v-6.53l10.3,10.3Z" transform="translate(-82.695 -52.137)" fill="#cf0026"/>
  </g>
</svg>
