<svg xmlns="http://www.w3.org/2000/svg" width="125" height="125" viewBox="0 0 125 125">
  <g id="star" transform="translate(-319 -1303)">
    <rect id="Rectangle_299" data-name="Rectangle 299" width="125" height="125" transform="translate(319 1303)" fill="#fafafa"/>
    <path id="star-2" data-name="star" d="M79.085,44.131l7.93-7.761a4.108,4.108,0,0,0-1.839-6.956l-10.8-2.757,3.045-10.694A4.178,4.178,0,0,0,72.3,10.847l-10.69,3.047L58.857,3.086A4.137,4.137,0,0,0,51.9,1.246L44.145,9.238,36.387,1.247a4.138,4.138,0,0,0-6.954,1.84L26.677,13.893,15.987,10.847a4.178,4.178,0,0,0-5.115,5.117l3.045,10.694-10.8,2.757a4.108,4.108,0,0,0-1.839,6.956L9.2,44.131l-7.93,7.761a4.108,4.108,0,0,0,1.839,6.956l10.8,2.757L10.872,72.3a4.178,4.178,0,0,0,5.115,5.117l10.69-3.047,2.756,10.807a4.1,4.1,0,0,0,6.954,1.84l7.758-7.932L51.9,87.016a4.117,4.117,0,0,0,6.954-1.84l2.756-10.807L72.3,77.416A4.178,4.178,0,0,0,77.418,72.3L74.373,61.605l10.8-2.757a4.108,4.108,0,0,0,1.839-6.956l-7.93-7.761Z" transform="translate(337 1321)" fill="#0f4c75"/>
  </g>
</svg>
