<svg xmlns="http://www.w3.org/2000/svg" width="258.233" height="33.8" viewBox="0 0 258.233 33.8">
  <g id="white-logo" transform="translate(-161.154 -97.821)">
    <g id="Letter_Logo" data-name="Letter Logo" transform="translate(185.436 97.821)">
      <path id="Path_328" data-name="Path 328" d="M432.92,689.018H418.736l-4.218,6.526h-4.1L428.544,669.8h2.871l6.868,25.744h-3.756Zm-.841-2.745-3.2-13.039-8.467,13.039Z" transform="translate(-410.42 -669.8)" fill="#fafafa"/>
      <path id="Path_329" data-name="Path 329" d="M471.569,679.41l-12.976,19.667H454.8L449.91,679.41h3.7l3.794,15.765,10.4-15.765Z" transform="translate(-424.938 -673.333)" fill="#fafafa"/>
      <path id="Path_330" data-name="Path 330" d="M531.616,680.821a6.077,6.077,0,0,1,1.941,4.825,12.6,12.6,0,0,1-.228,2.3l-2.27,11.022h-3.7l2.27-11.022a8.741,8.741,0,0,0,.2-1.632,3.731,3.731,0,0,0-1.2-2.972,5.286,5.286,0,0,0-3.541-1.037,7.589,7.589,0,0,0-4.945,1.575,7.867,7.867,0,0,0-2.6,4.692l-2.156,10.4h-3.7l4.041-19.667h3.548l-.506,2.529a10.136,10.136,0,0,1,7.392-2.713A7.961,7.961,0,0,1,531.616,680.821Z" transform="translate(-447.65 -673.226)" fill="#fafafa"/>
      <path id="Path_331" data-name="Path 331" d="M570.436,679.3l-5.546,27.369H561.2l1.9-9.561a9.859,9.859,0,0,1-3.118,1.815,6.147,6.147,0,0,1-2.827.468,15.1,15.1,0,0,1-5.691-.866,7.677,7.677,0,0,1-3.2-3,8.948,8.948,0,0,1-1.151-4.616,12.256,12.256,0,0,1,1.5-6.083,10.833,10.833,0,0,1,4.142-4.2,11.679,11.679,0,0,1,5.906-1.511,10.08,10.08,0,0,1,4.6.968,6.324,6.324,0,0,1,2.865,2.852l.771-3.63ZM561.065,695.3a7.45,7.45,0,0,0,2.846-3,9.188,9.188,0,0,0,1.024-4.382,5.407,5.407,0,0,0-1.581-4.155,6.31,6.31,0,0,0-4.509-1.48,7.8,7.8,0,0,0-4.079,1.081,7.589,7.589,0,0,0-2.846,3,9.049,9.049,0,0,0-1.043,4.382,5.381,5.381,0,0,0,1.6,4.142,6.323,6.323,0,0,0,4.484,1.492,7.911,7.911,0,0,0,4.091-1.081Z" transform="translate(-460.67 -673.22)" fill="#fafafa"/>
      <path id="Path_332" data-name="Path 332" d="M607.413,679.284l-4.041,19.6h-3.51l.5-2.4a10.043,10.043,0,0,1-3.219,1.941,6.748,6.748,0,0,1-3.073.518,14.677,14.677,0,0,1-5.571-.854,7.588,7.588,0,0,1-3.193-2.941,8.593,8.593,0,0,1-1.157-4.515,11.812,11.812,0,0,1,1.505-5.957,10.75,10.75,0,0,1,4.136-4.11,11.875,11.875,0,0,1,5.913-1.48,10.377,10.377,0,0,1,4.49.892,6.374,6.374,0,0,1,2.865,2.624l.7-3.333Zm-9.372,15.67a7.323,7.323,0,0,0,2.846-2.941,8.853,8.853,0,0,0,1.024-4.287,5.249,5.249,0,0,0-1.581-4.073,6.416,6.416,0,0,0-4.509-1.442,7.968,7.968,0,0,0-4.079,1.05,7.551,7.551,0,0,0-2.846,2.947,8.715,8.715,0,0,0-1.043,4.288,5.2,5.2,0,0,0,1.6,4.053,6.4,6.4,0,0,0,4.484,1.461A8.019,8.019,0,0,0,598.042,694.954Z" transform="translate(-474.287 -673.213)" fill="#fafafa"/>
      <path id="Path_333" data-name="Path 333" d="M661.111,669.8l-5.691,25.687h-3.535l.5-2.416a9.922,9.922,0,0,1-3.213,1.948,11.162,11.162,0,0,1-3.984.525,10.22,10.22,0,0,1-4.661-.86,7.544,7.544,0,0,1-3.162-2.953,8.664,8.664,0,0,1-1.157-4.534,11.908,11.908,0,0,1,1.5-5.989,10.826,10.826,0,0,1,4.142-4.129,11.813,11.813,0,0,1,5.862-1.461,10.39,10.39,0,0,1,4.521.911,6.255,6.255,0,0,1,2.871,2.662l2.308-9.365Zm-11.035,21.722a7.372,7.372,0,0,0,2.852-2.953,8.992,8.992,0,0,0,1.018-4.313,5.268,5.268,0,0,0-1.581-4.091,6.371,6.371,0,0,0-4.5-1.448,7.937,7.937,0,0,0-4.079,1.056,7.588,7.588,0,0,0-2.852,2.959,8.79,8.79,0,0,0-1.037,4.313,5.268,5.268,0,0,0,1.594,4.072,6.418,6.418,0,0,0,4.49,1.467,8.012,8.012,0,0,0,4.1-1.062Z" transform="translate(-493.426 -669.8)" fill="#fafafa"/>
      <path id="Path_334" data-name="Path 334" d="M679.863,693.817a7.521,7.521,0,0,1-2.643-6.134,15.236,15.236,0,0,1,.329-2.9l3.326-14.981h2.093l-3.282,14.949a11.7,11.7,0,0,0-.329,2.827,6.061,6.061,0,0,0,2.093,4.983,9.219,9.219,0,0,0,5.989,1.707,10.761,10.761,0,0,0,7.234-2.327q2.726-2.327,3.794-7.19l3.276-14.949h2.093l-3.32,15.057c-1.619,7.437-6.918,10.687-14.108,10.687C683.208,695.544,681.628,695.284,679.863,693.817Z" transform="translate(-508.504 -669.8)" fill="#fafafa"/>
      <path id="Path_335" data-name="Path 335" d="M735.388,682.439a7.532,7.532,0,0,1,2.529,5.989,11.782,11.782,0,0,1-1.581,6.071,11.174,11.174,0,0,1-4.344,4.231c-1.846,1.024-4.123,1.05-6.419,1.05s-3.832.044-5.268-.822a6.766,6.766,0,0,1-2.979-3.794l-2.662,12.249H712.61l5.868-27.065h2.011l-.822,3.794a10.542,10.542,0,0,1,3.857-2.928,12.236,12.236,0,0,1,5.122-1.044A10.121,10.121,0,0,1,735.388,682.439Zm-4.427,14.816a9.4,9.4,0,0,0,3.567-3.573,10.212,10.212,0,0,0,1.265-5.141,6.122,6.122,0,0,0-1.986-4.876,8.237,8.237,0,0,0-5.6-1.739,10.314,10.314,0,0,0-5.148,1.265,9.416,9.416,0,0,0-3.592,3.573,10.212,10.212,0,0,0-1.309,5.16,6.09,6.09,0,0,0,2,4.876,8.323,8.323,0,0,0,5.622,1.739,10.213,10.213,0,0,0,5.192-1.284Z" transform="translate(-521.514 -673.612)" fill="#fafafa"/>
      <path id="Path_336" data-name="Path 336" d="M753.738,699.144a9.878,9.878,0,0,1-3.548-1.752l1.107-1.442a8.608,8.608,0,0,0,3.162,1.644,14.286,14.286,0,0,0,4.2.632,10.4,10.4,0,0,0,5.148-1.05,3.238,3.238,0,0,0,1.828-2.928,2.1,2.1,0,0,0-.74-1.695,4.895,4.895,0,0,0-1.8-.942c-.715-.209-1.695-.436-2.953-.683a29.325,29.325,0,0,1-3.592-.841,5.692,5.692,0,0,1-2.314-1.385,3.44,3.44,0,0,1-.942-2.53,4.831,4.831,0,0,1,2.441-4.237,11.829,11.829,0,0,1,6.5-1.587,15.727,15.727,0,0,1,3.978.5,8.454,8.454,0,0,1,3.073,1.379l-.942,1.442a8.431,8.431,0,0,0-2.852-1.265,14.006,14.006,0,0,0-3.421-.424,9.537,9.537,0,0,0-4.945,1.107A3.32,3.32,0,0,0,755.293,686a2.213,2.213,0,0,0,.74,1.752,4.976,4.976,0,0,0,1.865.974q1.132.335,3.016.7a28.686,28.686,0,0,1,3.548.828,5.654,5.654,0,0,1,2.276,1.341,3.371,3.371,0,0,1,.942,2.529,4.781,4.781,0,0,1-2.529,4.237c-1.669,1.031-2.656,1.075-5.445,1.075C758.088,699.353,755.255,699.6,753.738,699.144Z" transform="translate(-535.33 -673.678)" fill="#fafafa"/>
      <path id="Path_337" data-name="Path 337" d="M497.295,679.291l-.7,3.333A6.375,6.375,0,0,0,493.734,680a10.377,10.377,0,0,0-4.49-.892,12.06,12.06,0,0,0-5.192,1.138l-6.324,9.536c0,.291-.051.575-.051.873a8.594,8.594,0,0,0,1.151,4.515,7.588,7.588,0,0,0,3.193,2.941c1.366.677,4.237.854,5.982.854a5.1,5.1,0,0,0,2.662-.519,10.042,10.042,0,0,0,3.219-1.941l-.5,2.4h3.541l4.041-19.6Zm-2.833,12.73a7.323,7.323,0,0,1-2.846,2.941,8.018,8.018,0,0,1-4.1,1.056,6.444,6.444,0,0,1-4.483-1.461,5.2,5.2,0,0,1-1.6-4.053,8.714,8.714,0,0,1,1.043-4.287,7.551,7.551,0,0,1,2.846-2.947,7.968,7.968,0,0,1,4.079-1.05,6.458,6.458,0,0,1,4.509,1.442,5.249,5.249,0,0,1,1.581,4.072,8.853,8.853,0,0,1-1.024,4.287Z" transform="translate(-435.145 -673.221)" fill="#fafafa"/>
      <path id="Path_338" data-name="Path 338" d="M632.138,680.594c.177-.1.367-.171.55-.259l.24-1.227a13.445,13.445,0,0,0-4.774.746,7.778,7.778,0,0,0-3.307,2.371l.575-2.928h-3.541l-4.041,19.667h3.693l2.042-9.808c.765-3.794,2.763-5.906,5.97-6.457A11.1,11.1,0,0,1,632.138,680.594Z" transform="translate(-486.674 -673.22)" fill="#fafafa"/>
    </g>
    <g id="Abstract_Logo_Mark" data-name="Abstract Logo Mark" transform="translate(161.154 97.821)">
      <path id="Path_339" data-name="Path 339" d="M391.35,695.537h2.858L412.914,669.8h-2.858Z" transform="translate(-379.126 -669.8)" fill="#fafafa"/>
      <path id="Path_340" data-name="Path 340" d="M384.548,697.2H381.69l16.619-22.879h2.865Z" transform="translate(-375.575 -671.462)" fill="#fafafa"/>
      <path id="Path_341" data-name="Path 341" d="M374.885,698.865H372.02l14.544-20.015h2.865Z" transform="translate(-372.02 -673.127)" fill="#fafafa"/>
    </g>
  </g>
</svg>
