<svg id="yelobank" xmlns="http://www.w3.org/2000/svg" width="170.633" height="42.594" viewBox="0 0 170.633 42.594">
  <g id="card_total_page" transform="translate(0 0)">
    <g id="logo">
      <path id="Path_468" data-name="Path 468" d="M19.325,11.57,12.812,42.594H7.286L9.662,31.273l3.975-18.934a1.033,1.033,0,0,1,.992-.768h4.7Zm12.613-.723a10.1,10.1,0,0,1,10.3,10.123l0,.307v1.158H26.978a5.312,5.312,0,0,0,4.96,4.637c3.326,0,4.324-2.176,4.384-2.312l0-.007h5.724s-1.718,6.953-10.11,6.953a10.43,10.43,0,1,1,0-20.86Zm35.455,0A10.433,10.433,0,1,1,56.71,21.278,10.409,10.409,0,0,1,67.393,10.847Zm47.793.017a8.082,8.082,0,0,1,7.378,4.348h.039V11.26h2.342V31.023H122.6V27.071h-.039a8.082,8.082,0,0,1-7.378,4.348c-5.114,0-9.369-4.348-9.369-10.277S110.072,10.864,115.186,10.864ZM85.42,0V15.213h.039a7.966,7.966,0,0,1,7.379-4.348c5.114,0,9.369,4.348,9.369,10.277s-4.255,10.277-9.369,10.277a7.966,7.966,0,0,1-7.379-4.348H85.42v3.953H83.078V0ZM4.7,11.57a1.033,1.033,0,0,1,.992.768h0L9.662,31.273H4.136L0,11.57ZM57.073.241,50.56,31.265H45.034L51.385,1.01a1.033,1.033,0,0,1,.992-.769h4.7Zm83.2,10.623c4.294,0,7.417,3.162,7.417,8.5h0v11.66h-2.342V19.363c0-4.15-2.147-6.324-5.465-6.324-3.749,0-6.638,3-6.638,7.115h0v10.87H130.9V11.26h2.342v3.36h.04C134.022,13.039,136.208,10.864,140.268,10.864ZM155.981,0V31.023h-2.343V0Zm13.792,11.26-10.447,9.43,11.307,10.334h-3.446L155.981,20.69l10.447-9.43Zm-54.391,1.779c-3.9,0-7.222,3.36-7.222,8.1s3.319,8.1,7.222,8.1c3.708,0,7.222-3.36,7.222-8.1S119.09,13.039,115.381,13.039Zm-22.739,0c-3.709,0-7.222,3.36-7.222,8.1s3.513,8.1,7.222,8.1c3.9,0,7.222-3.36,7.222-8.1S96.546,13.039,92.642,13.039Zm-25.064,2.63c-2.862,0-5.15,2.318-5.15,5.8s2.288,5.794,5.15,5.794,5.149-2.318,5.149-5.794S70.44,15.668,67.579,15.668Zm-35.645,0a4.963,4.963,0,0,0-4.7,3.465l-.066.206h9.348A4.59,4.59,0,0,0,31.934,15.668Z" transform="translate(0 0)" fill-rule="evenodd"/>
    </g>
  </g>
</svg>
