<svg id="azercell" xmlns="http://www.w3.org/2000/svg" xmlns:xlink="http://www.w3.org/1999/xlink" width="199.165" height="62.441" viewBox="0 0 199.165 62.441">
  <defs>
    <linearGradient id="linear-gradient" x1="-0.018" y1="19.439" x2="1.218" y2="20.071" gradientUnits="objectBoundingBox">
      <stop offset="0.074" stop-color="#5c2d91" stop-opacity="0.502"/>
      <stop offset="0.7" stop-color="#5c2d91"/>
    </linearGradient>
    <linearGradient id="linear-gradient-2" x1="1.067" y1="13.416" x2="-0.037" y2="12.61" gradientUnits="objectBoundingBox">
      <stop offset="0.075" stop-color="#5c2d91" stop-opacity="0.502"/>
      <stop offset="0.6" stop-color="#5c2d91"/>
    </linearGradient>
  </defs>
  <g id="Group_154" data-name="Group 154" transform="translate(0)">
    <path id="Path_417" data-name="Path 417" d="M66.719,46.048s-1.278,13.2-1.619,15.5h4.43s.511-3.578,1.7-13.715c.256-1.874.511-5.537.511-5.537Z" transform="translate(-9.644 -6.266)" fill="url(#linear-gradient)"/>
    <path id="Path_418" data-name="Path 418" d="M52.7,5.963C58.322,4.77,62.667,7.07,64.456,18.4a75.02,75.02,0,0,1,.767,10.989c1.7-1.363,3.322-2.641,4.856-3.919V25.3a69.892,69.892,0,0,0-1.619-12.948C66.585,3.663,61.048,0,55.341,0a11.982,11.982,0,0,0-2.385.256Z" transform="translate(-7.807)" fill="url(#linear-gradient-2)"/>
    <path id="Path_419" data-name="Path 419" d="M47.619,0C41.06,0,29.048,5.622,16.952,18.826,3.237,33.649,0,45.319,0,51.452S4.089,62.441,11.415,62.441,30.667,57.756,48.3,45.915A406.223,406.223,0,0,0,82.971,19.252l-3.663-8.433C75.56,13.885,58.864,29.9,36.63,44.212c-21.3,13.715-28.111,11.5-29.048,9.711-.767-1.448-2.385-6.73,6.3-20.7S36.034,9.37,42.849,6.73a14.859,14.859,0,0,1,4.685-1.107Z" transform="translate(0)" fill="#5c2d91"/>
  </g>
  <g id="Group_156" data-name="Group 156" transform="translate(71.642 29.474)">
    <g id="Group_155" data-name="Group 155">
      <path id="Path_420" data-name="Path 420" d="M228.6,34.6V60.667h4.43V34.6H228.6Z" transform="translate(-105.506 -34.6)" fill="#5c2d91"/>
      <path id="Path_421" data-name="Path 421" d="M130.682,47.478V43.9H116.456v3.919H125.4l-9.2,10.563,1.619,3.663h13.2V58.126h-9.711Z" transform="translate(-88.855 -35.978)" fill="#5c2d91"/>
      <path id="Path_422" data-name="Path 422" d="M95.345,34.6,84.1,60.667h5.026l2.641-6.133h11.756l2.641,6.133h5.026L99.945,34.6ZM93.385,50.53l4.174-9.882,4.174,9.882H93.385Z" transform="translate(-84.1 -34.6)" fill="#5c2d91"/>
      <path id="Path_423" data-name="Path 423" d="M205.085,43.5c-5.622,0-9.285,4.089-9.285,9.456,0,5.622,3.663,9.456,9.2,9.456a9.4,9.4,0,0,0,7.922-3.748l-3.237-2.385a5.29,5.29,0,0,1-4.6,2.215,4.5,4.5,0,0,1-4.77-4.259h13.545V52.445C213.774,46.737,210.452,43.5,205.085,43.5ZM200.4,51c.511-2.556,2.13-4.089,4.6-4.089,2.3,0,4,1.363,4.43,4.089H200.4Z" transform="translate(-100.647 -35.918)" fill="#5c2d91"/>
      <path id="Path_424" data-name="Path 424" d="M219.9,60.667h4.43V34.6H219.9V60.667Z" transform="translate(-104.217 -34.6)" fill="#5c2d91"/>
      <path id="Path_425" data-name="Path 425" d="M182.526,47.4a4.684,4.684,0,0,1,4.515,3.067l3.833-2.044c-1.533-3.237-4-5.026-8.519-5.026a9.033,9.033,0,0,0-9.456,9.456c0,5.537,3.663,9.456,9.285,9.456a9.328,9.328,0,0,0,8.6-4.941l-3.833-2.044a4.942,4.942,0,0,1-4.515,2.982c-2.9,0-5.026-2.385-5.026-5.537A5.24,5.24,0,0,1,182.526,47.4Z" transform="translate(-97.255 -35.904)" fill="#5c2d91"/>
      <path id="Path_426" data-name="Path 426" d="M163.685,46.5h-.256V43.856H159V62h4.43V53.567c0-3.237,1.789-5.793,4.43-5.793a7.261,7.261,0,0,1,1.959.256V43.77a5.869,5.869,0,0,0-1.533-.17A4.945,4.945,0,0,0,163.685,46.5Z" transform="translate(-95.196 -35.933)" fill="#5c2d91"/>
      <path id="Path_427" data-name="Path 427" d="M144.385,43.5c-5.622,0-9.285,4.089-9.285,9.456,0,5.622,3.663,9.456,9.2,9.456a9.4,9.4,0,0,0,7.922-3.748l-3.237-2.385a5.29,5.29,0,0,1-4.6,2.215,4.5,4.5,0,0,1-4.77-4.259h13.459V52.445C152.989,46.737,149.752,43.5,144.385,43.5Zm-4.77,7.5c.511-2.556,2.13-4.089,4.6-4.089,2.3,0,4,1.363,4.43,4.089h-9.03Z" transform="translate(-91.655 -35.918)" fill="#5c2d91"/>
    </g>
  </g>
</svg>
