<svg xmlns="http://www.w3.org/2000/svg" width="22.667" height="22.667" viewBox="0 0 22.667 22.667">
  <path id="black-call" d="M9.059,14.31a19.076,19.076,0,0,0,8.3,8.3l2.77-2.77a1.252,1.252,0,0,1,1.284-.3,14.364,14.364,0,0,0,4.5.718,1.263,1.263,0,0,1,1.259,1.259v4.395a1.263,1.263,0,0,1-1.259,1.259A21.406,21.406,0,0,1,4.5,5.759,1.263,1.263,0,0,1,5.759,4.5h4.407a1.263,1.263,0,0,1,1.259,1.259,14.306,14.306,0,0,0,.718,4.5,1.264,1.264,0,0,1-.315,1.284l-2.77,2.77Z" transform="translate(-4.5 -4.5)" fill="#1b262c"/>
</svg>
