<svg xmlns="http://www.w3.org/2000/svg" width="103.782" height="103.783" viewBox="0 0 103.782 103.783">
  <g id="bakuelectronics" transform="translate(-360.836 -692.611)">
    <circle id="Ellipse_118" data-name="Ellipse 118" cx="51.65" cy="51.65" r="51.65" transform="translate(361.077 796.152) rotate(-90)" fill="#ef4135"/>
    <path id="Path_63126" data-name="Path 63126" d="M353.266,736.692a51.65,51.65,0,1,1,51.65,51.65,51.65,51.65,0,0,1-51.65-51.65" transform="translate(7.811 7.811)" fill="none" stroke="#e5001b" stroke-miterlimit="22.926" stroke-width="0.482" fill-rule="evenodd"/>
    <path id="Path_63127" data-name="Path 63127" d="M434.486,753.536h4.331v.369h-4.761v-7h4.714v.369h-4.283v2.813h4.025v.369h-4.025Z" transform="translate(-14.095 -8.963)" fill="#1a1818" fill-rule="evenodd"/>
    <rect id="Rectangle_332" data-name="Rectangle 332" width="0.383" height="7.006" transform="translate(425.126 737.937)" fill="#1a1818"/>
    <path id="Path_63128" data-name="Path 63128" d="M446.953,752.116h-4.077a2.546,2.546,0,0,0,.431,1.567,1.646,1.646,0,0,0,1.423.7,1.726,1.726,0,0,0,1.813-1.5h.37a1.978,1.978,0,0,1-2.182,1.825,2.007,2.007,0,0,1-1.67-.766,2.8,2.8,0,0,1-.554-1.793,3.128,3.128,0,0,1,.541-1.874,1.946,1.946,0,0,1,1.685-.849,2.031,2.031,0,0,1,1.737.8,2.808,2.808,0,0,1,.486,1.888Zm-4.078-.322h3.695a2.236,2.236,0,0,0-.486-1.43,1.676,1.676,0,0,0-1.354-.616,1.619,1.619,0,0,0-1.313.643,2.606,2.606,0,0,0-.54,1.4Z" transform="translate(-16.386 -9.643)" fill="#1a1818" fill-rule="evenodd"/>
    <path id="Path_63129" data-name="Path 63129" d="M453.41,751.115h-.37a1.352,1.352,0,0,0-.555-1.04,1.944,1.944,0,0,0-1.156-.322,1.752,1.752,0,0,0-1.457.691,2.465,2.465,0,0,0-.493,1.567,2.78,2.78,0,0,0,.451,1.656,1.715,1.715,0,0,0,1.5.718,1.68,1.68,0,0,0,1.177-.431,1.771,1.771,0,0,0,.568-1.135h.383a2.166,2.166,0,0,1-.691,1.382,2.058,2.058,0,0,1-1.436.515,2.1,2.1,0,0,1-1.765-.8,3.031,3.031,0,0,1-.554-1.9,2.746,2.746,0,0,1,.588-1.82,2.126,2.126,0,0,1,1.732-.76,2.32,2.32,0,0,1,1.41.4A1.694,1.694,0,0,1,453.41,751.115Z" transform="translate(-18.147 -9.648)" fill="#1a1818" fill-rule="evenodd"/>
    <path id="Path_63130" data-name="Path 63130" d="M457.483,749.01v.322h-1.095v3.517a.846.846,0,0,0,.281.746,1.408,1.408,0,0,0,.8.137v.322c-.091,0-.176.007-.253.007a1.038,1.038,0,0,1-1.2-1.211v-3.517h-.931v-.322h.931v-1.567h.374v1.567Z" transform="translate(-19.797 -9.109)" fill="#1a1818" fill-rule="evenodd"/>
    <path id="Path_63131" data-name="Path 63131" d="M459.218,749.582V750.7h.027a1.466,1.466,0,0,1,.76-.889,2.235,2.235,0,0,1,1.177-.253v.37c-.068,0-.137-.007-.2-.007a1.609,1.609,0,0,0-1.191.492,1.983,1.983,0,0,0-.568,1.464v2.751h-.374v-5.043Z" transform="translate(-20.818 -9.681)" fill="#1a1818" fill-rule="evenodd"/>
    <path id="Path_63132" data-name="Path 63132" d="M461.788,752.066a2.855,2.855,0,0,1,.588-1.847,2.3,2.3,0,0,1,3.463,0,3.189,3.189,0,0,1-.007,3.7,2.112,2.112,0,0,1-1.732.8,2.081,2.081,0,0,1-1.724-.8,2.848,2.848,0,0,1-.588-1.854Zm.37,0a2.6,2.6,0,0,0,.477,1.61,1.869,1.869,0,0,0,2.935,0,2.909,2.909,0,0,0-.007-3.209,1.862,1.862,0,0,0-2.928,0,2.586,2.586,0,0,0-.477,1.6Z" transform="translate(-21.614 -9.648)" fill="#1a1818" fill-rule="evenodd"/>
    <path id="Path_63133" data-name="Path 63133" d="M468.861,754.579v-5.042h.374v1.081h.021a1.591,1.591,0,0,1,.7-.883,2.013,2.013,0,0,1,1.095-.315,1.594,1.594,0,0,1,1.56.787,2.684,2.684,0,0,1,.24,1.245v3.127h-.374v-3.2q0-1.642-1.431-1.642a1.625,1.625,0,0,0-1.368.623,2.34,2.34,0,0,0-.445,1.485v2.729Z" transform="translate(-23.533 -9.637)" fill="#1a1818" fill-rule="evenodd"/>
    <path id="Path_63134" data-name="Path 63134" d="M475.864,753.905h-.383v-5.042h.383Zm0-5.993h-.383V746.9h.383Z" transform="translate(-25.328 -8.963)" fill="#1a1818" fill-rule="evenodd"/>
    <path id="Path_63135" data-name="Path 63135" d="M481.24,751.115h-.37a1.352,1.352,0,0,0-.555-1.04,1.947,1.947,0,0,0-1.156-.322,1.752,1.752,0,0,0-1.457.691,2.465,2.465,0,0,0-.493,1.567,2.78,2.78,0,0,0,.452,1.656,1.714,1.714,0,0,0,1.5.718,1.679,1.679,0,0,0,1.176-.431,1.769,1.769,0,0,0,.569-1.135h.383a2.166,2.166,0,0,1-.691,1.382,2.059,2.059,0,0,1-1.436.515,2.1,2.1,0,0,1-1.765-.8,3.03,3.03,0,0,1-.554-1.9,2.746,2.746,0,0,1,.588-1.82,2.126,2.126,0,0,1,1.732-.76,2.32,2.32,0,0,1,1.41.4A1.7,1.7,0,0,1,481.24,751.115Z" transform="translate(-25.694 -9.648)" fill="#1a1818" fill-rule="evenodd"/>
    <path id="Path_63136" data-name="Path 63136" d="M483.4,752.906h.37a1.469,1.469,0,0,0,.506,1.081,1.719,1.719,0,0,0,1.156.4q1.608,0,1.608-1.074a.87.87,0,0,0-.54-.835,5.557,5.557,0,0,0-1.217-.328,3.526,3.526,0,0,1-1.163-.383,1.17,1.17,0,0,1-.541-1.04,1.1,1.1,0,0,1,.6-1.033,2.519,2.519,0,0,1,1.232-.26q1.861,0,1.861,1.608h-.383q-.007-1.287-1.478-1.287a2.094,2.094,0,0,0-.959.2.852.852,0,0,0,.035,1.566,5.6,5.6,0,0,0,1.217.335,3.38,3.38,0,0,1,1.183.41,1.162,1.162,0,0,1,.527,1.047,1.188,1.188,0,0,1-.65,1.108,2.646,2.646,0,0,1-1.327.294,2.171,2.171,0,0,1-1.43-.459,1.691,1.691,0,0,1-.6-1.347Z" transform="translate(-27.475 -9.646)" fill="#1a1818" fill-rule="evenodd"/>
    <path id="Path_63137" data-name="Path 63137" d="M369.533,722.127v.889h6.809a11.3,11.3,0,0,1,8.217,3.36,10.848,10.848,0,0,1,3.447,8.1,11.03,11.03,0,0,1-3.447,8.16,11.724,11.724,0,0,1-16.434,0,11.078,11.078,0,0,1-3.419-8.16V717.3a4.907,4.907,0,0,1,4.827,4.827Zm13.589,12.356a6.663,6.663,0,0,0-1.983-4.856,6.383,6.383,0,0,0-4.8-2.04h-6.78v6.894a6.913,6.913,0,0,0,1.954,4.914,6.477,6.477,0,0,0,4.826,2.039,6.386,6.386,0,0,0,4.8-2.039,6.857,6.857,0,0,0,1.982-4.914Z" transform="translate(4.71 -0.936)" fill="#fff" fill-rule="evenodd"/>
    <path id="Path_63138" data-name="Path 63138" d="M421.122,736.666v11.463H409.458a11.439,11.439,0,0,1-8.217-19.594,11.654,11.654,0,0,1,16.434,0,10.938,10.938,0,0,1,3.447,8.131Zm-4.884,6.895v-6.895a6.761,6.761,0,0,0-1.983-4.884,6.344,6.344,0,0,0-4.8-2.069,6.435,6.435,0,0,0-4.827,2.069,7.083,7.083,0,0,0,0,9.768,6.522,6.522,0,0,0,4.827,2.013Z" transform="translate(-4.271 -3.063)" fill="#fff" fill-rule="evenodd"/>
    <path id="Path_63139" data-name="Path 63139" d="M428.239,782.475h-4.827V759.49a4.907,4.907,0,0,1,4.827,4.825v4.626h6.378a6.4,6.4,0,0,0,4.8-2.069,5.735,5.735,0,0,0,1.893-3.506s.225-3.533,4.914-3.533v2.153a11.156,11.156,0,0,1-1.264,5.2,11.506,11.506,0,0,1-3.448,4.051,11.429,11.429,0,0,1,3.448,4.08,10.925,10.925,0,0,1,1.264,5.143v2.013H441.4V780.46a6.824,6.824,0,0,0-1.983-4.884,6.4,6.4,0,0,0-4.8-2.069h-6.378Z" transform="translate(-11.21 -12.377)" fill="#fff" fill-rule="evenodd"/>
    <path id="Path_63140" data-name="Path 63140" d="M475.553,770.95a6.826,6.826,0,0,1-1.983,4.884,6.4,6.4,0,0,1-4.8,2.069,6.478,6.478,0,0,1-4.827-2.039,6.861,6.861,0,0,1-1.983-4.914v-6.636a4.907,4.907,0,0,0-4.826-4.827V770.95a11.077,11.077,0,0,0,3.417,8.16,11.689,11.689,0,0,0,16.406,0,11.075,11.075,0,0,0,3.419-8.159V759.486a4.67,4.67,0,0,0-3.419,1.436,4.621,4.621,0,0,0-1.407,3.39Z" transform="translate(-20.354 -12.375)" fill="#fff" fill-rule="evenodd"/>
    <path id="Path_63141" data-name="Path 63141" d="M434.486,750.083v-2.812h4.283V746.9h-4.713v7.006h4.762v-.369h-4.331v-3.086h4.025v-.368Z" transform="translate(-14.095 -8.963)" fill="#fff" fill-rule="evenodd"/>
    <rect id="Rectangle_333" data-name="Rectangle 333" width="0.383" height="7.006" transform="translate(425.126 737.937)" fill="#fff"/>
    <path id="Path_63142" data-name="Path 63142" d="M443.046,750.279a3.128,3.128,0,0,0-.541,1.874,2.8,2.8,0,0,0,.554,1.793,2.008,2.008,0,0,0,1.67.766,1.978,1.978,0,0,0,2.182-1.825h-.37a1.726,1.726,0,0,1-1.813,1.5,1.646,1.646,0,0,1-1.423-.7,2.546,2.546,0,0,1-.431-1.567h4.078a2.808,2.808,0,0,0-.486-1.888,2.031,2.031,0,0,0-1.737-.8,1.945,1.945,0,0,0-1.685.849Zm3.523,1.519h-3.693a2.606,2.606,0,0,1,.541-1.4,1.619,1.619,0,0,1,1.313-.643,1.675,1.675,0,0,1,1.354.616A2.236,2.236,0,0,1,446.569,751.8Z" transform="translate(-16.385 -9.647)" fill="#fff" fill-rule="evenodd"/>
    <path id="Path_63143" data-name="Path 63143" d="M449.6,750.188a2.746,2.746,0,0,0-.588,1.82,3.031,3.031,0,0,0,.554,1.9,2.1,2.1,0,0,0,1.765.8,2.059,2.059,0,0,0,1.436-.515,2.165,2.165,0,0,0,.691-1.382h-.382a1.771,1.771,0,0,1-.568,1.135,1.68,1.68,0,0,1-1.177.431,1.715,1.715,0,0,1-1.5-.718,2.781,2.781,0,0,1-.451-1.656,2.465,2.465,0,0,1,.493-1.567,1.752,1.752,0,0,1,1.457-.691,1.944,1.944,0,0,1,1.156.321,1.352,1.352,0,0,1,.555,1.04h.37a1.7,1.7,0,0,0-.671-1.286,2.32,2.32,0,0,0-1.41-.4A2.126,2.126,0,0,0,449.6,750.188Z" transform="translate(-18.148 -9.645)" fill="#fff" fill-rule="evenodd"/>
    <path id="Path_63144" data-name="Path 63144" d="M456.015,749.331v3.517a1.038,1.038,0,0,0,1.2,1.211c.077,0,.162,0,.253-.007v-.322a1.409,1.409,0,0,1-.8-.137.846.846,0,0,1-.281-.746v-3.517h1.095v-.322H456.39v-1.567h-.374v1.567h-.931v.322Z" transform="translate(-19.799 -9.109)" fill="#fff" fill-rule="evenodd"/>
    <path id="Path_63145" data-name="Path 63145" d="M458.84,749.58v5.042h.374v-2.751a1.984,1.984,0,0,1,.568-1.465,1.608,1.608,0,0,1,1.191-.492c.068,0,.136,0,.2.006v-.37A2.236,2.236,0,0,0,460,749.8a1.466,1.466,0,0,0-.759.891h-.027V749.58Z" transform="translate(-20.816 -9.68)" fill="#fff" fill-rule="evenodd"/>
    <path id="Path_63146" data-name="Path 63146" d="M462.378,750.219a3.206,3.206,0,0,0,0,3.7,2.081,2.081,0,0,0,1.724.8,2.112,2.112,0,0,0,1.732-.8,3.189,3.189,0,0,0,.008-3.7,2.3,2.3,0,0,0-3.463,0Zm.26,3.454a2.928,2.928,0,0,1,0-3.209,1.862,1.862,0,0,1,2.928,0,2.909,2.909,0,0,1,.007,3.209,1.869,1.869,0,0,1-2.935,0Z" transform="translate(-21.616 -9.648)" fill="#fff" fill-rule="evenodd"/>
    <path id="Path_63147" data-name="Path 63147" d="M468.861,749.537v5.042h.374V751.85a2.34,2.34,0,0,1,.445-1.486,1.625,1.625,0,0,1,1.368-.622q1.43,0,1.431,1.642v3.2h.374v-3.127a2.683,2.683,0,0,0-.24-1.245,1.594,1.594,0,0,0-1.56-.787,2.013,2.013,0,0,0-1.095.315,1.592,1.592,0,0,0-.7.883h-.021v-1.081Z" transform="translate(-23.533 -9.637)" fill="#fff" fill-rule="evenodd"/>
    <rect id="Rectangle_334" data-name="Rectangle 334" width="0.383" height="5.042" transform="translate(450.153 739.9)" fill="#fff"/>
    <rect id="Rectangle_335" data-name="Rectangle 335" width="0.383" height="1.013" transform="translate(450.153 737.937)" fill="#fff"/>
    <path id="Path_63148" data-name="Path 63148" d="M477.427,750.188a2.745,2.745,0,0,0-.588,1.82,3.03,3.03,0,0,0,.554,1.9,2.1,2.1,0,0,0,1.765.8,2.059,2.059,0,0,0,1.436-.515,2.165,2.165,0,0,0,.691-1.382H480.9a1.768,1.768,0,0,1-.569,1.135,1.679,1.679,0,0,1-1.176.431,1.714,1.714,0,0,1-1.5-.718,2.781,2.781,0,0,1-.452-1.656,2.464,2.464,0,0,1,.493-1.567,1.752,1.752,0,0,1,1.457-.691,1.946,1.946,0,0,1,1.156.322,1.352,1.352,0,0,1,.555,1.04h.37a1.7,1.7,0,0,0-.671-1.286,2.32,2.32,0,0,0-1.41-.4A2.126,2.126,0,0,0,477.427,750.188Z" transform="translate(-25.693 -9.645)" fill="#fff" fill-rule="evenodd"/>
    <path id="Path_63149" data-name="Path 63149" d="M483.4,752.907a1.691,1.691,0,0,0,.6,1.347,2.171,2.171,0,0,0,1.43.459,2.648,2.648,0,0,0,1.327-.294,1.188,1.188,0,0,0,.65-1.108,1.162,1.162,0,0,0-.527-1.047,3.385,3.385,0,0,0-1.183-.411,5.6,5.6,0,0,1-1.217-.335.852.852,0,0,1-.035-1.566,2.094,2.094,0,0,1,.958-.2q1.471,0,1.478,1.287h.383q0-1.608-1.861-1.608a2.519,2.519,0,0,0-1.232.26,1.1,1.1,0,0,0-.6,1.033,1.17,1.17,0,0,0,.541,1.04,3.526,3.526,0,0,0,1.163.383,5.558,5.558,0,0,1,1.217.328.87.87,0,0,1,.54.835q0,1.074-1.608,1.074a1.719,1.719,0,0,1-1.156-.4,1.469,1.469,0,0,1-.506-1.081Z" transform="translate(-27.475 -9.647)" fill="#fff" fill-rule="evenodd"/>
  </g>
</svg>
