<svg xmlns="http://www.w3.org/2000/svg" width="125" height="125" viewBox="0 0 125 125">
  <g id="handshake" transform="translate(-149 -1303)">
    <rect id="Rectangle_300" data-name="Rectangle 300" width="125" height="125" transform="translate(149 1303)" fill="#fafafa"/>
    <g id="Group_161" data-name="Group 161" transform="translate(6 5)">
      <path id="handshake-2" data-name="handshake" d="M88.738,4.5H71.882a6.277,6.277,0,0,0-4.239,1.648L48.354,23.809c-.02.02-.039.059-.059.078a7.806,7.806,0,0,0-.412,10.989,8.184,8.184,0,0,0,11.008.53c.02-.02.059-.02.078-.039L74.649,21a3.139,3.139,0,0,1,4.239,4.631l-5.122,4.69,28.571,23.194a14.137,14.137,0,0,1,1.55,1.511V17.059C92.015,5.167,90.406,4.5,88.738,4.5Zm9.654,53.9L69.1,34.621l-5.887,5.4A14.125,14.125,0,0,1,44.116,19.2L60.167,4.5H43.724a6.268,6.268,0,0,0-4.435,1.845L28.555,17.059V60.994h3.591L49.9,77.065A12.556,12.556,0,0,0,67.565,75.24L67.6,75.2l3.512,3.042a7.292,7.292,0,0,0,10.263-1.06l6.162-7.574,1.06.863a6.269,6.269,0,0,0,8.83-.922l1.864-2.3a6.291,6.291,0,0,0-.9-8.85Z" transform="translate(139.121 1318.5)" fill="#0f4c75"/>
      <rect id="Rectangle_301" data-name="Rectangle 301" width="7" height="42" transform="translate(158 1336.683)" fill="#0f4c75"/>
      <rect id="Rectangle_302" data-name="Rectangle 302" width="7" height="42" transform="translate(246 1336.683)" fill="#0f4c75"/>
    </g>
  </g>
</svg>
