<svg id="Avanqardups-white" xmlns="http://www.w3.org/2000/svg" xmlns:xlink="http://www.w3.org/1999/xlink" width="276" height="36.172" viewBox="0 0 276 36.172">
  <defs>
    <linearGradient id="linear-gradient" y1="0.84" x2="1" y2="0.84" gradientUnits="objectBoundingBox">
      <stop offset="0" stop-color="#95c3e1"/>
      <stop offset="0.5" stop-color="#91bfdd"/>
      <stop offset="1" stop-color="#0f4c75"/>
    </linearGradient>
    <linearGradient id="linear-gradient-2" x1="0" y1="0.757" y2="0.757" xlink:href="#linear-gradient"/>
    <linearGradient id="linear-gradient-3" x1="0" y1="0.651" y2="0.651" xlink:href="#linear-gradient"/>
  </defs>
  <g id="Letter_Logo" data-name="Letter Logo" transform="translate(25.947)">
    <path id="Path_206" data-name="Path 206" d="M97.268,20.535H82.088l-4.5,6.975H73.21L92.576,0h3.069l7.34,27.51H98.962ZM96.361,17.6,92.941,3.668,83.889,17.6Z" transform="translate(-73.21 0.011)" fill="#fafafa"/>
    <path id="Path_207" data-name="Path 207" d="M171.683,18.32,157.818,39.337h-4.055l-5.2-21.017H152.5l4.055,16.846L167.688,18.32Z" transform="translate(-121.854 -11.816)" fill="#fafafa"/>
    <path id="Path_208" data-name="Path 208" d="M287.545,19.613a6.493,6.493,0,0,1,2.073,5.157,13.659,13.659,0,0,1-.245,2.46L286.95,39.014H283l2.4-11.781a9.891,9.891,0,0,0,.209-1.74,3.976,3.976,0,0,0-1.276-3.19,5.624,5.624,0,0,0-3.785-1.109,8.1,8.1,0,0,0-5.284,1.684,8.45,8.45,0,0,0-2.775,5.019l-2.3,11.1H266.23l4.32-21.017h3.782l-.532,2.736a10.827,10.827,0,0,1,7.9-2.9A8.52,8.52,0,0,1,287.545,19.613Z" transform="translate(-197.819 -11.493)" fill="#fafafa"/>
    <path id="Path_209" data-name="Path 209" d="M358.871,17.963,352.945,47.21H349l2.027-10.222a10.52,10.52,0,0,1-3.332,1.939,6.532,6.532,0,0,1-3.02.5c-1.875,0-4.625-.188-6.082-.925a8.241,8.241,0,0,1-3.374-3.19,9.608,9.608,0,0,1-1.226-4.948,13.043,13.043,0,0,1,1.6-6.489,11.579,11.579,0,0,1,4.359-4.487,12.508,12.508,0,0,1,6.316-1.616,10.714,10.714,0,0,1,4.919,1.035,6.734,6.734,0,0,1,3.062,3.048l.826-3.881Zm-10.041,17.1a7.964,7.964,0,0,0,3.041-3.211,9.82,9.82,0,0,0,1.1-4.682,5.781,5.781,0,0,0-1.691-4.441,6.7,6.7,0,0,0-4.817-1.581,8.332,8.332,0,0,0-4.359,1.131,8.152,8.152,0,0,0-3.048,3.208,9.728,9.728,0,0,0-1.127,4.71,5.749,5.749,0,0,0,1.708,4.427,6.766,6.766,0,0,0,4.792,1.595A8.475,8.475,0,0,0,348.831,35.067Z" transform="translate(-241.564 -11.459)" fill="#fafafa"/>
    <path id="Path_210" data-name="Path 210" d="M429.23,17.882l-4.317,20.95h-3.792l.542-2.57a10.673,10.673,0,0,1-3.441,2.07,7.181,7.181,0,0,1-3.282.556,15.692,15.692,0,0,1-5.954-.914,8.109,8.109,0,0,1-3.413-3.14,9.215,9.215,0,0,1-1.237-4.824,12.565,12.565,0,0,1,1.609-6.38,11.523,11.523,0,0,1,4.42-4.395,12.7,12.7,0,0,1,6.319-1.581,11.09,11.09,0,0,1,4.792.971,6.855,6.855,0,0,1,3.08,2.835l.737-3.544Zm-10.02,16.747a7.858,7.858,0,0,0,3.048-3.144,9.482,9.482,0,0,0,1.1-4.547,5.618,5.618,0,0,0-1.683-4.352,6.85,6.85,0,0,0-4.817-1.538,8.57,8.57,0,0,0-4.359,1.12,8.112,8.112,0,0,0-3.048,3.151,9.406,9.406,0,0,0-1.1,4.547,5.557,5.557,0,0,0,1.712,4.331,6.829,6.829,0,0,0,4.788,1.559A8.507,8.507,0,0,0,419.211,34.628Z" transform="translate(-286.976 -11.385)" fill="#fafafa"/>
    <path id="Path_211" data-name="Path 211" d="M530.208-.019l-6.082,27.447h-3.757l.532-2.58a10.448,10.448,0,0,1-3.431,2.07,11.965,11.965,0,0,1-4.253.564,10.906,10.906,0,0,1-5.012-.918,8.1,8.1,0,0,1-3.42-3.154,9.322,9.322,0,0,1-1.23-4.845,12.76,12.76,0,0,1,1.595-6.426,11.515,11.515,0,0,1,4.406-4.388,12.631,12.631,0,0,1,6.312-1.588,11.2,11.2,0,0,1,4.856.982,6.621,6.621,0,0,1,3.062,2.835L526.267-.03ZM518.424,23.192a7.886,7.886,0,0,0,3.048-3.154,9.649,9.649,0,0,0,1.088-4.607,5.621,5.621,0,0,0-1.691-4.37,6.81,6.81,0,0,0-4.813-1.549,8.506,8.506,0,0,0-4.363,1.131,8.049,8.049,0,0,0-3.041,3.161,9.41,9.41,0,0,0-1.123,4.607,5.621,5.621,0,0,0,1.712,4.352,6.674,6.674,0,0,0,4.788,1.567,8.563,8.563,0,0,0,4.395-1.138Z" transform="translate(-351.03 0.03)" fill="#fafafa"/>
    <path id="Path_212" data-name="Path 212" d="M584.685,25.678a8.024,8.024,0,0,1-2.835-6.553,16.927,16.927,0,0,1,.354-3.1L585.781,0h2.236l-3.505,15.974a12.385,12.385,0,0,0-.355,3.02,6.437,6.437,0,0,0,2.236,5.316,9.9,9.9,0,0,0,6.38,1.825,11.52,11.52,0,0,0,7.737-2.481q2.91-2.481,4.076-7.68L608.081,0h2.236l-3.587,16.091c-1.73,7.946-7.393,11.42-15.077,11.42C588.262,27.51,586.571,27.23,584.685,25.678Z" transform="translate(-401.576 0.011)" fill="#fafafa"/>
    <path id="Path_213" data-name="Path 213" d="M673.713,22.278a8.06,8.06,0,0,1,2.7,6.4,12.583,12.583,0,0,1-1.691,6.486,11.936,11.936,0,0,1-4.643,4.522c-1.96,1.092-4.395,1.131-6.847,1.131s-4.1.046-5.635-.879a7.224,7.224,0,0,1-3.19-4.019l-2.835,13.06H649.4l6.27-28.921h2.148l-.879,4.055a11.251,11.251,0,0,1,4.122-3.144,13.05,13.05,0,0,1,5.476-1.113A10.564,10.564,0,0,1,673.713,22.278ZM669,38.11a10.006,10.006,0,0,0,3.81-3.817,10.9,10.9,0,0,0,1.35-5.494,6.553,6.553,0,0,0-2.127-5.21,8.865,8.865,0,0,0-5.99-1.857,11.047,11.047,0,0,0-5.494,1.365,10.133,10.133,0,0,0-3.846,3.8,10.906,10.906,0,0,0-1.357,5.515,6.521,6.521,0,0,0,2.162,5.214,8.991,8.991,0,0,0,6.025,1.857,10.892,10.892,0,0,0,5.5-1.4Z" transform="translate(-445.185 -12.808)" fill="#fafafa"/>
    <path id="Path_214" data-name="Path 214" d="M724.792,40.124A10.566,10.566,0,0,1,721,38.253l1.18-1.542a9.215,9.215,0,0,0,3.381,1.772,15.3,15.3,0,0,0,4.494.656,11.166,11.166,0,0,0,5.5-1.12,3.47,3.47,0,0,0,1.953-3.133,2.233,2.233,0,0,0-.79-1.811,5.223,5.223,0,0,0-1.924-1.007c-.762-.223-1.818-.468-3.154-.73a31.582,31.582,0,0,1-3.838-.9,6.117,6.117,0,0,1-2.481-1.481,3.678,3.678,0,0,1-1.014-2.7,5.167,5.167,0,0,1,2.655-4.565A12.676,12.676,0,0,1,733.915,20a16.658,16.658,0,0,1,4.253.535,9.02,9.02,0,0,1,3.292,1.471l-1.01,1.538a9.018,9.018,0,0,0-3.048-1.35,14.814,14.814,0,0,0-3.675-.5,10.19,10.19,0,0,0-5.284,1.177,3.544,3.544,0,0,0-1.953,3.115,2.361,2.361,0,0,0,.79,1.871,5.316,5.316,0,0,0,1.992,1.042c.8.234,1.878.486,3.225.751a30.907,30.907,0,0,1,3.789.883,6.026,6.026,0,0,1,2.435,1.435,3.612,3.612,0,0,1,1.007,2.7,5.111,5.111,0,0,1-2.7,4.53c-1.772,1.1-2.835,1.148-5.813,1.148C729.442,40.347,726.409,40.617,724.792,40.124Z" transform="translate(-491.408 -12.901)" fill="#fafafa"/>
    <path id="Path_215" data-name="Path 215" d="M222.456,17.94l-.737,3.562a6.819,6.819,0,0,0-3.094-2.8,11.033,11.033,0,0,0-4.732-.953,12.936,12.936,0,0,0-5.547,1.216l-6.755,10.19c0,.312-.057.617-.057.932a9.215,9.215,0,0,0,1.226,4.827,8.12,8.12,0,0,0,3.392,3.126c1.45.709,4.526.914,6.38.914a5.455,5.455,0,0,0,2.835-.556,10.757,10.757,0,0,0,3.438-2.073l-.532,2.566h3.8L226.4,17.94Zm-3.02,13.6a7.858,7.858,0,0,1-3.048,3.144,8.545,8.545,0,0,1-4.377,1.127,6.818,6.818,0,0,1-4.792-1.559,5.557,5.557,0,0,1-1.712-4.331,9.421,9.421,0,0,1,1.109-4.583,8.1,8.1,0,0,1,3.048-3.147,8.574,8.574,0,0,1,4.359-1.124,6.893,6.893,0,0,1,4.817,1.542A5.607,5.607,0,0,1,220.525,27a9.481,9.481,0,0,1-1.088,4.547Z" transform="translate(-156.052 -11.444)" fill="#fafafa"/>
    <path id="Path_216" data-name="Path 216" d="M483.936,19.329c.188-.106.393-.181.581-.276l.262-1.311a14.351,14.351,0,0,0-5.1.8,8.258,8.258,0,0,0-3.544,2.534l.613-3.13h-3.771L468.65,38.961h3.955l2.194-10.5c.815-4.055,2.952-6.312,6.38-6.9a11.654,11.654,0,0,1,2.757-2.233Z" transform="translate(-328.497 -11.44)" fill="#fafafa"/>
  </g>
  <g id="Abstract_Logo_Mark" data-name="Abstract Logo Mark" transform="translate(0 0.011)">
    <path id="Path_217" data-name="Path 217" d="M36.85,27.5h3.055L59.888,0H56.832Z" transform="translate(-23.79)" fill="url(#linear-gradient)"/>
    <path id="Path_218" data-name="Path 218" d="M21.479,33.068H18.42L36.184,8.62h3.062Z" transform="translate(-11.892 -5.565)" fill="url(#linear-gradient-2)"/>
    <path id="Path_219" data-name="Path 219" d="M3.055,38.639H0L15.541,17.25H18.6Z" transform="translate(0 -11.136)" fill="url(#linear-gradient-3)"/>
  </g>
</svg>
